<svg width="19" height="7" viewBox="0 0 19 7" fill="none" xmlns="http://www.w3.org/2000/svg">
<path d="M1.25661 1.79875V2.31944H1.27513C1.43915 2.08539 1.62698 1.91972 1.83333 1.81716C2.03968 1.71722 2.28571 1.66463 2.57143 1.66463C2.87566 1.66463 3.13228 1.733 3.33862 1.87238C3.54497 2.01176 3.68254 2.21425 3.75397 2.47722H3.77249C3.87302 2.20636 4.03704 2.00124 4.2619 1.86712C4.48677 1.73037 4.75661 1.66463 5.06614 1.66463C5.50529 1.66463 5.8254 1.79612 6.03175 2.05646C6.2381 2.31944 6.34127 2.69549 6.34127 3.18725V6.88994H5.02645V3.32926C5.02645 3.11362 4.98677 2.95058 4.90741 2.8375C4.82804 2.72442 4.69577 2.66656 4.51323 2.66656C4.30423 2.66656 4.13757 2.73494 4.01323 2.87431C3.88889 3.01369 3.82804 3.23459 3.82804 3.53701V6.88731H2.51323V3.32663C2.51323 3.11099 2.47355 2.94795 2.39418 2.83487C2.31482 2.72179 2.18254 2.66393 2 2.66393C1.79101 2.66393 1.62434 2.73231 1.5 2.87168C1.37566 3.01106 1.31481 3.23196 1.31481 3.53438V6.88468H0V1.79086H1.25661V1.79875ZM9.64815 3.253C9.62963 3.10573 9.59524 2.9795 9.54762 2.87431C9.5 2.76912 9.43386 2.69023 9.34656 2.63764C9.26191 2.58504 9.15079 2.55611 9.01852 2.55611C8.88624 2.55611 8.77513 2.58504 8.69048 2.64553C8.60582 2.70601 8.53704 2.7849 8.48677 2.8822C8.43651 2.9795 8.39947 3.08995 8.37831 3.20829C8.35714 3.32926 8.34391 3.4476 8.34391 3.56857V3.76843H9.68783C9.68254 3.57383 9.66931 3.40026 9.65079 3.253H9.64815ZM8.34391 4.95181C8.34391 5.10434 8.3545 5.24897 8.37831 5.39098C8.39947 5.53299 8.43651 5.65922 8.48677 5.76967C8.53704 5.88012 8.60317 5.96953 8.68783 6.03527C8.76984 6.10101 8.87302 6.1352 8.99206 6.1352C9.21428 6.1352 9.37566 6.05631 9.47884 5.89852C9.57937 5.74074 9.65079 5.50143 9.68783 5.17797H10.8677C10.8413 5.77229 10.6825 6.22198 10.3915 6.53229C10.1005 6.8426 9.64021 6.99513 9.01058 6.99513C8.53439 6.99513 8.16402 6.91624 7.89683 6.75845C7.62963 6.60067 7.43386 6.39291 7.30688 6.13257C7.17989 5.87485 7.10317 5.58295 7.07407 5.26212C7.04497 4.94129 7.03175 4.61784 7.03175 4.29701C7.03175 3.95514 7.05556 3.62905 7.10317 3.31348C7.15079 2.99791 7.24603 2.71653 7.38889 2.47196C7.53175 2.22477 7.73545 2.03016 8.00265 1.88553C8.26984 1.74089 8.62434 1.66726 9.06878 1.66726C9.44974 1.66726 9.76191 1.72774 10.0079 1.85134C10.2513 1.97494 10.4444 2.1485 10.5847 2.37203C10.7249 2.59556 10.8201 2.86642 10.8704 3.18725C10.9206 3.50545 10.9471 3.86047 10.9471 4.2523V4.54683H8.34656V4.95444L8.34391 4.95181ZM17.1243 1.76982L16.5714 4.13659C16.5344 4.31279 16.5132 4.44164 16.5132 4.52579C16.5132 4.65202 16.5767 4.71514 16.7037 4.71514C16.7989 4.71514 16.9048 4.67569 17.0185 4.5968C17.1323 4.51791 17.2381 4.40746 17.3386 4.26545C17.4365 4.12344 17.5212 3.94988 17.5899 3.74476C17.6587 3.53964 17.6958 3.31348 17.6958 3.06891C17.6958 2.75335 17.627 2.46407 17.4868 2.19847C17.3466 1.93286 17.1587 1.70408 16.9259 1.50685C16.6905 1.31224 16.4206 1.15972 16.1164 1.0519C15.8122 0.944079 15.4947 0.891484 15.164 0.891484C14.7884 0.891484 14.4418 0.965118 14.1217 1.10975C13.8016 1.25439 13.5238 1.45162 13.2884 1.69619C13.0529 1.94338 12.8704 2.22214 12.7354 2.53771C12.6032 2.85328 12.5344 3.18199 12.5344 3.52123C12.5344 3.88151 12.6085 4.22074 12.754 4.53894C12.8995 4.85714 13.0952 5.1359 13.3386 5.37257C13.582 5.60925 13.8677 5.79596 14.1958 5.93008C14.5238 6.06683 14.8677 6.13257 15.2302 6.13257C15.6693 6.13257 16.0556 6.07209 16.3915 5.94849C16.7275 5.82489 17.0291 5.68551 17.2963 5.52773H18.1429C17.7989 6.00108 17.3704 6.36399 16.8571 6.61644C16.3439 6.8689 15.7249 6.99513 15 6.99513C14.5106 6.99513 14.0529 6.90572 13.6243 6.72952C13.1958 6.55333 12.8201 6.30613 12.5 5.99057C12.1799 5.675 11.9259 5.3042 11.7434 4.87818C11.5582 4.45216 11.4683 3.99722 11.4683 3.51071C11.4683 3.02421 11.5608 2.56926 11.7434 2.14324C11.9286 1.71722 12.1799 1.3438 12.5 1.0256C12.8201 0.707401 13.1958 0.454947 13.6243 0.273494C14.0529 0.0894117 14.5106 0 15 0C15.4894 0 15.9286 0.0683736 16.3571 0.202491C16.7857 0.339238 17.1614 0.531209 17.4815 0.783665C17.8016 1.03612 18.0582 1.33854 18.2487 1.6883C18.4392 2.03805 18.5344 2.43252 18.5344 2.86642C18.5344 3.2004 18.4894 3.50019 18.4021 3.76054C18.3122 4.02351 18.1984 4.25493 18.0556 4.45742C17.9127 4.65991 17.7513 4.83085 17.5741 4.97285C17.3968 5.11486 17.2196 5.23057 17.0397 5.31735C16.8624 5.40676 16.6931 5.46988 16.5344 5.51195C16.3757 5.55403 16.246 5.57243 16.1429 5.57243C15.7619 5.57243 15.5556 5.40413 15.5238 5.07015H15.5053C15.3783 5.20164 15.2196 5.31998 15.0291 5.41991C14.8386 5.51984 14.6164 5.57243 14.3624 5.57243C14.1905 5.57243 14.0238 5.53562 13.8571 5.46462C13.6931 5.39098 13.545 5.28579 13.4153 5.14641C13.2857 5.00704 13.1799 4.83874 13.0952 4.63888C13.0132 4.43901 12.9709 4.21549 12.9709 3.96303C12.9709 3.67376 13.0185 3.38974 13.1138 3.11099C13.209 2.83224 13.3466 2.58504 13.5238 2.36677C13.7011 2.1485 13.9153 1.97231 14.1667 1.83556C14.418 1.69882 14.6984 1.63307 15.0106 1.63307C15.2513 1.63307 15.4683 1.68304 15.664 1.7856C15.8571 1.88553 16.0238 2.04857 16.164 2.26947L16.2884 1.76719H17.127L17.1243 1.76982ZM14.2249 4.34434C14.3492 4.49687 14.5132 4.5705 14.7143 4.5705C14.8783 4.5705 15.0291 4.53368 15.1614 4.46268C15.2937 4.38905 15.4101 4.29438 15.5079 4.17867C15.6058 4.06296 15.6825 3.93147 15.7354 3.78684C15.7884 3.6422 15.8175 3.50019 15.8175 3.36082C15.8175 3.15833 15.7487 2.98739 15.6085 2.85065C15.4683 2.71127 15.3016 2.6429 15.1032 2.6429C14.9497 2.6429 14.8095 2.67971 14.6799 2.75072C14.5503 2.82435 14.4365 2.91639 14.3413 3.02947C14.246 3.14255 14.172 3.26878 14.1164 3.40289C14.0635 3.53964 14.0344 3.67376 14.0344 3.80524C14.0344 4.01299 14.0952 4.19445 14.2196 4.34434H14.2249Z" fill="#06102D"/>
</svg>
