<svg width="31" height="33" viewBox="0 0 31 33" fill="none" xmlns="http://www.w3.org/2000/svg">
<path d="M23.2659 10.9952C22.4765 10.0763 21.4821 9.30807 20.3109 8.76441C15.9131 6.72249 10.6824 8.61637 8.63212 12.9988C8.08623 14.1653 7.8197 15.3904 7.80688 16.6003L23.2659 10.9952V10.9952Z" stroke="#06102D" stroke-width="1.49" stroke-linecap="round" stroke-linejoin="round"/>
<path d="M22.4893 11.1689C21.805 10.4465 20.9746 9.83652 20.0161 9.39241C15.9643 7.51129 11.1487 9.25713 9.25738 13.2925C8.80888 14.2471 8.56798 15.2451 8.50903 16.2379L22.4867 11.1714L22.4893 11.1689Z" stroke="#06102D" stroke-width="0.74" stroke-linecap="round" stroke-linejoin="round"/>
<path d="M19.2755 11.8042C19.0628 11.6638 18.8372 11.5387 18.6015 11.429C15.9874 10.214 12.8787 11.3422 11.6587 13.9457C11.5485 14.183 11.4563 14.423 11.3845 14.6654L19.2755 11.8042Z" stroke="#06102D" stroke-width="0.74" stroke-linecap="round" stroke-linejoin="round"/>
<path fill-rule="evenodd" clip-rule="evenodd" d="M18.6015 11.429C18.8372 11.5387 19.0628 11.6638 19.2755 11.8042L11.3845 14.6654C11.4563 14.423 11.5485 14.183 11.6587 13.9457C12.8787 11.3422 15.9874 10.214 18.6015 11.429ZM17.32 11.6462L17.0637 11.3169H17.0586L17.074 11.7329L16.6819 11.8759L17.0842 11.9907L17.0996 12.4068L17.3328 12.0622L17.7352 12.1771L17.4789 11.8478L17.7121 11.5032L17.32 11.6462ZM14.6651 11.4163L14.9213 11.7455L15.3135 11.6026L15.0802 11.9472L15.3365 12.2764L14.9342 12.1616L14.7009 12.5061L14.6856 12.0901L14.2832 11.9752L14.6753 11.8323L14.6599 11.4163H14.6651ZM13.0197 13.2055L12.7635 12.8762H12.7583L12.7737 13.2923L12.3816 13.4352L12.784 13.5501L12.7993 13.9661L13.0326 13.6215L13.4349 13.7364L13.1786 13.4071L13.4118 13.0625L13.0197 13.2055Z" fill="#06102D"/>
<path d="M5.90259 17.2895L25.1699 10.3062" stroke="#06102D" stroke-width="2" stroke-miterlimit="10" stroke-linecap="square"/>
<path d="M6.14868 17.9632L25.4135 10.9773" stroke="#06102D" stroke-width="0.5" stroke-miterlimit="10" stroke-linecap="square"/>
<path d="M10.8591 19.3517L11.4767 19.1271L11.4639 19.0913C11.4255 19.1016 11.3998 19.1041 11.387 19.0965C11.3742 19.0913 11.3665 19.0811 11.3614 19.0658L10.9539 17.9504L11.469 17.7641C11.4844 17.759 11.4998 17.759 11.5101 17.7667C11.5229 17.7743 11.5357 17.7947 11.5536 17.8279L11.5895 17.8151L11.3947 17.2842L11.3588 17.297C11.3665 17.3327 11.3691 17.3557 11.3665 17.371C11.3614 17.3838 11.3537 17.394 11.3358 17.4017L9.85703 17.9377C9.84165 17.9428 9.82627 17.9428 9.81602 17.9351C9.80321 17.9275 9.79039 17.907 9.77245 17.8739L9.73657 17.8866L9.93135 18.4175L9.96723 18.4048C9.95954 18.369 9.95698 18.346 9.95954 18.3307C9.96466 18.318 9.97235 18.3078 9.99029 18.3001L10.5054 18.1138L10.9129 19.2292C10.918 19.2419 10.918 19.2573 10.9129 19.2675C10.9078 19.2802 10.8873 19.2955 10.8488 19.3134L10.8617 19.3491L10.8591 19.3517ZM12.7248 18.2644L12.3173 17.149C12.3122 17.1362 12.3122 17.1209 12.3173 17.1107C12.3225 17.0979 12.343 17.0826 12.3814 17.0647L12.3686 17.029L11.751 17.2536L11.7638 17.2894C11.8022 17.2791 11.8278 17.2766 11.8407 17.2842C11.8535 17.2894 11.8612 17.2996 11.8663 17.3149L12.3737 18.7034C12.3789 18.7161 12.3789 18.7315 12.3737 18.7417C12.3686 18.7544 12.3481 18.7697 12.3097 18.7876L12.3225 18.8233L13.8858 18.2567C13.9012 18.2516 13.914 18.2491 13.9242 18.2542C13.9345 18.2593 13.9473 18.2746 13.9627 18.3052L13.9986 18.2924L13.8089 17.7769L13.773 17.7896C13.7807 17.8254 13.7833 17.8483 13.7807 17.8636C13.7756 17.8764 13.7679 17.8866 13.75 17.8943L12.7197 18.2669L12.7248 18.2644ZM14.5291 17.0137L14.4035 16.6717L14.8571 16.5058C14.9417 16.4751 15.0058 16.4649 15.0544 16.4777C15.1031 16.4905 15.1365 16.5236 15.1595 16.5823C15.1826 16.6461 15.18 16.6997 15.1518 16.7406C15.1236 16.7814 15.0673 16.8197 14.9827 16.8478L14.5291 17.0137ZM14.6444 17.3302L15.1826 17.1337C15.2774 17.1005 15.3543 17.0571 15.4158 17.0035C15.4773 16.9499 15.5234 16.8937 15.5568 16.8299C15.5901 16.7661 15.6055 16.7023 15.608 16.6334C15.608 16.5645 15.5978 16.4956 15.5747 16.4317C15.5516 16.3654 15.5158 16.3067 15.4696 16.2556C15.4235 16.2046 15.3671 16.1637 15.303 16.1357C15.239 16.1076 15.1646 16.0923 15.0826 16.0923C15.0006 16.0923 14.9135 16.1076 14.8187 16.1433L13.7474 16.5313L13.7602 16.567C13.7987 16.5568 13.8243 16.5543 13.8371 16.5619C13.8499 16.567 13.8576 16.5772 13.8627 16.5925L14.3702 17.9811C14.3753 17.9938 14.3753 18.0091 14.3702 18.0193C14.365 18.0321 14.3445 18.0474 14.3061 18.0653L14.3189 18.101L14.9366 17.8764L14.9237 17.8407C14.8853 17.8509 14.8597 17.8534 14.8469 17.8458C14.834 17.8407 14.8264 17.8305 14.8212 17.8151L14.6444 17.3302ZM15.913 16.1152C15.8822 16.1791 15.8797 16.2429 15.9027 16.3067C15.9258 16.3705 15.9694 16.4164 16.0334 16.4471C16.0975 16.4777 16.1616 16.4802 16.2257 16.4573C16.2897 16.4343 16.3359 16.3909 16.3666 16.3271C16.3974 16.2633 16.3999 16.1995 16.3769 16.1357C16.3538 16.0719 16.3102 16.0259 16.2462 15.9953C16.1821 15.9647 16.118 15.9621 16.054 15.9851C15.9899 16.008 15.9437 16.0514 15.913 16.1152ZM16.2257 16.9729C16.1949 17.0367 16.1923 17.1005 16.2154 17.1643C16.2385 17.2281 16.282 17.274 16.3435 17.2996C16.4076 17.3251 16.4691 17.3276 16.5332 17.3047C16.5973 17.2817 16.6434 17.2409 16.6742 17.1796C16.7049 17.1183 16.71 17.0571 16.6844 16.9933C16.6613 16.9295 16.6178 16.8835 16.5537 16.8529C16.4896 16.8223 16.4256 16.8197 16.3615 16.8427C16.2974 16.8657 16.2513 16.909 16.2205 16.9729H16.2257ZM17.4302 15.9442L17.3097 15.6175L17.8121 15.4363C17.8992 15.4057 17.9658 15.398 18.012 15.421C18.0581 15.4414 18.0863 15.4746 18.1042 15.518C18.1196 15.5614 18.117 15.6048 18.0965 15.6507C18.076 15.6967 18.0222 15.7349 17.9325 15.7656L17.4302 15.9468V15.9442ZM17.5455 16.2607L17.8377 16.1535C17.8377 16.1535 17.8684 16.1765 17.8966 16.1969C17.9274 16.2173 17.9607 16.2403 18.0017 16.2658C18.0427 16.2914 18.0837 16.3194 18.1273 16.3475C18.1708 16.3756 18.2093 16.4037 18.2452 16.4266C18.281 16.4522 18.3118 16.4726 18.3374 16.4905C18.3631 16.5083 18.3759 16.5185 18.3759 16.5236C18.3887 16.5568 18.3733 16.5823 18.3297 16.6002L18.3426 16.6359L18.9653 16.4113L18.9525 16.3756C18.9192 16.3884 18.8833 16.3807 18.8449 16.3526L18.3118 15.9851C18.422 15.906 18.504 15.8141 18.5578 15.7069C18.6091 15.5997 18.6117 15.4771 18.5604 15.3419C18.4989 15.1734 18.4041 15.0662 18.2734 15.0228C18.1452 14.9794 17.9684 14.9973 17.748 15.0764L16.6537 15.4746L16.6665 15.5103C16.7049 15.5001 16.7305 15.4976 16.7434 15.5052C16.7562 15.5103 16.7639 15.5205 16.769 15.5359L17.2764 16.9244C17.2815 16.9371 17.2815 16.9524 17.2764 16.9626C17.2713 16.9754 17.2508 16.9907 17.2123 17.0086L17.2252 17.0443L17.8428 16.8197L17.83 16.784C17.7915 16.7942 17.7659 16.7967 17.7531 16.7891C17.7403 16.784 17.7326 16.7738 17.7275 16.7585L17.5455 16.2582V16.2607ZM20.3954 15.2474L20.2262 14.7829L20.1904 14.7957C20.1929 14.8161 20.1904 14.8365 20.1827 14.8544C20.175 14.8722 20.1545 14.885 20.1263 14.8978L19.5702 15.0994L19.4805 14.8518L20.4415 14.5047C20.4569 14.4996 20.4723 14.4996 20.4825 14.5072C20.4953 14.5149 20.5082 14.5353 20.5261 14.5685L20.562 14.5557L20.3723 14.0376L20.3364 14.0504C20.3441 14.0861 20.3467 14.1091 20.3441 14.1244C20.339 14.1371 20.3313 14.1473 20.3134 14.155L18.8192 14.6961L18.8321 14.7318C18.8705 14.7216 18.8961 14.7191 18.9089 14.7267C18.9218 14.7318 18.9294 14.7421 18.9346 14.7574L19.442 16.1459C19.4471 16.1586 19.4471 16.174 19.442 16.1842C19.4369 16.1969 19.4164 16.2122 19.3779 16.2301L19.3908 16.2658L20.8849 15.7247C20.9003 15.7196 20.9131 15.7171 20.9233 15.7196C20.9336 15.7222 20.9464 15.7375 20.9592 15.7605L20.9951 15.7477L20.808 15.2372L20.7721 15.25C20.7824 15.2883 20.7849 15.3163 20.7798 15.3291C20.7747 15.3419 20.767 15.3521 20.7491 15.3597L19.788 15.7069L19.6855 15.4287L20.2416 15.227C20.2724 15.2168 20.2954 15.2143 20.3134 15.2219C20.3313 15.2296 20.3467 15.2423 20.3569 15.2627L20.3928 15.25L20.3954 15.2474ZM21.7896 14.9922L21.4743 14.1269L21.8536 13.9891C22.01 13.9329 22.1407 13.9304 22.2381 13.9865C22.338 14.0427 22.4098 14.132 22.4559 14.2597C22.502 14.3873 22.5046 14.5021 22.4662 14.6093C22.4251 14.714 22.3278 14.7957 22.1689 14.8544L21.7896 14.9922ZM21.4359 15.4184C21.441 15.4312 21.441 15.4465 21.4359 15.4567C21.4308 15.4695 21.4103 15.4848 21.3718 15.5027L21.3846 15.5384L22.3457 15.1913C22.4841 15.1402 22.5994 15.0739 22.6891 14.9922C22.7788 14.9105 22.8455 14.8212 22.889 14.7216C22.9326 14.6246 22.9557 14.52 22.9557 14.4128C22.9557 14.3056 22.9377 14.2009 22.9018 14.1014C22.8608 13.9891 22.807 13.8921 22.7404 13.8104C22.6737 13.7262 22.5917 13.6624 22.502 13.6164C22.4098 13.5705 22.3073 13.545 22.1894 13.5424C22.074 13.5399 21.9459 13.5628 21.8075 13.6139L20.8131 13.9738L20.8259 14.0095C20.8644 13.9993 20.89 13.9968 20.9028 14.0044C20.9156 14.0095 20.9233 14.0197 20.9285 14.035L21.4359 15.4235V15.4184Z" fill="#06102D"/>
<path d="M25.1931 16.2737C25.1803 17.4835 24.9138 18.7087 24.3679 19.8751C22.3176 24.255 17.0869 26.1515 12.6891 24.1096C11.5179 23.5659 10.5235 22.7976 9.73413 21.8788L25.1931 16.2737V16.2737Z" stroke="#06102D" stroke-width="1.49" stroke-linecap="round" stroke-linejoin="round"/>
<path d="M24.4883 16.6387C24.4319 17.6316 24.1884 18.627 23.74 19.5841C21.8511 23.6195 17.033 25.3653 12.9812 23.4842C12.0227 23.0375 11.1923 22.4301 10.5081 21.7077L24.4857 16.6412L24.4883 16.6387Z" stroke="#06102D" stroke-width="0.74" stroke-linecap="round" stroke-linejoin="round"/>
<path d="M21.6153 18.2083C21.5436 18.4507 21.4513 18.6907 21.3411 18.928C20.1212 21.5315 17.0125 22.6596 14.3984 21.4447C14.16 21.3349 13.9371 21.2099 13.7244 21.0695L21.6153 18.2083V18.2083Z" stroke="#06102D" stroke-width="0.74" stroke-linecap="round" stroke-linejoin="round"/>
<path fill-rule="evenodd" clip-rule="evenodd" d="M21.3411 18.928C21.4513 18.6907 21.5436 18.4507 21.6153 18.2083L13.7244 21.0695C13.9371 21.2099 14.16 21.3349 14.3984 21.4447C17.0125 22.6596 20.1212 21.5315 21.3411 18.928ZM20.2213 19.5815L20.2366 19.9976H20.2315L19.9752 19.6683L19.5831 19.8113L19.8163 19.4667L19.5601 19.1374L19.9624 19.2523L20.1956 18.9077L20.211 19.3238L20.6134 19.4386L20.2213 19.5815ZM18.335 21.4576L18.3197 21.0415L18.7118 20.8986L18.3094 20.7837L18.294 20.3677L18.0608 20.7123L17.6584 20.5974L17.9147 20.9267L17.6815 21.2712L18.0736 21.1283L18.3299 21.4576H18.335ZM15.9207 21.1411L15.9361 21.5572H15.931L15.6747 21.2279L15.2826 21.3708L15.5158 21.0263L15.2595 20.697L15.6619 20.8119L15.8951 20.4673L15.9105 20.8833L16.3128 20.9982L15.9207 21.1411Z" fill="#06102D"/>
<path d="M7.74292 22.3279L27.0103 15.3445" stroke="#06102D" stroke-width="2" stroke-miterlimit="10" stroke-linecap="square"/>
<path d="M7.49683 21.6566L26.7642 14.6707" stroke="#06102D" stroke-width="0.5" stroke-miterlimit="10" stroke-linecap="square"/>
</svg>
