<svg width="19" height="21" viewBox="0 0 19 21" fill="none" xmlns="http://www.w3.org/2000/svg">
<path fill-rule="evenodd" clip-rule="evenodd" d="M10.9433 0.4056L10.4977 0.158713L10.4948 0.17047C10.3328 0.079357 10.1505 0.0293913 9.96528 0.0264522L8.59086 0H8.50116L8.23206 0.014696C8.05266 0.0235134 7.87905 0.0764178 7.7228 0.167531L7.06597 0.549617C6.98785 0.593704 6.91551 0.646609 6.85185 0.708331L6.06482 1.45193C6.01563 1.49896 5.97222 1.54892 5.93171 1.60183L5.136 2.66579C5.03472 2.80099 4.96239 2.9597 4.92766 3.12723L4.59201 4.70261C4.56887 4.81429 4.56019 4.92598 4.56887 5.04061L4.62684 5.80617H8.92867V0.911133V0.786133H9.17867V0.911133V5.80617H12.9476L13.0498 4.81723C13.0642 4.67909 13.0527 4.54096 13.0208 4.40869L12.636 2.84508C12.6071 2.72751 12.5608 2.61876 12.5 2.5159L12.2975 2.18083C12.2801 2.15144 12.2656 2.12499 12.2512 2.0956L11.9242 1.44017C11.875 1.33437 11.8056 1.24031 11.7274 1.15508L11.2269 0.626035C11.1429 0.537861 11.0475 0.464383 10.9433 0.4056ZM12.9217 6.05617H9.17867V7.09644H9.74188V6.92773H9.99188V7.09644V7.34644V7.51556H9.74188V7.34644H9.17867V8.17236H9.74188V8.00342H9.99188V8.17236V8.42236V8.59124H9.74188V8.42236H9.17867V9.27441H9.74188V9.10547H9.99188V9.27441V9.52441V9.69329H9.74188V9.52441H9.17867V10.9541V11.0791H8.92867V10.9541V9.52441H8.36572V9.69329H8.11572V9.52441V9.27441V9.10547H8.36572V9.27441H8.92867V8.42236H8.36572V8.59124H8.11572V8.42236V8.17236V8.00342H8.36572V8.17236H8.92867V7.34644H8.36572V7.51556H8.11572V7.34644V7.09644V6.92773H8.36572V7.09644H8.92867V6.05617H4.64577L4.70775 6.87462C4.71354 6.93928 4.67014 6.99807 4.60938 7.0157C4.54572 7.03334 4.49653 7.08918 4.48785 7.15678L4.38657 7.86805C4.35764 8.05909 4.37789 8.25895 4.44444 8.44118L4.88715 9.6668C4.94502 9.82845 5.08102 9.94895 5.24595 9.98422C5.41088 10.0195 5.54109 10.1429 5.58738 10.3075L6.09086 12.0945C6.19502 12.4648 6.11401 12.8646 5.87384 13.1614L4.66725 14.6574C4.56019 14.7926 4.42419 14.9014 4.27083 14.9749L1.53067 16.3004C1.25579 16.4327 1.04456 16.6707 0.940393 16.9617L0.0694444 19.3983C0.0231481 19.5246 0 19.6598 0 19.798C0 20.4475 0.517939 20.9736 1.15741 20.9736H17.0631C17.1701 20.9736 17.2772 20.9589 17.3814 20.9295C17.9977 20.7532 18.3536 20.1007 18.1771 19.4776L17.5174 17.1322C17.4277 16.8118 17.2078 16.5444 16.9097 16.3974L13.7471 14.8426C13.6169 14.7779 13.4983 14.6898 13.3999 14.581L11.7506 12.7558C11.4815 12.456 11.3802 12.0387 11.4873 11.6478L11.8895 10.1664C11.93 10.0166 12.0457 9.90193 12.1933 9.86666C12.3438 9.83139 12.4711 9.72558 12.5347 9.58156L12.9022 8.77036C12.9427 8.67925 12.9716 8.58226 12.989 8.48527L13.07 8.03264C13.1047 7.83572 13.0671 7.63292 12.963 7.46245C12.8588 7.29198 12.8154 7.08918 12.8356 6.88932L12.9217 6.05617Z" fill="#343A40"/>
<path fill-rule="evenodd" clip-rule="evenodd" d="M10.9433 0.4056L10.4977 0.158713L10.4948 0.17047C10.3328 0.079357 10.1505 0.0293913 9.96528 0.0264522L8.59086 0H8.50116L8.23206 0.014696C8.05266 0.0235134 7.87905 0.0764178 7.7228 0.167531L7.06597 0.549617C6.98785 0.593704 6.91551 0.646609 6.85185 0.708331L6.06482 1.45193C6.01563 1.49896 5.97222 1.54892 5.93171 1.60183L5.136 2.66579C5.03472 2.80099 4.96239 2.9597 4.92766 3.12723L4.59201 4.70261C4.56887 4.81429 4.56019 4.92598 4.56887 5.04061L4.62684 5.80617H8.92867V0.911133V0.786133H9.17867V0.911133V5.80617H12.9476L13.0498 4.81723C13.0642 4.67909 13.0527 4.54096 13.0208 4.40869L12.636 2.84508C12.6071 2.72751 12.5608 2.61876 12.5 2.5159L12.2975 2.18083C12.2801 2.15144 12.2656 2.12499 12.2512 2.0956L11.9242 1.44017C11.875 1.33437 11.8056 1.24031 11.7274 1.15508L11.2269 0.626035C11.1429 0.537861 11.0475 0.464383 10.9433 0.4056ZM12.9217 6.05617H9.17867V7.09644H9.74188V6.92773H9.99188V7.09644V7.34644V7.51556H9.74188V7.34644H9.17867V8.17236H9.74188V8.00342H9.99188V8.17236V8.42236V8.59124H9.74188V8.42236H9.17867V9.27441H9.74188V9.10547H9.99188V9.27441V9.52441V9.69329H9.74188V9.52441H9.17867V10.9541V11.0791H8.92867V10.9541V9.52441H8.36572V9.69329H8.11572V9.52441V9.27441V9.10547H8.36572V9.27441H8.92867V8.42236H8.36572V8.59124H8.11572V8.42236V8.17236V8.00342H8.36572V8.17236H8.92867V7.34644H8.36572V7.51556H8.11572V7.34644V7.09644V6.92773H8.36572V7.09644H8.92867V6.05617H4.64577L4.70775 6.87462C4.71354 6.93928 4.67014 6.99807 4.60938 7.0157C4.54572 7.03334 4.49653 7.08918 4.48785 7.15678L4.38657 7.86805C4.35764 8.05909 4.37789 8.25895 4.44444 8.44118L4.88715 9.6668C4.94502 9.82845 5.08102 9.94895 5.24595 9.98422C5.41088 10.0195 5.54109 10.1429 5.58738 10.3075L6.09086 12.0945C6.19502 12.4648 6.11401 12.8646 5.87384 13.1614L4.66725 14.6574C4.56019 14.7926 4.42419 14.9014 4.27083 14.9749L1.53067 16.3004C1.25579 16.4327 1.04456 16.6707 0.940393 16.9617L0.0694444 19.3983C0.0231481 19.5246 0 19.6598 0 19.798C0 20.4475 0.517939 20.9736 1.15741 20.9736H17.0631C17.1701 20.9736 17.2772 20.9589 17.3814 20.9295C17.9977 20.7532 18.3536 20.1007 18.1771 19.4776L17.5174 17.1322C17.4277 16.8118 17.2078 16.5444 16.9097 16.3974L13.7471 14.8426C13.6169 14.7779 13.4983 14.6898 13.3999 14.581L11.7506 12.7558C11.4815 12.456 11.3802 12.0387 11.4873 11.6478L11.8895 10.1664C11.93 10.0166 12.0457 9.90193 12.1933 9.86666C12.3438 9.83139 12.4711 9.72558 12.5347 9.58156L12.9022 8.77036C12.9427 8.67925 12.9716 8.58226 12.989 8.48527L13.07 8.03264C13.1047 7.83572 13.0671 7.63292 12.963 7.46245C12.8588 7.29198 12.8154 7.08918 12.8356 6.88932L12.9217 6.05617Z" fill="black" fill-opacity="0.5"/>
</svg>
