<svg width="28" height="30" viewBox="0 0 28 30" fill="none" xmlns="http://www.w3.org/2000/svg">
<path d="M6.20842 20.259L6.77092 20.7834L7.51398 21.3078L8.75935 21.6303L19.0325 21.6906L20.8612 21.1453L21.6251 20.5212L21.8265 19.9156L21.6853 19.4933L21.4237 19.2705L21.1621 18.8482L20.8797 17.9827L20.6181 16.5928L20.7593 15.848L20.8589 15.1031L20.6181 14.2771L20.3774 13.632L19.9746 13.0078L19.2107 12.0194L18.5881 11.2142L17.7431 10.3673L16.7987 9.60153L15.9746 9.25812L15.3705 8.99592L15.0093 8.73372L15.2316 8.04921L16.2779 7.06073L17.2431 6.15347L17.2223 5.58962L16.2779 5.22765L15.595 5.1882L15.0325 5.22765L14.4098 5.06754L13.7871 5.00721L13.1228 4.98633L12.3195 5.04666L11.1343 5.40863L10.3496 5.95392V6.29733L11.1135 6.64075L11.6968 7.02361L12.3612 7.84966L12.7038 8.5945L12.7246 9.13746L12.2223 9.25812L11.7408 9.41823L11.1968 9.65954L10.6529 9.98207L9.66676 10.5668L8.66213 11.2722L7.81722 12.017L7.11352 12.6227L6.63203 13.4278L6.65287 13.9731L6.71305 14.9407L6.89361 15.6461L7.05333 16.4327L7.27555 17.4815L7.11583 18.1869L6.85426 18.8714L6.47231 19.173L6.17139 19.6974L6.21074 20.2613L6.20842 20.259Z" stroke="#06102D" stroke-width="0.11" stroke-linecap="round" stroke-linejoin="round"/>
<path fill-rule="evenodd" clip-rule="evenodd" d="M6.77081 20.7835L6.20831 20.2591L6.21294 20.2614L6.17358 19.6976L6.47451 19.1732L6.85645 18.8715L7.11803 18.187L7.27775 17.4816L7.05553 16.4328L6.89581 15.6462L6.71525 14.9408L6.65507 13.9732L6.63423 13.4279L7.11571 12.6228L7.81942 12.0172L8.66432 11.2723L9.66895 10.5669L10.6551 9.9822L11.1967 9.65966L11.7407 9.41835L12.2222 9.25824L12.2781 9.2448C12.6857 9.30088 13.1248 9.28354 13.5889 9.26521C13.6807 9.26159 13.7734 9.25793 13.8671 9.25478C14.6326 9.22911 15.4888 9.23437 16.4648 9.5423C16.6312 9.59479 16.7859 9.65117 16.9298 9.71037L17.743 10.3697L18.5879 11.2166L19.2106 12.0218L19.9745 13.0103L20.3773 13.6344L20.618 14.2795L20.8588 15.1056L20.7592 15.8504L20.618 16.5952L20.8796 17.9851L21.162 18.8506L21.4236 19.2729L21.6852 19.4957L21.8264 19.918L21.625 20.5236L20.8611 21.1478L19.0324 21.6908L8.75923 21.6304L7.51386 21.3079L6.77081 20.7835ZM15.548 9.07546L15.3703 8.99836L15.0092 8.73616L15.0456 8.62422C14.9794 8.60985 14.9118 8.59594 14.8428 8.583C14.2572 8.47319 13.5652 8.43264 12.7485 8.7838C12.7364 8.78904 12.7238 8.79219 12.7113 8.79341L12.7204 9.02986C12.9858 9.03816 13.2701 9.02717 13.5779 9.01529H13.5779L13.5779 9.01528C13.6694 9.01175 13.763 9.00813 13.8588 9.00492C14.37 8.98778 14.9321 8.98371 15.548 9.07546ZM12.4948 8.14046L12.6793 8.54159C13.5443 8.17773 14.2811 8.22331 14.8889 8.33728C14.9693 8.35235 15.0474 8.36863 15.1231 8.38527L15.2063 8.12913C15.1892 8.10149 15.1828 8.06724 15.1913 8.0332C15.2079 7.9662 15.2758 7.92539 15.3428 7.94205L15.3413 7.94788L15.3414 7.94782L15.3428 7.94206L15.3429 7.94208L15.3432 7.94215L15.3442 7.94241L15.3465 7.94298L16.2778 7.06318L17.243 6.15591L17.2222 5.59206L16.2778 5.23009L15.5949 5.19064L15.0324 5.23009L14.4097 5.06998L13.787 5.00965L13.1227 4.98877L12.3194 5.0491L11.1342 5.41108L10.3495 5.95404V6.29746L11.1134 6.64087L11.6967 7.02373L12.3611 7.84978L12.4008 7.93603C12.4521 7.93706 12.4996 7.96992 12.5168 8.02142C12.5309 8.06376 12.5212 8.10833 12.4948 8.14046Z" fill="#06102D"/>
</svg>
