<svg width="33" height="35" viewBox="0 0 33 35" fill="none" xmlns="http://www.w3.org/2000/svg">
<path d="M23.7024 10.6009C22.8622 9.62632 21.8036 8.81148 20.5569 8.23487C15.8753 6.0692 10.3071 8.07786 8.12457 12.7259C7.54347 13.9631 7.25973 15.2625 7.24609 16.5456L23.7024 10.6009V10.6009Z" stroke="black" stroke-width="1.49" stroke-linecap="round" stroke-linejoin="round"/>
<path d="M22.8758 10.7851C22.1474 10.019 21.2635 9.37196 20.2432 8.90093C15.9299 6.9058 10.8037 8.75745 8.79028 13.0374C8.31285 14.0498 8.0564 15.1083 7.99365 16.1613L22.8731 10.7878L22.8758 10.7851Z" stroke="black" stroke-width="0.74" stroke-linecap="round" stroke-linejoin="round"/>
<path d="M19.4545 11.4591C19.2281 11.3102 18.988 11.1776 18.737 11.0612C15.9542 9.77258 12.645 10.9691 11.3464 13.7304C11.229 13.9821 11.1308 14.2366 11.0544 14.4938L19.4545 11.4591Z" stroke="black" stroke-width="0.74" stroke-linecap="round" stroke-linejoin="round"/>
<path d="M17.1001 10.9421L17.3729 11.2914L17.7903 11.1398L17.5421 11.5052L17.8149 11.8544L17.3866 11.7326L17.1383 12.0981L17.1219 11.6568L16.6936 11.535L17.111 11.3834L17.0946 10.9421H17.1001Z" fill="black"/>
<path d="M14.5466 11.0476L14.8195 11.3968L15.2369 11.2452L14.9886 11.6107L15.2614 11.9599L14.8331 11.8381L14.5848 12.2035L14.5685 11.7623L14.1401 11.6405L14.5575 11.4889L14.5412 11.0476H14.5466Z" fill="black"/>
<path d="M12.5222 12.5962L12.795 12.9454L13.2124 12.7938L12.9642 13.1593L13.237 13.5085L12.8087 13.3867L12.5604 13.7521L12.544 13.3109L12.1157 13.189L12.5331 13.0374L12.5168 12.5962H12.5222Z" fill="black"/>
<path d="M5.21899 17.2767L25.7294 9.87012" stroke="black" stroke-width="2" stroke-miterlimit="10" stroke-linecap="square"/>
<path d="M5.48096 17.9913L25.9886 10.582" stroke="black" stroke-width="0.5" stroke-miterlimit="10" stroke-linecap="square"/>
<path d="M8.46008 20.1977L9.11757 19.9595L9.10393 19.9216C9.063 19.9324 9.03572 19.9351 9.02208 19.927C9.00844 19.9216 9.00026 19.9107 8.9948 19.8945L8.56102 18.7115L9.10938 18.5139C9.12575 18.5085 9.14212 18.5085 9.15303 18.5166C9.16667 18.5247 9.18032 18.5464 9.19941 18.5816L9.23761 18.568L9.03027 18.0049L8.99207 18.0185C9.00026 18.0564 9.00298 18.0807 9.00026 18.097C8.9948 18.1105 8.98661 18.1214 8.96752 18.1295L7.39336 18.698C7.37699 18.7034 7.36062 18.7034 7.34971 18.6953C7.33607 18.6871 7.32243 18.6655 7.30333 18.6303L7.26514 18.6438L7.47248 19.2069L7.51067 19.1934C7.50249 19.1555 7.49976 19.1311 7.50249 19.1149C7.50794 19.1013 7.51613 19.0905 7.53523 19.0824L8.08359 18.8848L8.51737 20.0678C8.52283 20.0813 8.52283 20.0975 8.51737 20.1084C8.51191 20.1219 8.49009 20.1381 8.44916 20.1571L8.46281 20.195L8.46008 20.1977ZM10.4462 19.0445L10.0124 17.8615C10.007 17.8479 10.007 17.8317 10.0124 17.8209C10.0179 17.8073 10.0397 17.7911 10.0806 17.7721L10.067 17.7342L9.40948 17.9725L9.42312 18.0104C9.46405 17.9995 9.49133 17.9968 9.50497 18.0049C9.51861 18.0104 9.52679 18.0212 9.53225 18.0374L10.0724 19.5101C10.0779 19.5236 10.0779 19.5399 10.0724 19.5507C10.067 19.5642 10.0451 19.5805 10.0042 19.5994L10.0179 19.6373L11.6821 19.0364C11.6984 19.0309 11.7121 19.0282 11.723 19.0336C11.7339 19.0391 11.7475 19.0553 11.7639 19.0878L11.8021 19.0743L11.6002 18.5274L11.562 18.541C11.5702 18.5789 11.5729 18.6032 11.5702 18.6195C11.5647 18.633 11.5566 18.6438 11.5375 18.6519L10.4407 19.0472L10.4462 19.0445ZM12.3668 17.718L12.2331 17.3552L12.716 17.1793C12.8061 17.1468 12.8743 17.136 12.9261 17.1495C12.9779 17.163 13.0134 17.1982 13.038 17.2605C13.0625 17.3282 13.0598 17.385 13.0298 17.4283C12.9998 17.4717 12.9397 17.5123 12.8497 17.542L12.3668 17.718ZM12.4896 18.0537L13.0625 17.8452C13.1635 17.81 13.2453 17.764 13.3108 17.7072C13.3762 17.6503 13.4254 17.5908 13.4608 17.5231C13.4963 17.4554 13.5127 17.3877 13.5154 17.3146C13.5154 17.2415 13.5045 17.1685 13.4799 17.1008C13.4554 17.0304 13.4172 16.9681 13.3681 16.914C13.319 16.8598 13.2589 16.8165 13.1907 16.7868C13.1225 16.757 13.0434 16.7407 12.9561 16.7407C12.8688 16.7407 12.776 16.757 12.6751 16.7949L11.5347 17.2064L11.5484 17.2443C11.5893 17.2334 11.6166 17.2307 11.6302 17.2388C11.6439 17.2443 11.652 17.2551 11.6575 17.2713L12.1977 18.744C12.2031 18.7575 12.2031 18.7738 12.1977 18.7846C12.1922 18.7981 12.1704 18.8144 12.1295 18.8333L12.1431 18.8712L12.8006 18.633L12.787 18.5951C12.746 18.6059 12.7188 18.6086 12.7051 18.6005C12.6915 18.5951 12.6833 18.5843 12.6778 18.568L12.4896 18.0537ZM13.84 16.7651C13.8073 16.8328 13.8046 16.9005 13.8291 16.9681C13.8537 17.0358 13.9001 17.0845 13.9683 17.117C14.0365 17.1495 14.1047 17.1522 14.1729 17.1279C14.2411 17.1035 14.2902 17.0575 14.3229 16.9898C14.3557 16.9221 14.3584 16.8544 14.3338 16.7868C14.3093 16.7191 14.2629 16.6704 14.1947 16.6379C14.1265 16.6054 14.0583 16.6027 13.9901 16.627C13.9219 16.6514 13.8728 16.6974 13.84 16.7651ZM14.1729 17.6747C14.1401 17.7424 14.1374 17.81 14.162 17.8777C14.1865 17.9454 14.2329 17.9941 14.2984 18.0212C14.3666 18.0483 14.4321 18.051 14.5003 18.0266C14.5685 18.0022 14.6176 17.9589 14.6503 17.894C14.683 17.829 14.6885 17.764 14.6612 17.6963C14.6367 17.6287 14.5903 17.5799 14.5221 17.5475C14.4539 17.515 14.3857 17.5123 14.3175 17.5366C14.2493 17.561 14.2002 17.607 14.1674 17.6747H14.1729ZM15.5397 17.6395L16.2272 17.3904L16.2136 17.3525C16.1672 17.3688 16.1372 17.3634 16.1262 17.3336C16.1208 17.3201 16.1153 17.2659 16.1099 17.1739C16.1044 17.0818 16.1017 16.9735 16.0962 16.849C16.0908 16.7245 16.0853 16.5946 16.0799 16.4592C16.0744 16.3238 16.0662 16.2047 16.058 16.1046H16.0635C16.1317 16.1966 16.2054 16.2968 16.2845 16.4051C16.3636 16.5106 16.4373 16.6108 16.5055 16.7055C16.5737 16.8003 16.6337 16.8815 16.6855 16.9546C16.7346 17.025 16.7646 17.0737 16.7756 17.1008C16.7837 17.1251 16.7674 17.1468 16.7292 17.1685L16.7428 17.2064L17.4058 16.9681L17.3921 16.9302C17.3758 16.9329 17.3621 16.9356 17.3457 16.9356C17.3294 16.9356 17.3185 16.9275 17.313 16.9086C17.313 16.9032 17.3103 16.8788 17.3075 16.8301C17.3075 16.7813 17.3048 16.7191 17.3021 16.6433C17.3021 16.5675 17.2966 16.4809 17.2939 16.3834C17.2912 16.2859 17.2884 16.1885 17.2884 16.0856C17.2884 15.9855 17.2885 15.8853 17.283 15.7878C17.283 15.6904 17.2775 15.601 17.2775 15.5253C17.2775 15.4495 17.2748 15.3845 17.2721 15.333C17.2721 15.2816 17.2694 15.2545 17.2694 15.2464C17.2694 15.2275 17.2694 15.2112 17.2694 15.1977C17.2721 15.1842 17.283 15.1733 17.2994 15.1652L17.2857 15.1273L16.751 15.3195L16.7646 15.3574C16.7837 15.3574 16.8001 15.3574 16.8165 15.3574C16.8328 15.3574 16.8438 15.3682 16.8519 15.3872C16.8519 15.3926 16.8574 15.4224 16.8601 15.4711C16.8601 15.5198 16.8656 15.5794 16.8656 15.6525C16.8656 15.7229 16.871 15.8014 16.8738 15.8853C16.8765 15.9692 16.8792 16.0504 16.882 16.1289C16.882 16.2074 16.8874 16.2778 16.8901 16.3401C16.8901 16.4023 16.8956 16.4484 16.8983 16.4754H16.8929C16.871 16.4484 16.841 16.4051 16.8028 16.3482C16.7646 16.2941 16.721 16.2345 16.6773 16.1695C16.6337 16.1046 16.5846 16.0396 16.5355 15.9746C16.4864 15.907 16.4427 15.8474 16.4045 15.7905C16.3663 15.7364 16.3336 15.6904 16.3063 15.6525C16.2818 15.6173 16.2681 15.5983 16.2681 15.5956C16.2627 15.5794 16.2627 15.5659 16.2708 15.5577C16.279 15.5496 16.2899 15.5388 16.3036 15.5307L16.2899 15.4928L15.5315 15.7662L15.5451 15.8041C15.5588 15.8041 15.5752 15.8041 15.5943 15.8041C15.6134 15.8041 15.6243 15.8122 15.6297 15.8284C15.6297 15.8339 15.6352 15.8582 15.6379 15.9015C15.6406 15.9449 15.6461 15.999 15.6488 16.064C15.6515 16.1289 15.657 16.202 15.6597 16.2805C15.6625 16.359 15.6679 16.4402 15.6706 16.5188C15.6734 16.5973 15.6788 16.6704 15.6816 16.7407C15.6843 16.8111 15.687 16.868 15.6897 16.9113H15.6843C15.657 16.8761 15.6215 16.8301 15.5779 16.7732C15.5342 16.7164 15.4879 16.6595 15.4387 16.5973C15.3896 16.535 15.3405 16.4727 15.2914 16.4105C15.2423 16.3482 15.1959 16.2914 15.1577 16.2399C15.1168 16.1885 15.0841 16.1452 15.0595 16.11C15.035 16.0775 15.0213 16.0558 15.0186 16.0504C15.0132 16.0342 15.0159 16.0206 15.0268 16.0098C15.0377 15.999 15.0513 15.9882 15.0704 15.9773L15.0568 15.9394L14.473 16.1506L14.4866 16.1885C14.5003 16.1831 14.5166 16.1885 14.5303 16.2129C14.5357 16.2183 14.5521 16.2426 14.5848 16.2832C14.6176 16.3238 14.6585 16.3753 14.7076 16.4375C14.7567 16.4998 14.8113 16.5702 14.874 16.6487C14.9368 16.7272 14.9995 16.8057 15.0623 16.8842C15.125 16.9627 15.1878 17.0412 15.2505 17.1197C15.3105 17.1955 15.3651 17.2659 15.4142 17.3255C15.4633 17.385 15.5015 17.4338 15.5315 17.4717C15.5615 17.5096 15.5752 17.5285 15.5779 17.5339C15.5861 17.5556 15.5833 17.5718 15.5724 17.5799C15.5615 17.5908 15.5479 17.5989 15.5342 17.6097L15.5479 17.6476L15.5397 17.6395ZM19.5447 14.4181C19.5392 14.4045 19.5392 14.3883 19.5447 14.3774C19.5501 14.3639 19.5719 14.3477 19.6129 14.3287L19.5992 14.2908L18.9417 14.529L18.9554 14.5669C18.9963 14.5561 19.0236 14.5534 19.0372 14.5615C19.0509 14.5669 19.059 14.5778 19.0645 14.594L19.25 15.0975L18.4206 15.398L18.2351 14.8945C18.2297 14.881 18.2297 14.8647 18.2351 14.8539C18.2406 14.8404 18.2624 14.8241 18.3033 14.8052L18.2897 14.7673L17.6322 15.0055L17.6458 15.0434C17.6868 15.0326 17.714 15.0299 17.7277 15.038C17.7413 15.0434 17.7495 15.0542 17.755 15.0705L18.2951 16.5431C18.3006 16.5567 18.3006 16.5729 18.2951 16.5837C18.2897 16.5973 18.2679 16.6135 18.2269 16.6325L18.2406 16.6704L18.8981 16.4321L18.8844 16.3942C18.8435 16.4051 18.8162 16.4078 18.8026 16.3996C18.7889 16.3942 18.7808 16.3834 18.7753 16.3672L18.5598 15.7824L19.3891 15.4819L19.6047 16.0667C19.6101 16.0802 19.6101 16.0964 19.6047 16.1073C19.5992 16.1208 19.5774 16.1371 19.5365 16.156L19.5501 16.1939L20.2076 15.9557L20.194 15.9178C20.153 15.9286 20.1258 15.9313 20.1121 15.9232C20.0985 15.9178 20.0903 15.907 20.0848 15.8907L19.5447 14.4181ZM20.7614 15.7554L21.4189 15.5171L21.4053 15.4792C21.3643 15.4901 21.3371 15.4928 21.3234 15.4846C21.3098 15.4792 21.3016 15.4684 21.2961 15.4522L20.756 13.9795C20.7505 13.966 20.7505 13.9497 20.756 13.9389C20.7614 13.9254 20.7832 13.9091 20.8242 13.8902L20.8105 13.8523L20.153 14.0905L20.1667 14.1284C20.2076 14.1176 20.2349 14.1149 20.2485 14.123C20.2622 14.1284 20.2703 14.1392 20.2758 14.1555L20.816 15.6281C20.8214 15.6417 20.8214 15.6579 20.816 15.6687C20.8105 15.6823 20.7887 15.6985 20.7478 15.7175L20.7614 15.7554ZM22.3519 15.1815L23.0094 14.9432L22.9958 14.9053C22.9549 14.9162 22.9276 14.9189 22.9139 14.9107C22.9003 14.9053 22.8921 14.8945 22.8867 14.8783L22.4529 13.6953L23.0012 13.4976C23.0176 13.4922 23.034 13.4922 23.0449 13.5003C23.0585 13.5085 23.0722 13.5301 23.0913 13.5653L23.1295 13.5518L22.9221 12.9887L22.8839 13.0022C22.8921 13.0401 22.8949 13.0645 22.8921 13.0807C22.8867 13.0943 22.8785 13.1051 22.8594 13.1132L21.2852 13.6817C21.2689 13.6871 21.2525 13.6871 21.2416 13.679C21.2279 13.6709 21.2143 13.6492 21.1952 13.614L21.157 13.6276L21.3643 14.1907L21.4025 14.1771C21.3944 14.1392 21.3916 14.1149 21.3944 14.0986C21.3998 14.0851 21.408 14.0742 21.4271 14.0661L21.9755 13.8685L22.4092 15.0515C22.4147 15.065 22.4147 15.0813 22.4092 15.0921C22.4038 15.1057 22.382 15.1219 22.341 15.1408L22.3547 15.1787L22.3519 15.1815ZM24.9846 13.5437L24.8046 13.051L24.7664 13.0645C24.7691 13.0862 24.7664 13.1078 24.7582 13.1268C24.75 13.1457 24.7282 13.1593 24.6982 13.1728L24.1062 13.3866L24.0107 13.1241L25.0337 12.7559C25.0501 12.7505 25.0665 12.7505 25.0774 12.7586C25.091 12.7667 25.1047 12.7884 25.1238 12.8236L25.162 12.81L24.9601 12.2605L24.9219 12.274C24.9301 12.3119 24.9328 12.3363 24.9301 12.3525C24.9246 12.3661 24.9164 12.3769 24.8973 12.385L23.3068 12.9589L23.3204 12.9968C23.3614 12.986 23.3886 12.9833 23.4023 12.9914C23.4159 12.9968 23.4241 13.0077 23.4296 13.0239L23.9698 14.4966C23.9752 14.5101 23.9752 14.5263 23.9698 14.5372C23.9643 14.5507 23.9425 14.5669 23.9015 14.5859L23.9152 14.6238L25.5057 14.0499C25.5221 14.0445 25.5357 14.0418 25.5466 14.0445C25.5575 14.0472 25.5712 14.0634 25.5848 14.0878L25.623 14.0743L25.4239 13.5328L25.3857 13.5464C25.3966 13.587 25.3993 13.6168 25.3939 13.6303C25.3884 13.6438 25.3802 13.6547 25.3611 13.6628L24.3381 14.0309L24.2289 13.7359L24.8209 13.522C24.8537 13.5112 24.8782 13.5085 24.8973 13.5166C24.9164 13.5247 24.9328 13.5382 24.9437 13.5599L24.9819 13.5464L24.9846 13.5437Z" fill="black"/>
<path d="M25.754 16.1992C25.7403 17.4824 25.4566 18.7818 24.8755 20.0189C22.6929 24.6643 17.1247 26.6757 12.4432 24.51C11.1964 23.9334 10.1379 23.1185 9.29761 22.144L25.754 16.1992V16.1992Z" stroke="black" stroke-width="1.49" stroke-linecap="round" stroke-linejoin="round"/>
<path d="M25.0038 16.5864C24.9438 17.6395 24.6846 18.6953 24.2071 19.7104C22.1965 23.9903 17.0675 25.842 12.7543 23.8468C11.7339 23.3731 10.85 22.7288 10.1216 21.9627L25.001 16.5891L25.0038 16.5864Z" stroke="black" stroke-width="0.74" stroke-linecap="round" stroke-linejoin="round"/>
<path d="M21.9455 18.2512C21.8691 18.5084 21.7709 18.7629 21.6535 19.0146C20.3549 21.7759 17.0457 22.9724 14.2629 21.6838C14.0092 21.5674 13.7718 21.4348 13.5454 21.2859L21.9455 18.2512V18.2512Z" stroke="black" stroke-width="0.74" stroke-linecap="round" stroke-linejoin="round"/>
<path d="M20.4776 20.1488L20.4612 19.7076L20.8786 19.556L20.4503 19.4342L20.4339 18.9929L20.1856 19.3584L19.7573 19.2366L20.0301 19.5858L19.7819 19.9512L20.1993 19.7996L20.4721 20.1488H20.4776Z" fill="black"/>
<path d="M18.4534 21.6974L18.437 21.2562L18.8544 21.1046L18.4261 20.9828L18.4097 20.5415L18.1615 20.907L17.7332 20.7851L18.006 21.1344L17.7577 21.4998L18.1751 21.3482L18.4479 21.6974H18.4534Z" fill="black"/>
<path d="M15.8997 21.8029L15.8833 21.3616L16.3007 21.21L15.8724 21.0882L15.856 20.647L15.6078 21.0124L15.1794 20.8906L15.4523 21.2398L15.204 21.6053L15.6214 21.4537L15.8942 21.8029H15.8997Z" fill="black"/>
<path d="M7.17773 22.6205L27.6882 15.2139" stroke="black" stroke-width="2" stroke-miterlimit="10" stroke-linecap="square"/>
<path d="M6.91602 21.9086L27.4264 14.4993" stroke="black" stroke-width="0.5" stroke-miterlimit="10" stroke-linecap="square"/>
</svg>
