<svg width="28" height="30" viewBox="0 0 28 30" fill="none" xmlns="http://www.w3.org/2000/svg">
<path d="M22.037 12.5392L14.8819 17.47M15.6643 9.29073L14.6319 17.47M15.6643 9.00069L5.54858 17.47M15.6643 8.82666H5.54858" stroke="#06102D" stroke-linecap="round" stroke-linejoin="round"/>
<path d="M16.3496 16.0801C17.1621 16.8945 17.1621 18.2171 16.3496 19.0339C15.5371 19.8483 14.2176 19.8483 13.4028 19.0339C12.5903 18.2194 12.5903 16.8968 13.4028 16.0801C14.2153 15.2656 15.5348 15.2656 16.3496 16.0801Z" fill="#06102D"/>
<path d="M16.3496 16.0801C17.1621 16.8945 17.1621 18.2171 16.3496 19.0339C15.5371 19.8483 14.2176 19.8483 13.4028 19.0339C12.5903 18.2195 12.5903 16.8968 13.4028 16.0801C14.2153 15.2656 15.5348 15.2656 16.3496 16.0801Z" stroke="#06102D" stroke-width="0.5" stroke-linecap="round" stroke-linejoin="round"/>
<path d="M15.9815 16.4492C16.5926 17.0618 16.5926 18.0526 15.9815 18.6651C15.3704 19.2777 14.3819 19.2777 13.7708 18.6651C13.1597 18.0526 13.1597 17.0618 13.7708 16.4492C14.3819 15.8366 15.3704 15.8366 15.9815 16.4492Z" fill="#06102D"/>
<path d="M15.9815 16.4492C16.5926 17.0618 16.5926 18.0526 15.9815 18.6651C15.3704 19.2777 14.3819 19.2777 13.7708 18.6651C13.1597 18.0526 13.1597 17.0618 13.7708 16.4492C14.3819 15.8366 15.3704 15.8366 15.9815 16.4492Z" stroke="#06102D" stroke-width="0.5" stroke-linecap="round" stroke-linejoin="round"/>
<path d="M7.74779 7.33691C8.56029 8.15136 8.56029 9.47397 7.74779 10.2907C6.93529 11.1052 5.61584 11.1052 4.80103 10.2907C3.98853 9.47629 3.98853 8.15368 4.80103 7.33691C5.61353 6.52246 6.93297 6.52246 7.74779 7.33691Z" fill="#06102D"/>
<path d="M7.74779 7.33691C8.56029 8.15136 8.56029 9.47397 7.74779 10.2907C6.93529 11.1052 5.61584 11.1052 4.80103 10.2907C3.98853 9.47629 3.98853 8.15368 4.80103 7.33691C5.61353 6.52246 6.93297 6.52246 7.74779 7.33691Z" stroke="#06102D" stroke-width="0.5" stroke-linecap="round" stroke-linejoin="round"/>
<path d="M7.37967 7.70601C7.99079 8.31859 7.99079 9.30939 7.37967 9.92196C6.76856 10.5345 5.78014 10.5345 5.16903 9.92196C4.55792 9.30939 4.55792 8.31859 5.16903 7.70601C5.78014 7.09344 6.76856 7.09344 7.37967 7.70601Z" fill="#06102D"/>
<path d="M7.37967 7.70601C7.99079 8.31859 7.99079 9.30939 7.37967 9.92196C6.76856 10.5345 5.78014 10.5345 5.16903 9.92196C4.55792 9.30939 4.55792 8.31859 5.16903 7.70601C5.78014 7.09344 6.76856 7.09344 7.37967 7.70601" stroke="#06102D" stroke-width="0.5" stroke-linecap="round" stroke-linejoin="round"/>
<path d="M6.73607 16.6392C7.54857 17.4536 7.54857 18.7762 6.73607 19.593C5.92357 20.4074 4.60412 20.4074 3.78931 19.593C2.97681 18.7785 2.97681 17.4559 3.78931 16.6392C4.60181 15.8247 5.92125 15.8247 6.73607 16.6392Z" fill="#06102D"/>
<path d="M6.7362 16.6392C7.5487 17.4536 7.5487 18.7762 6.7362 19.593C5.9237 20.4074 4.60426 20.4074 3.78944 19.593C2.97463 18.7785 2.97694 17.4559 3.78944 16.6392C4.60194 15.8247 5.92139 15.8247 6.7362 16.6392Z" stroke="#06102D" stroke-width="0.5" stroke-linecap="round" stroke-linejoin="round"/>
<path d="M6.36796 17.0083C6.97907 17.6208 6.97907 18.6116 6.36796 19.2242C5.75685 19.8368 4.76842 19.8368 4.15731 19.2242C3.5462 18.6116 3.5462 17.6208 4.15731 17.0083C4.76842 16.3957 5.75685 16.3957 6.36796 17.0083Z" fill="#06102D"/>
<path d="M6.36796 17.0083C6.97907 17.6208 6.97907 18.6116 6.36796 19.2242C5.75685 19.8368 4.76842 19.8368 4.15731 19.2242C3.5462 18.6116 3.5462 17.6208 4.15731 17.0083C4.76842 16.3957 5.75685 16.3957 6.36796 17.0083Z" stroke="#06102D" stroke-width="0.5" stroke-linecap="round" stroke-linejoin="round"/>
<path d="M22.8195 12.3511L15.6621 9.00049" stroke="#06102D" stroke-linecap="round" stroke-linejoin="round"/>
<path d="M24.2107 10.8594C25.0232 11.6738 25.0232 12.9964 24.2107 13.8132C23.3982 14.6276 22.0787 14.6276 21.2639 13.8132C20.4514 12.9987 20.4514 11.6761 21.2639 10.8594C22.0764 10.0449 23.3959 10.0449 24.2107 10.8594Z" fill="#06102D"/>
<path d="M24.2107 10.8594C25.0232 11.6738 25.0232 12.9964 24.2107 13.8132C23.3982 14.6276 22.0787 14.6276 21.2639 13.8132C20.4514 12.9987 20.4514 11.6761 21.2639 10.8594C22.0764 10.0449 23.3959 10.0449 24.2107 10.8594Z" stroke="#06102D" stroke-width="0.5" stroke-linecap="round" stroke-linejoin="round"/>
<path d="M23.8426 11.2285C24.4537 11.8411 24.4537 12.8318 23.8426 13.4444C23.2315 14.057 22.243 14.057 21.6319 13.4444C21.0208 12.8318 21.0208 11.8411 21.6319 11.2285C22.243 10.6159 23.2315 10.6159 23.8426 11.2285Z" fill="#06102D"/>
<path d="M23.8426 11.2285C24.4537 11.8411 24.4537 12.8318 23.8426 13.4444C23.2315 14.057 22.243 14.057 21.6319 13.4444C21.0208 12.8318 21.0208 11.8411 21.6319 11.2285C22.243 10.6159 23.2315 10.6159 23.8426 11.2285Z" stroke="#06102D" stroke-width="0.5" stroke-linecap="round" stroke-linejoin="round"/>
<path d="M17.1296 7.33691C17.9421 8.15136 17.9421 9.47397 17.1296 10.2907C16.3171 11.1052 14.9977 11.1052 14.1829 10.2907C13.3704 9.47629 13.3704 8.15368 14.1829 7.33691C14.9954 6.52246 16.3148 6.52246 17.1296 7.33691Z" fill="#06102D"/>
<path d="M17.1296 7.33691C17.9421 8.15136 17.9421 9.47397 17.1296 10.2907C16.3171 11.1052 14.9977 11.1052 14.1829 10.2907C13.3704 9.47629 13.3704 8.15368 14.1829 7.33691C14.9954 6.52246 16.3148 6.52246 17.1296 7.33691Z" stroke="#06102D" stroke-width="0.5" stroke-linecap="round" stroke-linejoin="round"/>
<path d="M16.7615 7.70601C17.3726 8.31859 17.3726 9.30939 16.7615 9.92196C16.1504 10.5345 15.162 10.5345 14.5509 9.92196C13.9398 9.30939 13.9398 8.31859 14.5509 7.70601C15.162 7.09344 16.1504 7.09344 16.7615 7.70601Z" fill="#06102D"/>
<path d="M16.7615 7.70601C17.3726 8.31859 17.3726 9.30939 16.7615 9.92196C16.1504 10.5345 15.162 10.5345 14.5509 9.92196C13.9398 9.30939 13.9398 8.31859 14.5509 7.70601C15.162 7.09344 16.1504 7.09344 16.7615 7.70601Z" stroke="#06102D" stroke-width="0.5" stroke-linecap="round" stroke-linejoin="round"/>
</svg>
