<svg width="33" height="35" viewBox="0 0 33 35" fill="none" xmlns="http://www.w3.org/2000/svg">
<path d="M23.7024 10.6009C22.8622 9.62632 21.8036 8.81148 20.5569 8.23487C15.8753 6.0692 10.3071 8.07786 8.12457 12.7259C7.54347 13.9631 7.25973 15.2625 7.24609 16.5456L23.7024 10.6009V10.6009Z" stroke="#06102D" stroke-width="1.49" stroke-linecap="round" stroke-linejoin="round"/>
<path d="M22.8758 10.7851C22.1474 10.019 21.2635 9.37196 20.2432 8.90093C15.9299 6.9058 10.8037 8.75745 8.79028 13.0374C8.31285 14.0498 8.0564 15.1083 7.99365 16.1613L22.8731 10.7878L22.8758 10.7851Z" stroke="#06102D" stroke-width="0.74" stroke-linecap="round" stroke-linejoin="round"/>
<path d="M19.4545 11.4591C19.2281 11.3102 18.988 11.1776 18.737 11.0612C15.9542 9.77258 12.645 10.9691 11.3464 13.7304C11.229 13.9821 11.1308 14.2366 11.0544 14.4938L19.4545 11.4591Z" stroke="#06102D" stroke-width="0.74" stroke-linecap="round" stroke-linejoin="round"/>
<path d="M17.1001 10.9421L17.3729 11.2914L17.7903 11.1398L17.5421 11.5052L17.8149 11.8544L17.3866 11.7326L17.1383 12.0981L17.1219 11.6568L16.6936 11.535L17.111 11.3834L17.0946 10.9421H17.1001Z" fill="#06102D"/>
<path d="M14.5466 11.0476L14.8195 11.3968L15.2369 11.2452L14.9886 11.6107L15.2614 11.9599L14.8331 11.8381L14.5848 12.2035L14.5685 11.7623L14.1401 11.6405L14.5575 11.4889L14.5412 11.0476H14.5466Z" fill="#06102D"/>
<path d="M12.5222 12.5962L12.795 12.9454L13.2124 12.7938L12.9642 13.1593L13.237 13.5085L12.8087 13.3867L12.5604 13.7521L12.544 13.3109L12.1157 13.189L12.5331 13.0374L12.5168 12.5962H12.5222Z" fill="#06102D"/>
<path d="M5.21899 17.2767L25.7294 9.87012" stroke="#06102D" stroke-width="2" stroke-miterlimit="10" stroke-linecap="square"/>
<path d="M5.48096 17.9913L25.9886 10.582" stroke="#06102D" stroke-width="0.5" stroke-miterlimit="10" stroke-linecap="square"/>
<path d="M6.91599 19.6671L6.78777 19.3206L7.32249 19.1284C7.41525 19.0959 7.48618 19.0878 7.53529 19.1122C7.5844 19.1338 7.61441 19.169 7.6335 19.215C7.64987 19.2611 7.64714 19.3071 7.62532 19.3558C7.60349 19.4045 7.5462 19.4451 7.45071 19.4776L6.91599 19.6698V19.6671ZM7.03876 20.0028L7.34977 19.8891C7.34977 19.8891 7.38251 19.9135 7.41252 19.9351C7.44526 19.9568 7.48072 19.9812 7.52438 20.0082C7.56803 20.0353 7.61168 20.0651 7.65806 20.0948C7.70443 20.1246 7.74536 20.1544 7.78355 20.1788C7.82175 20.2058 7.85448 20.2275 7.88177 20.2464C7.90905 20.2654 7.92269 20.2762 7.92269 20.2816C7.93633 20.3168 7.91996 20.3439 7.87358 20.3629L7.88722 20.4007L8.55017 20.1625L8.53653 20.1246C8.50106 20.1382 8.46287 20.13 8.42195 20.1003L7.85448 19.7104C7.9718 19.6265 8.0591 19.5291 8.11639 19.4154C8.17095 19.3017 8.17368 19.1717 8.11912 19.0283C8.05364 18.8496 7.9527 18.7359 7.81356 18.6899C7.67715 18.6438 7.48891 18.6628 7.25429 18.7467L6.08936 19.169L6.103 19.2069C6.14392 19.1961 6.1712 19.1934 6.18484 19.2015C6.19848 19.2069 6.20667 19.2178 6.21212 19.234L6.7523 20.7066C6.75776 20.7202 6.75776 20.7364 6.7523 20.7473C6.74685 20.7608 6.72502 20.777 6.6841 20.796L6.69774 20.8339L7.35523 20.5957L7.34159 20.5578C7.30067 20.5686 7.27338 20.5713 7.25974 20.5632C7.2461 20.5578 7.23792 20.5469 7.23246 20.5307L7.03876 20.0001V20.0028ZM10.0725 18.9281L9.89243 18.4354L9.85424 18.4489C9.85696 18.4706 9.85424 18.4922 9.84605 18.5112C9.83787 18.5301 9.81604 18.5437 9.78603 18.5572L9.19402 18.7711L9.09853 18.5085L10.1216 18.1403C10.138 18.1349 10.1543 18.1349 10.1652 18.143C10.1789 18.1512 10.1925 18.1728 10.2116 18.208L10.2498 18.1945L10.0479 17.6449L10.0097 17.6585C10.0179 17.6964 10.0207 17.7207 10.0179 17.737C10.0125 17.7505 10.0043 17.7613 9.98519 17.7695L8.39466 18.3434L8.4083 18.3813C8.44923 18.3704 8.47651 18.3677 8.49015 18.3758C8.50379 18.3813 8.51197 18.3921 8.51743 18.4083L9.05761 19.881C9.06307 19.8945 9.06307 19.9108 9.05761 19.9216C9.05215 19.9351 9.03033 19.9514 8.98941 19.9703L9.00305 20.0082L10.5936 19.4343C10.6099 19.4289 10.6236 19.4262 10.6345 19.4289C10.6454 19.4316 10.659 19.4479 10.6727 19.4722L10.7109 19.4587L10.5117 18.9173L10.4735 18.9308C10.4844 18.9714 10.4872 19.0012 10.4817 19.0147C10.4763 19.0283 10.4681 19.0391 10.449 19.0472L9.42591 19.4154L9.31679 19.1203L9.9088 18.9064C9.94154 18.8956 9.96609 18.8929 9.98519 18.901C10.0043 18.9091 10.0207 18.9227 10.0316 18.9443L10.0698 18.9308L10.0725 18.9281ZM10.9946 18.5383L10.9646 19.1853L11.0055 19.1799C11.011 19.1663 11.0192 19.1528 11.0246 19.1392C11.0301 19.1284 11.041 19.1203 11.0546 19.1149C11.0737 19.1068 11.1065 19.1041 11.1501 19.1041C11.1938 19.1041 11.2538 19.1041 11.3302 19.0959C11.4038 19.0905 11.4939 19.0743 11.5948 19.0526C11.6958 19.031 11.8131 18.9958 11.9467 18.947C12.1186 18.8848 12.2578 18.8171 12.3614 18.744C12.4651 18.6709 12.5415 18.5951 12.5906 18.5166C12.6397 18.4381 12.667 18.3596 12.6697 18.2811C12.6724 18.2026 12.6615 18.1295 12.637 18.0591C12.6042 17.9698 12.5579 17.8994 12.4978 17.8534C12.4378 17.8074 12.3696 17.7776 12.296 17.7613C12.2196 17.7478 12.1404 17.7451 12.0559 17.7532C11.9713 17.7613 11.884 17.7776 11.7967 17.7965C11.7094 17.8155 11.6276 17.8371 11.5457 17.8615C11.4639 17.8859 11.3929 17.9021 11.3275 17.9156C11.262 17.9292 11.2074 17.9346 11.1638 17.9292C11.1201 17.9238 11.0901 17.9048 11.0765 17.8696C11.0628 17.8344 11.0765 17.7911 11.1228 17.7397C11.1665 17.6882 11.2565 17.6368 11.3957 17.5881C11.4693 17.561 11.5484 17.5394 11.6303 17.5204C11.7121 17.5015 11.7885 17.4906 11.8594 17.4825C11.9276 17.4744 11.9877 17.4744 12.0368 17.4798C12.0859 17.4852 12.1132 17.496 12.1213 17.515L12.135 17.5502L12.1814 17.5556L12.2387 17.0358H12.1977C12.1923 17.0521 12.1841 17.0683 12.1759 17.0819C12.1677 17.0954 12.1514 17.1062 12.1295 17.1143C12.1077 17.1225 12.0695 17.1279 12.0177 17.1306C11.9631 17.1333 11.8976 17.1414 11.8185 17.1495C11.7394 17.1577 11.6521 17.1739 11.5539 17.1928C11.4557 17.2118 11.352 17.2416 11.2429 17.2822C11.1256 17.3255 11.0246 17.3769 10.94 17.4365C10.8555 17.496 10.7873 17.5637 10.7354 17.6341C10.6863 17.7045 10.6536 17.7803 10.64 17.8588C10.6263 17.9373 10.6345 18.0158 10.6645 18.097C10.7027 18.1972 10.7627 18.2649 10.85 18.3C10.9373 18.3352 11.0328 18.3488 11.1419 18.3461C11.2511 18.3407 11.3629 18.3244 11.4802 18.2946C11.5975 18.2649 11.7067 18.2378 11.8076 18.2134C11.9086 18.1863 11.9959 18.1701 12.0641 18.162C12.135 18.1539 12.1759 18.1701 12.1896 18.208C12.2141 18.2784 12.1977 18.3434 12.1377 18.4083C12.0777 18.4733 11.9658 18.5329 11.8076 18.5897C11.7258 18.6195 11.6412 18.6411 11.5539 18.6547C11.4666 18.6682 11.3875 18.6736 11.3165 18.6736C11.2456 18.6736 11.1856 18.6655 11.1365 18.6547C11.0874 18.6438 11.0601 18.6249 11.0519 18.6059C11.041 18.5735 11.0355 18.5518 11.0328 18.5383L10.9946 18.5329V18.5383ZM13.6382 18.3271L14.2957 18.0889L14.2821 18.051C14.2411 18.0618 14.2139 18.0645 14.2002 18.0564C14.1866 18.051 14.1784 18.0402 14.1729 18.0239L13.7392 16.8409L14.2875 16.6433C14.3039 16.6379 14.3203 16.6379 14.3312 16.646C14.3448 16.6541 14.3585 16.6758 14.3776 16.711L14.4157 16.6974L14.2084 16.1344L14.1702 16.1479C14.1784 16.1858 14.1811 16.2102 14.1784 16.2264C14.1729 16.2399 14.1648 16.2508 14.1457 16.2589L12.5715 16.8274C12.5551 16.8328 12.5388 16.8328 12.5278 16.8247C12.5142 16.8166 12.5006 16.7949 12.4815 16.7597L12.4433 16.7732L12.6506 17.3363L12.6888 17.3228C12.6806 17.2849 12.6779 17.2605 12.6806 17.2443C12.6861 17.2307 12.6943 17.2199 12.7134 17.2118L13.2617 17.0142L13.6955 18.1972C13.701 18.2107 13.701 18.227 13.6955 18.2378C13.6901 18.2513 13.6682 18.2676 13.6273 18.2865L13.6409 18.3244L13.6382 18.3271ZM15.4143 16.5973L15.286 16.2508L15.8208 16.0586C15.9135 16.0261 15.9844 16.018 16.0336 16.0423C16.0827 16.064 16.1127 16.0992 16.1318 16.1452C16.1481 16.1912 16.1454 16.2372 16.1236 16.286C16.1018 16.3347 16.0445 16.3753 15.949 16.4078L15.4143 16.6V16.5973ZM15.537 16.933L15.848 16.8193C15.848 16.8193 15.8808 16.8436 15.9108 16.8653C15.9435 16.8869 15.979 16.9113 16.0226 16.9384C16.0663 16.9654 16.1099 16.9952 16.1563 17.025C16.2027 17.0548 16.2436 17.0846 16.2818 17.1089C16.32 17.136 16.3527 17.1577 16.38 17.1766C16.4073 17.1956 16.421 17.2064 16.421 17.2118C16.4346 17.247 16.4182 17.2741 16.3718 17.293L16.3855 17.3309L17.0484 17.0927L17.0348 17.0548C16.9993 17.0683 16.9611 17.0602 16.9202 17.0304L16.3527 16.6406C16.4701 16.5567 16.5574 16.4592 16.6147 16.3455C16.6692 16.2318 16.6719 16.1019 16.6174 15.9584C16.5519 15.7797 16.451 15.666 16.3118 15.62C16.1754 15.574 15.9872 15.593 15.7526 15.6769L14.5876 16.0992L14.6013 16.1371C14.6422 16.1262 14.6695 16.1235 14.6831 16.1317C14.6967 16.1371 14.7049 16.1479 14.7104 16.1641L15.2506 17.6368C15.256 17.6503 15.256 17.6666 15.2506 17.6774C15.2451 17.6909 15.2233 17.7072 15.1824 17.7261L15.196 17.764L15.8535 17.5258L15.8399 17.4879C15.7989 17.4987 15.7716 17.5015 15.758 17.4933C15.7444 17.4879 15.7362 17.4771 15.7307 17.4608L15.537 16.9303V16.933ZM17.534 16.9194L18.1915 16.6812L18.1779 16.6433C18.137 16.6541 18.1097 16.6568 18.0961 16.6487C18.0824 16.6433 18.0742 16.6325 18.0688 16.6162L17.5286 15.1436C17.5231 15.13 17.5231 15.1138 17.5286 15.103C17.534 15.0894 17.5559 15.0732 17.5968 15.0542L17.5832 15.0163L16.9257 15.2546L16.9393 15.2925C16.9802 15.2816 17.0075 15.2789 17.0212 15.2871C17.0348 15.2925 17.043 15.3033 17.0484 15.3195L17.5886 16.7922C17.5941 16.8057 17.5941 16.822 17.5886 16.8328C17.5832 16.8463 17.5613 16.8626 17.5204 16.8815L17.534 16.9194ZM19.9103 14.8729L20.0058 14.2475H19.9676C19.9621 14.2719 19.9485 14.2854 19.9294 14.2935C19.913 14.299 19.8857 14.3044 19.8475 14.3044C19.8093 14.3044 19.7575 14.3071 19.6893 14.3125C19.6184 14.3179 19.5365 14.3314 19.4383 14.3504C19.3401 14.3693 19.2282 14.4018 19.1 14.4479C18.9718 14.4939 18.8518 14.5561 18.7399 14.6373C18.628 14.7186 18.5353 14.8133 18.4616 14.9189C18.388 15.0245 18.3389 15.1436 18.317 15.2708C18.2952 15.4007 18.3089 15.5334 18.3607 15.6769C18.4125 15.8176 18.4889 15.9313 18.5899 16.0153C18.6908 16.0992 18.8026 16.1587 18.9281 16.1939C19.0536 16.2291 19.1846 16.2399 19.3237 16.2264C19.4601 16.2129 19.5938 16.1858 19.722 16.1398C19.8421 16.0965 19.9458 16.0505 20.0358 15.999C20.1258 15.9476 20.2022 15.9016 20.265 15.8555C20.3277 15.8095 20.3795 15.7689 20.4177 15.7364C20.4559 15.7012 20.4832 15.6823 20.4968 15.6769C20.5078 15.6742 20.5159 15.6715 20.5269 15.6715C20.535 15.6715 20.5432 15.6769 20.5514 15.685L20.5814 15.6498L20.0712 15.2708L20.044 15.306C20.044 15.306 20.0576 15.3195 20.0658 15.3222C20.0713 15.3277 20.0767 15.3358 20.0822 15.3439C20.0903 15.3683 20.0767 15.398 20.0385 15.4359C20.0003 15.4738 19.9539 15.5117 19.9021 15.5496C19.8475 15.5875 19.793 15.6227 19.7384 15.6525C19.6811 15.6823 19.6402 15.7039 19.6129 15.7148C19.5502 15.7391 19.4792 15.7554 19.4028 15.7662C19.3265 15.777 19.2555 15.777 19.1846 15.7635C19.1137 15.75 19.0509 15.7229 18.9909 15.6796C18.9336 15.6363 18.8899 15.5767 18.8599 15.4955C18.8299 15.4143 18.8245 15.3412 18.8408 15.2708C18.8572 15.2004 18.89 15.1409 18.9336 15.084C18.98 15.0299 19.0345 14.9811 19.1 14.9405C19.1655 14.8999 19.2282 14.8702 19.2937 14.8458C19.3619 14.8214 19.4274 14.8025 19.4929 14.7889C19.5584 14.7754 19.6156 14.7673 19.6702 14.7646C19.722 14.7619 19.7657 14.7646 19.8012 14.77C19.8366 14.7754 19.8557 14.7889 19.8639 14.8052C19.8666 14.816 19.8694 14.8241 19.8721 14.8323C19.8721 14.8404 19.8721 14.8485 19.8748 14.8539L19.9157 14.8647L19.9103 14.8729ZM21.4217 15.5144L22.0792 15.2762L22.0655 15.2383C22.0246 15.2492 21.9973 15.2519 21.9837 15.2437C21.9701 15.2383 21.9619 15.2275 21.9564 15.2113L21.5226 14.0283L22.071 13.8306C22.0874 13.8252 22.1037 13.8252 22.1147 13.8333C22.1283 13.8415 22.1419 13.8631 22.161 13.8983L22.1992 13.8848L21.9919 13.3217L21.9537 13.3352C21.9619 13.3731 21.9646 13.3975 21.9619 13.4137C21.9564 13.4273 21.9482 13.4381 21.9291 13.4462L20.355 14.0147C20.3386 14.0201 20.3222 14.0201 20.3113 14.012C20.2977 14.0039 20.284 13.9822 20.265 13.947L20.2268 13.9606L20.4341 14.5237L20.4723 14.5101C20.4641 14.4722 20.4614 14.4479 20.4641 14.4316C20.4696 14.4181 20.4777 14.4072 20.4968 14.3991L21.0452 14.2015L21.479 15.3845C21.4844 15.398 21.4844 15.4143 21.479 15.4251C21.4735 15.4386 21.4517 15.4549 21.4108 15.4738L21.4244 15.5117L21.4217 15.5144ZM24.0544 13.8767L23.8743 13.384L23.8361 13.3975C23.8389 13.4192 23.8361 13.4408 23.8279 13.4598C23.8198 13.4787 23.7979 13.4922 23.7679 13.5058L23.1759 13.7196L23.0804 13.4571L24.1035 13.0889C24.1199 13.0835 24.1362 13.0835 24.1471 13.0916C24.1608 13.0997 24.1744 13.1214 24.1935 13.1566L24.2317 13.143L24.0298 12.5935L23.9916 12.607C23.9998 12.6449 24.0026 12.6693 23.9998 12.6855C23.9944 12.6991 23.9862 12.7099 23.9671 12.718L22.3766 13.2919L22.3902 13.3298C22.4311 13.319 22.4584 13.3163 22.472 13.3244C22.4857 13.3298 22.4939 13.3407 22.4993 13.3569L23.0395 14.8296C23.045 14.8431 23.045 14.8593 23.0395 14.8702C23.034 14.8837 23.0122 14.8999 22.9713 14.9189L22.9849 14.9568L24.5755 14.3829C24.5918 14.3775 24.6055 14.3748 24.6164 14.3775C24.6273 14.3802 24.6409 14.3964 24.6546 14.4208L24.6928 14.4072L24.4936 13.8658L24.4554 13.8794C24.4663 13.92 24.4691 13.9497 24.4636 13.9633C24.4582 13.9768 24.45 13.9876 24.4309 13.9958L23.4078 14.3639L23.2987 14.0689L23.8907 13.855C23.9234 13.8442 23.948 13.8415 23.9671 13.8496C23.9862 13.8577 24.0026 13.8712 24.0135 13.8929L24.0517 13.8794L24.0544 13.8767ZM25.5385 13.6059L25.2029 12.6882L25.6067 12.5421C25.7731 12.4825 25.9123 12.4798 26.0159 12.5394C26.1223 12.5989 26.1987 12.6937 26.2478 12.829C26.2969 12.9644 26.2997 13.0862 26.2588 13.1999C26.2151 13.3109 26.1114 13.3975 25.9423 13.4598L25.5385 13.6059ZM25.162 14.058C25.1675 14.0716 25.1675 14.0878 25.162 14.0986C25.1566 14.1122 25.1347 14.1284 25.0938 14.1474L25.1075 14.1853L26.1305 13.8171C26.2778 13.763 26.4006 13.6926 26.4961 13.6059C26.5916 13.5193 26.6625 13.4246 26.7089 13.319C26.7553 13.2161 26.7798 13.1051 26.7798 12.9914C26.7798 12.8777 26.7607 12.7667 26.7225 12.6612C26.6789 12.5421 26.6216 12.4392 26.5507 12.3526C26.4797 12.2632 26.3924 12.1956 26.2969 12.1468C26.1987 12.0981 26.0896 12.071 25.9641 12.0683C25.8413 12.0656 25.7049 12.09 25.5576 12.1441L24.4991 12.5258L24.5127 12.5637C24.5536 12.5529 24.5809 12.5502 24.5946 12.5583C24.6082 12.5637 24.6164 12.5745 24.6218 12.5908L25.162 14.0634V14.058Z" fill="#06102D"/>
<path d="M25.754 16.1992C25.7403 17.4824 25.4566 18.7818 24.8755 20.0189C22.6929 24.6643 17.1247 26.6757 12.4432 24.51C11.1964 23.9334 10.1379 23.1185 9.29761 22.144L25.754 16.1992V16.1992Z" stroke="#06102D" stroke-width="1.49" stroke-linecap="round" stroke-linejoin="round"/>
<path d="M25.0038 16.5864C24.9438 17.6395 24.6846 18.6953 24.2071 19.7104C22.1965 23.9903 17.0675 25.842 12.7543 23.8468C11.7339 23.3731 10.85 22.7288 10.1216 21.9627L25.001 16.5891L25.0038 16.5864Z" stroke="#06102D" stroke-width="0.74" stroke-linecap="round" stroke-linejoin="round"/>
<path d="M21.9455 18.2512C21.8691 18.5084 21.7709 18.7629 21.6535 19.0146C20.3549 21.7759 17.0457 22.9724 14.2629 21.6838C14.0092 21.5674 13.7718 21.4348 13.5454 21.2859L21.9455 18.2512V18.2512Z" stroke="#06102D" stroke-width="0.74" stroke-linecap="round" stroke-linejoin="round"/>
<path d="M20.4776 20.1488L20.4612 19.7076L20.8786 19.556L20.4503 19.4342L20.4339 18.9929L20.1856 19.3584L19.7573 19.2366L20.0301 19.5858L19.7819 19.9512L20.1993 19.7996L20.4721 20.1488H20.4776Z" fill="#06102D"/>
<path d="M18.4534 21.6974L18.437 21.2562L18.8544 21.1046L18.4261 20.9828L18.4097 20.5415L18.1615 20.907L17.7332 20.7851L18.006 21.1344L17.7577 21.4998L18.1751 21.3482L18.4479 21.6974H18.4534Z" fill="#06102D"/>
<path d="M15.8997 21.8029L15.8833 21.3616L16.3007 21.21L15.8724 21.0882L15.856 20.647L15.6078 21.0124L15.1794 20.8906L15.4523 21.2398L15.204 21.6053L15.6214 21.4537L15.8942 21.8029H15.8997Z" fill="#06102D"/>
<path d="M7.17773 22.6205L27.6882 15.2139" stroke="#06102D" stroke-width="2" stroke-miterlimit="10" stroke-linecap="square"/>
<path d="M6.91602 21.9086L27.4264 14.4993" stroke="#06102D" stroke-width="0.5" stroke-miterlimit="10" stroke-linecap="square"/>
</svg>
