<svg width="14" height="11" viewBox="0 0 14 11" fill="none" xmlns="http://www.w3.org/2000/svg">
<path d="M0.99033 10.6992C0.726242 10.6992 0.495165 10.5961 0.297099 10.3899C0.0990329 10.1837 0 9.95249 0 9.69615V1.00305C0 0.746715 0.0990329 0.515456 0.297099 0.309274C0.495165 0.103091 0.726242 0 0.99033 0H5.61187L6.6022 1.00305H12.2141C12.4672 1.00305 12.6955 1.10614 12.899 1.31232C13.1026 1.51851 13.2044 1.74977 13.2044 2.0061V9.69615C13.2044 9.95249 13.1026 10.1837 12.899 10.3899C12.6955 10.5961 12.4672 10.6992 12.2141 10.6992H0.99033ZM0.99033 1.00305V9.69615H12.2141V2.0061H6.18956L5.19923 1.00305H0.99033ZM0.99033 1.00305V9.69615V1.00305Z" fill="#06102D"/>
</svg>
