<svg width="16" height="16" viewBox="0 0 16 16" fill="none" xmlns="http://www.w3.org/2000/svg">
<path d="M7.8026 15.4544C6.72324 15.4544 5.7089 15.2516 4.75959 14.8459C3.81027 14.4402 2.98449 13.8896 2.28226 13.1942C1.58003 12.4987 1.02409 11.681 0.614455 10.7408C0.204818 9.80066 0 8.79613 0 7.7272C0 6.65827 0.204818 5.65374 0.614455 4.71359C1.02409 3.77345 1.58003 2.95565 2.28226 2.26021C2.98449 1.56476 3.81027 1.01419 4.75959 0.608517C5.7089 0.202839 6.72324 0 7.8026 0C8.88196 0 9.8963 0.202839 10.8456 0.608517C11.7949 1.01419 12.6207 1.56476 13.3229 2.26021C14.0252 2.95565 14.5811 3.77345 14.9907 4.71359C15.4004 5.65374 15.6052 6.65827 15.6052 7.7272C15.6052 8.79613 15.4004 9.80066 14.9907 10.7408C14.5811 11.681 14.0252 12.4987 13.3229 13.1942C12.6207 13.8896 11.7949 14.4402 10.8456 14.8459C9.8963 15.2516 8.88196 15.4544 7.8026 15.4544ZM6.96382 14.276V12.6919C6.50867 12.6919 6.12504 12.5245 5.81294 12.1897C5.50083 11.8548 5.34478 11.462 5.34478 11.0113V10.1613L1.34595 6.20108C1.28093 6.45865 1.23541 6.71301 1.2094 6.96414C1.18339 7.21527 1.17039 7.46963 1.17039 7.7272C1.17039 9.40143 1.71982 10.8632 2.81869 12.1124C3.91756 13.3616 5.29927 14.0828 6.96382 14.276ZM12.6987 12.1897C12.9848 11.8806 13.2352 11.5522 13.4497 11.2044C13.6643 10.8567 13.8464 10.4929 13.9959 10.113C14.1455 9.73305 14.256 9.34347 14.3275 8.94423C14.399 8.545 14.4348 8.13932 14.4348 7.7272C14.4348 6.36206 14.0577 5.12249 13.3034 4.00849C12.5492 2.89448 11.5413 2.0799 10.2799 1.56476V1.91248C10.2799 2.36324 10.1239 2.75603 9.81177 3.09088C9.49967 3.42573 9.11604 3.59315 8.66089 3.59315H6.96382V5.27381C6.96382 5.49275 6.87604 5.67305 6.70048 5.81472C6.52492 5.95638 6.32661 6.02722 6.10553 6.02722H4.4865V7.7272H9.51917C9.74025 7.7272 9.92231 7.81091 10.0654 7.97833C10.2084 8.14576 10.2799 8.33894 10.2799 8.55787V11.0113H11.1187C11.4958 11.0113 11.8274 11.1207 12.1135 11.3397C12.3996 11.5586 12.5947 11.8419 12.6987 12.1897Z" fill="#06102D"/>
</svg>
