<svg width="19" height="21" viewBox="0 0 19 21" fill="none" xmlns="http://www.w3.org/2000/svg">
<path d="M10.4977 0.154537L10.9433 0.394926C11.0475 0.452162 11.1429 0.523707 11.2269 0.60956L11.7274 1.12468C11.8056 1.20767 11.875 1.29925 11.9242 1.40227L12.2512 2.04045C12.2656 2.06907 12.2801 2.09483 12.2975 2.12344L12.5 2.44969C12.5608 2.54985 12.6071 2.65574 12.636 2.77021L13.0208 4.29268C13.0527 4.42146 13.0642 4.55596 13.0498 4.69046L12.8356 6.70802C12.8154 6.90262 12.8588 7.10008 12.963 7.26607C13.0671 7.43205 13.1047 7.62952 13.07 7.82125L12.989 8.26197C12.9716 8.35641 12.9427 8.45085 12.9022 8.53956L12.5347 9.32941C12.4711 9.46964 12.3438 9.57267 12.1933 9.60701C12.0457 9.64135 11.93 9.75296 11.8895 9.89891L11.4873 11.3412C11.3802 11.7219 11.4815 12.1282 11.7506 12.4201L13.3999 14.1973C13.4983 14.3032 13.6169 14.389 13.7471 14.452L16.9097 15.9659C17.2078 16.109 17.4277 16.3694 17.5174 16.6813L18.1771 18.965C18.3536 19.5717 17.9977 20.2071 17.3814 20.3788C17.2772 20.4074 17.1701 20.4217 17.0631 20.4217H1.15741C0.517939 20.4217 0 19.9094 0 19.277C0 19.1425 0.0231481 19.0108 0.0694444 18.8878L0.940393 16.5154C1.04456 16.232 1.25579 16.0002 1.53067 15.8715L4.27083 14.5808C4.42419 14.5092 4.56018 14.4034 4.66724 14.2717L5.87384 12.8151C6.11401 12.526 6.19502 12.1368 6.09086 11.7762L5.58738 10.0363C5.54109 9.87601 5.41088 9.75582 5.24595 9.72148C5.08102 9.68714 4.94502 9.5698 4.88715 9.41241L4.44444 8.21904C4.37789 8.04161 4.35764 7.84701 4.38657 7.66099L4.48785 6.96844C4.49653 6.90262 4.54572 6.84825 4.60937 6.83108C4.67014 6.81391 4.71354 6.75667 4.70775 6.69371L4.56887 4.90796C4.56018 4.79635 4.56887 4.6876 4.59201 4.57885L4.92766 3.04494C4.96238 2.88182 5.03472 2.72728 5.13599 2.59564L5.93171 1.55967C5.97222 1.50816 6.01563 1.45951 6.06482 1.41372L6.85185 0.68969C6.91551 0.629592 6.98785 0.578081 7.06597 0.535154L7.7228 0.163122C7.87905 0.0744063 8.05266 0.0228946 8.23206 0.0143092L8.50116 0C8.53009 0 8.56192 0 8.59086 0L9.96528 0.0257561C10.1505 0.0286179 10.3328 0.0772681 10.4948 0.165983L10.4977 0.154537Z" fill="#06102D"/>
</svg>
