<svg width="21" height="24" viewBox="0 0 21 24" fill="none" xmlns="http://www.w3.org/2000/svg">
<path d="M0.826904 7.36706L3.57575 7.12312M1.69785 17.5012L4.4467 17.2572M1.26093 12.4341L4.00977 12.1902M5.6041 10.0858L14.1921 9.32159M5.8732 13.2042L16.993 12.2166M6.1423 16.3226L14.7303 15.5584M6.4114 19.441L17.5312 18.4535M5.3379 6.96734L16.4577 5.97979M2.54855 2.21477L17.4733 0.889223C17.916 0.851014 18.3038 1.18314 18.3414 1.62988L19.9531 20.3374C19.9907 20.7871 19.6637 21.181 19.2239 21.2192L4.29913 22.5447C3.85642 22.5829 3.46869 22.2508 3.43107 21.8041L1.81938 3.09651C1.78177 2.64682 2.10873 2.25298 2.54855 2.21477Z" stroke="#06102D" stroke-linecap="round" stroke-linejoin="round"/>
</svg>
