<svg width="35" height="37" viewBox="0 0 35 37" fill="none" xmlns="http://www.w3.org/2000/svg">
<path d="M13.3537 17.4939C13.5562 17.2478 13.808 17.016 14.106 16.8042C15.981 15.4763 19.0221 15.4763 20.8971 16.8042C21.2038 17.0217 21.4584 17.2592 21.6639 17.5139C21.8693 17.2592 22.1268 17.0217 22.4306 16.8042C24.3056 15.4763 27.3467 15.4763 29.2217 16.8042C29.5892 17.0646 29.8843 17.3565 30.1072 17.6685C30.0117 15.1415 28.7819 12.6346 26.4179 10.7057C21.4931 6.68207 13.5041 6.68207 8.57937 10.7057C6.21537 12.6346 4.98852 15.1415 4.89014 17.6685H4.92197C5.14477 17.3565 5.43991 17.0646 5.80738 16.8042C7.68238 15.4763 10.7235 15.4763 12.5985 16.8042C12.8965 17.016 13.1482 17.2478 13.3508 17.4939H13.3537Z" fill="#06102D"/>
<path d="M18.5011 20.161V17.7514C18.5011 17.2048 18.0526 16.7612 17.4999 16.7612C16.9473 16.7612 16.4988 17.2048 16.4988 17.7514V20.161H18.4982H18.5011Z" fill="#06102D"/>
<path d="M18.5011 8.73427V6.32465C18.5011 5.77805 18.0526 5.33447 17.4999 5.33447C16.9473 5.33447 16.4988 5.77805 16.4988 6.32465V8.73427H18.4982H18.5011Z" fill="#06102D"/>
<path d="M26.574 23.9447L27.7459 21.6238C27.8645 21.3892 28.1539 21.2919 28.394 21.4092C28.4866 21.455 28.5619 21.5294 28.6111 21.6238L29.7829 23.9447C29.9016 24.1794 29.8061 24.4656 29.5659 24.5858C29.4994 24.6201 29.4241 24.6373 29.3489 24.6373H27.0023C26.7361 24.6373 26.519 24.4226 26.519 24.1594C26.519 24.085 26.5364 24.0134 26.5711 23.9447H26.574Z" stroke="#06102D" stroke-width="0.5" stroke-linecap="round" stroke-linejoin="round"/>
<path d="M28.3246 23.4839C28.2899 23.4496 28.2493 23.4324 28.1973 23.4324C28.1452 23.4324 28.1076 23.4496 28.0728 23.4839C28.0381 23.5183 28.0208 23.5612 28.0208 23.6099C28.0208 23.6585 28.0381 23.6986 28.0728 23.7301C28.1076 23.7615 28.151 23.7787 28.2002 23.7787C28.2493 23.7787 28.2898 23.7615 28.3217 23.7301C28.3564 23.6986 28.3709 23.6585 28.3709 23.6099C28.3709 23.5584 28.3535 23.5183 28.3217 23.4839H28.3246ZM28.1973 23.192C28.2146 23.192 28.2262 23.1777 28.2349 23.1491L28.258 23.069L28.2956 22.8544C28.339 22.6225 28.3593 22.3965 28.3593 22.1761C28.3593 21.91 28.3072 21.7783 28.2002 21.7783C28.0931 21.7783 28.0381 21.9157 28.0381 22.1876C28.0381 22.3278 28.0497 22.4938 28.0757 22.6941C28.1018 22.8916 28.1249 23.0203 28.1452 23.0747L28.1683 23.1463C28.177 23.1777 28.1857 23.192 28.1973 23.192Z" fill="#06102D"/>
<path d="M16.2934 24.434C16.438 24.5771 16.438 24.8089 16.2934 24.952C16.1487 25.0951 15.9143 25.0951 15.7696 24.952C15.625 24.8089 15.625 24.5771 15.7696 24.434C15.9143 24.2909 16.1487 24.2909 16.2934 24.434Z" fill="#06102D"/>
<path d="M16.1748 24.4626C16.2066 24.4941 16.2066 24.5427 16.1748 24.5742C16.143 24.6057 16.0938 24.6057 16.062 24.5742C16.0301 24.5427 16.0301 24.4941 16.062 24.4626C16.0938 24.4311 16.143 24.4311 16.1748 24.4626Z" fill="#06102D"/>
<path d="M17.0341 24.434C17.1788 24.5771 17.1788 24.8089 17.0341 24.952C16.8894 25.0951 16.655 25.0951 16.5104 24.952C16.3657 24.8089 16.3657 24.5771 16.5104 24.434C16.655 24.2909 16.8894 24.2909 17.0341 24.434Z" fill="#06102D"/>
<path d="M16.9155 24.4626C16.9474 24.4941 16.9474 24.5427 16.9155 24.5742C16.8837 24.6057 16.8345 24.6057 16.8027 24.5742C16.7709 24.5427 16.7709 24.4941 16.8027 24.4626C16.8345 24.4311 16.8837 24.4311 16.9155 24.4626Z" fill="#06102D"/>
<path d="M16.6523 23.7841C16.7969 23.9272 16.7969 24.159 16.6523 24.3021C16.5076 24.4451 16.2732 24.4451 16.1285 24.3021C15.9839 24.159 15.9839 23.9272 16.1285 23.7841C16.2732 23.641 16.5076 23.641 16.6523 23.7841Z" fill="#06102D"/>
<path d="M16.5334 23.8127C16.5653 23.8442 16.5653 23.8928 16.5334 23.9243C16.5016 23.9558 16.4524 23.9558 16.4206 23.9243C16.3888 23.8928 16.3888 23.8442 16.4206 23.8127C16.4524 23.7812 16.5016 23.7812 16.5334 23.8127Z" fill="#06102D"/>
<path d="M11.6031 24.9746L12.2194 24.8572L12.2078 24.7971L12.2657 24.8315L13.0961 23.4664L12.6534 23.2031L11.878 24.4795L11.5221 24.5482L11.4555 24.2047L11.0215 24.2877L11.1748 25.0604L11.6089 24.9774L11.6031 24.9746Z" fill="#06102D"/>
<path d="M11.6031 24.7714L12.2194 24.6541L12.2078 24.594L12.2657 24.6284L13.0961 23.2633L12.6534 23L11.878 24.2764L11.5221 24.345L11.4555 24.0016L11.0215 24.0846L11.1748 24.8573L11.6089 24.7743L11.6031 24.7714Z" stroke="#06102D" stroke-width="0.25" stroke-linecap="round" stroke-linejoin="round"/>
<path d="M12.3379 22.7254C12.4131 22.7941 12.4189 22.9085 12.3523 22.9829C12.2829 23.0574 12.1672 23.0631 12.0919 22.9973C12.0167 22.9286 12.0109 22.8141 12.0775 22.7397C12.1469 22.6653 12.2626 22.6596 12.3379 22.7254Z" fill="#06102D"/>
<path d="M12.3379 22.7254C12.4131 22.7941 12.4189 22.9085 12.3523 22.9829C12.2829 23.0574 12.1672 23.0631 12.0919 22.9973C12.0167 22.9286 12.0109 22.8141 12.0775 22.7397C12.1469 22.6653 12.2626 22.6596 12.3379 22.7254Z" stroke="#06102D" stroke-width="0.26" stroke-linecap="round" stroke-linejoin="round"/>
<path d="M13.2002 24.6944L14.7772 23.1348L14.8553 23.212L13.2783 24.7717L13.2002 24.6944Z" fill="#06102D"/>
<path d="M13.2783 23.1348L14.8553 24.6944L14.7772 24.7717L13.2002 23.212L13.2783 23.1348Z" fill="#06102D"/>
<path d="M12.9138 23.8989H15.1418V24.0077H12.9138V23.8989Z" fill="#06102D"/>
<path d="M13.9729 25.0551V22.8516H14.0829V25.0551H13.9729Z" fill="#06102D"/>
<path d="M14.8089 23.1777C15.24 23.6041 15.24 24.2995 14.8089 24.7259C14.3778 25.1523 13.6747 25.1523 13.2435 24.7259C12.8124 24.2995 12.8124 23.6041 13.2435 23.1777C13.6747 22.7513 14.3778 22.7513 14.8089 23.1777" stroke="#06102D" stroke-width="0.25" stroke-linecap="round" stroke-linejoin="round"/>
<path d="M14.2361 23.747C14.3519 23.8615 14.3519 24.0446 14.2361 24.1591C14.1204 24.2736 13.9352 24.2736 13.8195 24.1591C13.7037 24.0446 13.7037 23.8615 13.8195 23.747C13.9352 23.6325 14.1204 23.6325 14.2361 23.747Z" stroke="#06102D" stroke-width="0.26" stroke-linecap="round" stroke-linejoin="round"/>
<path d="M17.0457 22.2932C16.982 22.2761 16.9068 22.276 16.82 22.2789L12.8153 22.339C12.5723 22.3505 12.3842 22.5565 12.3958 22.7998L12.4016 22.9028C12.4131 23.1432 12.6215 23.3292 12.8674 23.3177L16.8402 22.9657C16.9299 22.96 17.0109 22.9514 17.0746 22.9257L17.2656 23.0831L17.2135 22.1187L17.0428 22.2932H17.0457Z" fill="#06102D"/>
<path d="M17.0457 22.2932C16.982 22.2761 16.9068 22.276 16.82 22.2789L12.8153 22.339C12.5723 22.3505 12.3842 22.5565 12.3958 22.7998L12.4016 22.9028C12.4131 23.1432 12.6215 23.3292 12.8674 23.3177L16.8402 22.9657C16.9299 22.96 17.0109 22.9486 17.0746 22.9257L17.2656 23.0831L17.2135 22.1187L17.0428 22.2932H17.0457Z" stroke="#06102D" stroke-width="0.25" stroke-linecap="round" stroke-linejoin="round"/>
<path d="M5.4021 23.3809H8.50395L8.39689 24.7545H5.52652L5.4021 23.3809Z" fill="#06102D"/>
<path d="M7.07181 23.9502C7.13836 24.0161 7.13836 24.122 7.07181 24.1878C7.00526 24.2536 6.8982 24.2536 6.83165 24.1878C6.7651 24.122 6.7651 24.0161 6.83165 23.9502C6.8982 23.8844 7.00526 23.8844 7.07181 23.9502Z" fill="#06102D"/>
<path fill-rule="evenodd" clip-rule="evenodd" d="M5.93469 21.9239L6.16617 22.0012C6.1546 22.2871 6.21885 22.3865 6.32786 22.5553C6.35522 22.5976 6.3854 22.6443 6.41791 22.6994C6.71304 23.2002 7.19337 23.2002 7.48851 22.6994C7.50979 22.6633 7.52958 22.6309 7.54786 22.6008C7.66876 22.4024 7.72388 22.3119 7.71131 22.0012L7.94279 21.9239L8.48388 21.6177L7.88203 22.8454L8.49835 22.9971L8.60132 23.2874C8.57589 23.2609 8.54074 23.2459 8.50395 23.2459H5.4021C5.36766 23.2459 5.33467 23.259 5.30974 23.2824L5.41096 22.9971L6.02728 22.8454L5.3936 21.6177L5.93469 21.9239ZM5.26823 23.3994L4.86987 24.5224L5.17948 24.903L5.64244 25.0547H8.26686L8.72983 24.903L9.03943 24.5224L8.63848 23.3921L8.53148 24.765C8.52601 24.8353 8.46738 24.8895 8.39689 24.8895H5.52652C5.45668 24.8895 5.39837 24.8362 5.39207 24.7667L5.26823 23.3994ZM5.64985 24.6195L5.54988 23.5159H8.35802L8.272 24.6195H5.64985Z" fill="#06102D"/>
<path d="M6.83154 22.1074H7.0283" stroke="#06102D" stroke-width="0.27" stroke-linecap="round" stroke-linejoin="round"/>
<path d="M6.78815 21.9815C6.88075 22.1246 6.80262 22.2677 6.71003 22.4108C6.61744 22.5539 6.47855 22.614 6.38596 22.4709C6.29336 22.3278 6.26153 22.1074 6.35413 21.9644C6.44672 21.8213 6.69846 21.8384 6.79105 21.9815H6.78815Z" fill="#06102D"/>
<path d="M7.07468 21.9815C6.97341 22.1246 7.06022 22.2677 7.16149 22.4108C7.26276 22.5539 7.41323 22.614 7.5145 22.4709C7.61577 22.3278 7.65049 22.1074 7.54922 21.9644C7.44795 21.8213 7.17596 21.8384 7.07468 21.9815Z" fill="#06102D"/>
<path d="M6.85474 22.7798H7.0515" stroke="#06102D" stroke-width="0.27" stroke-linecap="round" stroke-linejoin="round"/>
<path d="M5.53247 21.4976V21.3144L6.07356 21.1313L6.30504 20.3672H7.60134L7.80099 21.1313L8.37101 21.3144V21.4976L7.81546 21.7408H6.08803L5.53247 21.4976Z" fill="#06102D"/>
<path d="M21.8084 22.7626C21.8576 22.774 21.9039 22.7998 21.9415 22.837C22.011 22.9057 22.0341 22.9972 22.0168 23.086L22.2858 23.2519C22.4247 23.0631 22.6302 22.92 22.8761 22.8656C23.4201 22.7425 23.9641 23.0774 24.0885 23.6154C24.1377 23.8243 24.1174 24.0332 24.0393 24.2164L24.1117 24.2593C24.2361 23.9903 24.2766 23.6812 24.2043 23.3693C24.0683 22.7826 23.5735 22.3734 23.0034 22.3076C23.2465 21.7953 23.1539 21.1657 22.7286 20.745C22.5 20.5189 22.2135 20.3873 21.9155 20.353V20.436C22.1122 20.4703 22.3032 20.5619 22.4566 20.7135C22.8501 21.1027 22.8501 21.7381 22.4566 22.1273C22.2772 22.3047 22.0457 22.402 21.8113 22.4192V22.7569C21.8113 22.7569 21.8055 22.7626 21.8055 22.7654L21.8084 22.7626ZM21.6811 22.7626C21.6811 22.7626 21.6753 22.7569 21.6753 22.754V22.4163C21.4409 22.3991 21.2095 22.3047 21.0301 22.1244C20.6365 21.7352 20.6365 21.0999 21.0301 20.7107C21.1834 20.559 21.3715 20.4674 21.5712 20.4331V20.3501C21.2731 20.3873 20.9867 20.5189 20.7581 20.7422C20.3298 21.1657 20.2372 21.7953 20.4832 22.3047C19.9132 22.3677 19.4184 22.7798 19.2824 23.3664C19.21 23.6784 19.2505 23.9874 19.375 24.2564L19.4473 24.2135C19.3721 24.0304 19.3518 23.8214 19.3981 23.6125C19.5225 23.0745 20.0665 22.7397 20.6105 22.8627C20.8593 22.92 21.0619 23.0602 21.2008 23.2491L21.4699 23.0831C21.4525 22.9972 21.4786 22.9028 21.5451 22.8341C21.5827 22.7969 21.629 22.7712 21.6782 22.7597L21.6811 22.7626ZM21.5306 23.209L21.2731 23.3664C21.3831 23.5725 21.4236 23.8157 21.3657 24.0618C21.2413 24.5998 20.6973 24.9347 20.1533 24.8116C19.9421 24.763 19.7627 24.6542 19.6296 24.5054L19.5573 24.5483C19.7453 24.7773 20.0115 24.949 20.324 25.0205C20.8738 25.1464 21.4207 24.9318 21.7419 24.5197C22.0659 24.9347 22.6128 25.1464 23.1597 25.0205C23.4751 24.949 23.7384 24.7773 23.9265 24.5483L23.8541 24.5054C23.721 24.6542 23.5387 24.763 23.3304 24.8116C22.7864 24.9347 22.2424 24.5998 22.118 24.0618C22.0602 23.8157 22.1007 23.5725 22.2106 23.3664L21.9531 23.209C21.9531 23.209 21.9415 23.2205 21.9386 23.2262C21.8287 23.3349 21.6522 23.3349 21.5451 23.2262C21.5393 23.2205 21.5335 23.2147 21.5306 23.209Z" fill="#06102D"/>
<path d="M22.7055 23.1832C22.6708 23.3664 22.5811 23.5438 22.4364 23.6869C22.4046 23.7184 22.3727 23.747 22.338 23.7727V24.2535C22.4798 24.1877 22.6129 24.0961 22.7315 23.9788C23.0209 23.6926 23.1569 23.3091 23.1395 22.9342L22.7055 23.1832ZM20.3531 22.9342C20.3357 23.3091 20.4688 23.6926 20.7611 23.9788C20.8797 24.0961 21.0128 24.1877 21.1546 24.2535V23.7727C21.1198 23.747 21.088 23.7184 21.0562 23.6869C20.9115 23.5438 20.8218 23.3664 20.7871 23.1832L20.3531 22.9342ZM21.3224 22.1329C21.5915 22.0042 21.904 22.0042 22.1731 22.1329L22.584 21.8983C22.0892 21.532 21.4063 21.532 20.9115 21.8983L21.3224 22.1329Z" fill="#06102D"/>
</svg>
