<svg width="35" height="37" viewBox="0 0 35 37" fill="none" xmlns="http://www.w3.org/2000/svg">
<path d="M25.3531 9.54109C29.6904 13.8309 29.6904 20.785 25.3531 25.0777C21.0157 29.3675 13.9844 29.3675 9.64415 25.0777C5.30677 20.7879 5.30677 13.8338 9.64415 9.54109C13.9815 5.25128 21.0128 5.25128 25.3531 9.54109Z" stroke="#06102D" stroke-linecap="round" stroke-linejoin="round"/>
<path d="M24.4531 10.4312C28.2928 14.2288 28.2928 20.3845 24.4531 24.1821C20.6134 27.9797 14.3894 27.9797 10.5497 24.1821C6.71 20.3845 6.71 14.2288 10.5497 10.4312C14.3894 6.63361 20.6134 6.63361 24.4531 10.4312Z" stroke="#06102D" stroke-width="0.25" stroke-linecap="round" stroke-linejoin="round"/>
<path d="M16.0068 8.17627L17.4999 11.3156L18.9929 8.17627H16.0068Z" fill="#06102D"/>
<path d="M16.0068 8.17627L17.4999 11.3156L18.9929 8.17627H16.0068Z" stroke="#06102D" stroke-width="0.25" stroke-linecap="round" stroke-linejoin="round"/>
<path d="M16.6318 26.5744L17.4999 24.7485L18.3679 26.5744H16.6318Z" fill="#06102D"/>
<path d="M16.6318 26.5744L17.4999 24.7485L18.3679 26.5744H16.6318Z" stroke="#06102D" stroke-width="0.25" stroke-linecap="round" stroke-linejoin="round"/>
<path d="M26.8258 16.4497L24.9797 17.3082L26.8258 18.1668V16.4497Z" fill="#06102D"/>
<path d="M26.8258 16.4497L24.9797 17.3082L26.8258 18.1668V16.4497Z" stroke="#06102D" stroke-width="0.25" stroke-linecap="round" stroke-linejoin="round"/>
<path d="M8.19727 16.4497L10.0433 17.3082L8.19727 18.1668V16.4497Z" fill="#06102D"/>
<path d="M8.19727 16.4497L10.0433 17.3082L8.19727 18.1668V16.4497V16.4497Z" stroke="#06102D" stroke-width="0.25" stroke-linecap="round" stroke-linejoin="round"/>
<path d="M16.1604 15.8058L22.9225 11.9653L19.0394 18.6533L16.1575 15.803L16.1604 15.8058Z" fill="#06102D"/>
<path d="M16.1604 15.8058L22.9225 11.9653L19.0394 18.6533L16.1575 15.803L16.1604 15.8058ZM16.1604 15.8058L18.8369 18.8107L12.0747 22.6512L15.9578 15.9632L18.8398 18.8136L16.1604 15.8058Z" stroke="#06102D" stroke-width="0.5" stroke-linecap="round" stroke-linejoin="round"/>
</svg>
