<svg width="14" height="15" viewBox="0 0 14 15" fill="none" xmlns="http://www.w3.org/2000/svg">
<path d="M3.06269 2.29302C2.80594 2.29302 2.58892 2.38386 2.41164 2.56555C2.23436 2.74724 2.14572 2.96965 2.14572 3.23278C2.14572 3.49592 2.23436 3.71833 2.41164 3.90002C2.58892 4.0817 2.80594 4.17255 3.06269 4.17255C3.31944 4.17255 3.53646 4.0817 3.71374 3.90002C3.89102 3.71833 3.97966 3.49592 3.97966 3.23278C3.97966 2.96965 3.89102 2.74724 3.71374 2.56555C3.53646 2.38386 3.31944 2.29302 3.06269 2.29302ZM3.06269 10.0743C2.80594 10.0743 2.58892 10.1651 2.41164 10.3468C2.23436 10.5285 2.14572 10.7509 2.14572 11.014C2.14572 11.2772 2.23436 11.4996 2.41164 11.6813C2.58892 11.8629 2.80594 11.9538 3.06269 11.9538C3.31944 11.9538 3.53646 11.8629 3.71374 11.6813C3.89102 11.4996 3.97966 11.2772 3.97966 11.014C3.97966 10.7509 3.89102 10.5285 3.71374 10.3468C3.53646 10.1651 3.31944 10.0743 3.06269 10.0743ZM0.623541 0H12.5625C12.7581 0 12.914 0.0595183 13.0302 0.178555C13.1463 0.297592 13.2044 0.457351 13.2044 0.657834V5.71376C13.2044 5.92677 13.1463 6.10846 13.0302 6.25882C12.914 6.40918 12.7581 6.48436 12.5625 6.48436H0.623541C0.440147 6.48436 0.290375 6.40918 0.174225 6.25882C0.0580749 6.10846 0 5.92677 0 5.71376V0.657834C0 0.457351 0.0580749 0.297592 0.174225 0.178555C0.290375 0.0595183 0.440147 0 0.623541 0ZM1.10037 1.12772V5.35665H12.104V1.12772H1.10037ZM0.623541 7.76244H12.4892C12.6726 7.76244 12.8376 7.84075 12.9843 7.99738C13.131 8.15401 13.2044 8.33256 13.2044 8.53305V13.495C13.2044 13.7456 13.131 13.9367 12.9843 14.0682C12.8376 14.1998 12.6726 14.2656 12.4892 14.2656H0.715238C0.519617 14.2656 0.351506 14.1998 0.210904 14.0682C0.0703011 13.9367 0 13.7456 0 13.495V8.53305C0 8.33256 0.0580749 8.15401 0.174225 7.99738C0.290375 7.84075 0.440147 7.76244 0.623541 7.76244ZM1.10037 8.89016V13.1379H12.104V8.89016H1.10037Z" fill="#06102D"/>
</svg>
