<svg width="31" height="33" viewBox="0 0 31 33" fill="none" xmlns="http://www.w3.org/2000/svg">
<path d="M23.2659 10.9952C22.4765 10.0763 21.4821 9.30807 20.3109 8.76441C15.9131 6.72249 10.6824 8.61637 8.63212 12.9988C8.08623 14.1653 7.8197 15.3904 7.80688 16.6003L23.2659 10.9952V10.9952Z" stroke="#06102D" stroke-width="1.49" stroke-linecap="round" stroke-linejoin="round"/>
<path d="M22.4893 11.1689C21.805 10.4465 20.9746 9.83652 20.0161 9.39241C15.9643 7.51129 11.1487 9.25713 9.25738 13.2925C8.80888 14.2471 8.56798 15.2451 8.50903 16.2379L22.4867 11.1714L22.4893 11.1689Z" stroke="#06102D" stroke-width="0.74" stroke-linecap="round" stroke-linejoin="round"/>
<path d="M19.2755 11.8042C19.0628 11.6638 18.8372 11.5387 18.6015 11.429C15.9874 10.214 12.8787 11.3422 11.6587 13.9457C11.5485 14.183 11.4563 14.423 11.3845 14.6654L19.2755 11.8042Z" stroke="#06102D" stroke-width="0.74" stroke-linecap="round" stroke-linejoin="round"/>
<path fill-rule="evenodd" clip-rule="evenodd" d="M18.6015 11.429C18.8372 11.5387 19.0628 11.6638 19.2755 11.8042L11.3845 14.6654C11.4563 14.423 11.5485 14.183 11.6587 13.9457C12.8787 11.3422 15.9874 10.214 18.6015 11.429ZM17.32 11.6462L17.0637 11.3169H17.0586L17.074 11.7329L16.6819 11.8759L17.0842 11.9907L17.0996 12.4068L17.3328 12.0622L17.7352 12.1771L17.4789 11.8478L17.7121 11.5032L17.32 11.6462ZM14.6651 11.4163L14.9213 11.7455L15.3135 11.6026L15.0802 11.9472L15.3365 12.2764L14.9342 12.1616L14.7009 12.5061L14.6856 12.0901L14.2832 11.9752L14.6753 11.8323L14.6599 11.4163H14.6651ZM13.0197 13.2055L12.7635 12.8762H12.7583L12.7737 13.2923L12.3816 13.4352L12.784 13.5501L12.7993 13.9661L13.0326 13.6215L13.4349 13.7364L13.1786 13.4071L13.4118 13.0625L13.0197 13.2055Z" fill="#06102D"/>
<path d="M5.90259 17.2895L25.1699 10.3062" stroke="#06102D" stroke-width="2" stroke-miterlimit="10" stroke-linecap="square"/>
<path d="M6.14868 17.9632L25.4135 10.9773" stroke="#06102D" stroke-width="0.5" stroke-miterlimit="10" stroke-linecap="square"/>
<path d="M8.69625 20.1353L9.31389 19.9106L9.30108 19.8749C9.26264 19.8851 9.23701 19.8877 9.22419 19.88C9.21138 19.8749 9.20369 19.8647 9.19857 19.8494L8.79108 18.734L9.3062 18.5477C9.32158 18.5426 9.33696 18.5426 9.34721 18.5502C9.36002 18.5579 9.37284 18.5783 9.39078 18.6115L9.42666 18.5987L9.23188 18.0678L9.196 18.0806C9.20369 18.1163 9.20625 18.1393 9.20369 18.1546C9.19856 18.1674 9.19088 18.1776 9.17294 18.1852L7.69418 18.7212C7.67881 18.7263 7.66343 18.7263 7.65318 18.7187C7.64036 18.711 7.62755 18.6906 7.60961 18.6574L7.57373 18.6702L7.76851 19.2011L7.80439 19.1883C7.7967 19.1526 7.79413 19.1296 7.7967 19.1143C7.80182 19.1015 7.80951 19.0913 7.82745 19.0837L8.34258 18.8973L8.75007 20.0127C8.7552 20.0255 8.7552 20.0408 8.75007 20.051C8.74494 20.0638 8.72444 20.0791 8.686 20.097L8.69881 20.1327L8.69625 20.1353ZM10.562 19.0479L10.1545 17.9325C10.1494 17.9198 10.1494 17.9045 10.1545 17.8942C10.1596 17.8815 10.1801 17.8662 10.2186 17.8483L10.2058 17.8126L9.58812 18.0372L9.60093 18.0729C9.63937 18.0627 9.665 18.0602 9.67781 18.0678C9.69063 18.0729 9.69832 18.0831 9.70344 18.0984L10.2109 19.4869C10.216 19.4997 10.216 19.515 10.2109 19.5252C10.2058 19.538 10.1853 19.5533 10.1468 19.5712L10.1596 19.6069L11.723 19.0403C11.7383 19.0352 11.7511 19.0326 11.7614 19.0377C11.7716 19.0428 11.7845 19.0581 11.7998 19.0888L11.8357 19.076L11.6461 18.5604L11.6102 18.5732C11.6179 18.6089 11.6204 18.6319 11.6179 18.6472C11.6128 18.66 11.6051 18.6702 11.5871 18.6778L10.5569 19.0505L10.562 19.0479ZM12.3662 17.7973L12.2406 17.4552L12.6943 17.2893C12.7788 17.2587 12.8429 17.2485 12.8916 17.2612C12.9403 17.274 12.9736 17.3072 12.9967 17.3659C13.0197 17.4297 13.0172 17.4833 12.989 17.5241C12.9608 17.565 12.9044 17.6033 12.8198 17.6313L12.3662 17.7973ZM12.4816 18.1138L13.0197 17.9172C13.1146 17.884 13.1915 17.8406 13.253 17.787C13.3145 17.7334 13.3606 17.6773 13.3939 17.6135C13.4272 17.5497 13.4426 17.4859 13.4452 17.4169C13.4452 17.348 13.4349 17.2791 13.4119 17.2153C13.3888 17.1489 13.3529 17.0902 13.3068 17.0392C13.2607 16.9881 13.2043 16.9473 13.1402 16.9192C13.0761 16.8912 13.0018 16.8758 12.9198 16.8758C12.8378 16.8758 12.7506 16.8912 12.6558 16.9269L11.5846 17.3148L11.5974 17.3506C11.6358 17.3404 11.6614 17.3378 11.6743 17.3455C11.6871 17.3506 11.6948 17.3608 11.6999 17.3761L12.2073 18.7646C12.2125 18.7774 12.2125 18.7927 12.2073 18.8029C12.2022 18.8157 12.1817 18.831 12.1433 18.8488L12.1561 18.8846L12.7737 18.66L12.7609 18.6242C12.7225 18.6344 12.6968 18.637 12.684 18.6293C12.6712 18.6242 12.6635 18.614 12.6584 18.5987L12.4816 18.1138ZM13.7502 16.8988C13.7194 16.9626 13.7168 17.0264 13.7399 17.0902C13.763 17.154 13.8065 17.2 13.8706 17.2306C13.9347 17.2612 13.9987 17.2638 14.0628 17.2408C14.1269 17.2179 14.173 17.1745 14.2038 17.1107C14.2345 17.0468 14.2371 16.983 14.214 16.9192C14.191 16.8554 14.1474 16.8095 14.0833 16.7788C14.0192 16.7482 13.9552 16.7457 13.8911 16.7686C13.827 16.7916 13.7809 16.835 13.7502 16.8988ZM14.0628 17.7564C14.0321 17.8202 14.0295 17.884 14.0526 17.9478C14.0756 18.0117 14.1192 18.0576 14.1807 18.0831C14.2448 18.1086 14.3063 18.1112 14.3704 18.0882C14.4344 18.0653 14.4806 18.0244 14.5113 17.9632C14.5421 17.9019 14.5472 17.8406 14.5216 17.7768C14.4985 17.713 14.4549 17.6671 14.3909 17.6365C14.3268 17.6058 14.2627 17.6033 14.1986 17.6262C14.1346 17.6492 14.0884 17.6926 14.0577 17.7564H14.0628ZM16.1772 16.7788L16.2489 16.9754C16.1925 17.0162 16.1336 17.052 16.0721 17.0877C16.008 17.1209 15.9362 17.154 15.8517 17.1847C15.785 17.2076 15.7158 17.223 15.6415 17.2306C15.5672 17.2383 15.4954 17.2306 15.4262 17.2128C15.357 17.1949 15.2955 17.1643 15.2366 17.1183C15.1802 17.0724 15.1366 17.0111 15.1059 16.9294C15.0751 16.8478 15.0649 16.7737 15.0751 16.7023C15.0828 16.6334 15.1059 16.5695 15.1418 16.5108C15.1776 16.4521 15.2263 16.4036 15.2827 16.3603C15.3417 16.3169 15.4057 16.2837 15.4775 16.2582C15.539 16.2352 15.6056 16.2173 15.6723 16.2046C15.7415 16.1918 15.803 16.1816 15.8594 16.1765C15.9157 16.1714 15.9644 16.1714 16.0054 16.1765C16.0464 16.1816 16.067 16.1892 16.0721 16.2046C16.0746 16.2148 16.0772 16.225 16.0772 16.2403L16.1208 16.2479L16.172 15.7834H16.131C16.1259 15.8038 16.1131 15.8166 16.0977 15.8242C16.0849 15.8294 16.0541 15.8294 16.0054 15.8242C15.9567 15.8217 15.9055 15.8217 15.8491 15.8242C15.7927 15.8294 15.744 15.8345 15.703 15.8396C15.662 15.8447 15.621 15.8498 15.5851 15.8574C15.5493 15.8651 15.5083 15.8727 15.4698 15.8855C15.4314 15.8983 15.3878 15.911 15.3365 15.9314C15.211 15.9774 15.0956 16.0361 14.9906 16.1127C14.8855 16.1867 14.8009 16.276 14.7343 16.373C14.6676 16.4726 14.6266 16.5823 14.6087 16.7023C14.5908 16.8222 14.6061 16.9499 14.6548 17.0851C14.7035 17.2204 14.7753 17.3276 14.865 17.4093C14.9572 17.491 15.0598 17.5471 15.1725 17.5803C15.2853 17.6135 15.4083 17.6237 15.5339 17.6135C15.662 17.6033 15.7876 17.5726 15.9132 17.5267C16.2848 17.3914 16.5795 17.2051 16.7974 16.9626L16.7845 16.9269L16.7692 16.932C16.7538 16.9371 16.741 16.9371 16.7333 16.9269C16.7256 16.9192 16.7205 16.9065 16.7153 16.8937L16.5334 16.3985C16.5206 16.3679 16.5334 16.3449 16.5616 16.3296L16.5488 16.2939L15.6671 16.6129C15.6415 16.6231 15.6185 16.6104 15.6031 16.5747L15.5672 16.5874L15.721 17.0035L15.7568 16.9907C15.7517 16.9728 15.7517 16.9575 15.7543 16.9422C15.7543 16.9294 15.7645 16.9192 15.7825 16.9141L16.1695 16.7737L16.1772 16.7788ZM17.4278 15.9442L17.3074 15.6175L17.8097 15.4363C17.8968 15.4057 17.9634 15.398 18.0096 15.421C18.0557 15.4414 18.0839 15.4746 18.1018 15.518C18.1172 15.5614 18.1147 15.6047 18.0941 15.6507C18.0736 15.6966 18.0198 15.7349 17.9301 15.7655L17.4278 15.9468V15.9442ZM17.5431 16.2607L17.8353 16.1535C17.8353 16.1535 17.8661 16.1765 17.8942 16.1969C17.925 16.2173 17.9583 16.2403 17.9993 16.2658C18.0403 16.2913 18.0813 16.3194 18.1249 16.3475C18.1685 16.3756 18.2069 16.4036 18.2428 16.4266C18.2787 16.4521 18.3094 16.4726 18.3351 16.4904C18.3607 16.5083 18.3735 16.5185 18.3735 16.5236C18.3863 16.5568 18.3709 16.5823 18.3274 16.6002L18.3402 16.6359L18.9629 16.4113L18.9501 16.3756C18.9168 16.3883 18.8809 16.3807 18.8425 16.3526L18.3094 15.985C18.4196 15.9059 18.5016 15.814 18.5555 15.7068C18.6067 15.5996 18.6093 15.4771 18.558 15.3418C18.4965 15.1734 18.4017 15.0662 18.271 15.0228C18.1428 14.9794 17.966 14.9973 17.7456 15.0764L16.6513 15.4746L16.6641 15.5103C16.7025 15.5001 16.7282 15.4975 16.741 15.5052C16.7538 15.5103 16.7615 15.5205 16.7666 15.5358L17.274 16.9243C17.2792 16.9371 17.2792 16.9524 17.274 16.9626C17.2689 16.9754 17.2484 16.9907 17.21 17.0086L17.2228 17.0443L17.8404 16.8197L17.8276 16.784C17.7892 16.7942 17.7635 16.7967 17.7507 16.7891C17.7379 16.784 17.7302 16.7737 17.7251 16.7584L17.5431 16.2582V16.2607ZM20.393 15.2474L20.2239 14.7829L20.188 14.7956C20.1905 14.816 20.188 14.8365 20.1803 14.8543C20.1726 14.8722 20.1521 14.885 20.1239 14.8977L19.5678 15.0994L19.4781 14.8518L20.4391 14.5047C20.4545 14.4996 20.4699 14.4996 20.4801 14.5072C20.493 14.5149 20.5058 14.5353 20.5237 14.5685L20.5596 14.5557L20.3699 14.0376L20.3341 14.0503C20.3418 14.0861 20.3443 14.109 20.3418 14.1243C20.3366 14.1371 20.3289 14.1473 20.311 14.155L18.8169 14.6961L18.8297 14.7318C18.8681 14.7216 18.8938 14.7191 18.9066 14.7267C18.9194 14.7318 18.9271 14.742 18.9322 14.7573L19.4396 16.1459C19.4448 16.1586 19.4448 16.1739 19.4396 16.1841C19.4345 16.1969 19.414 16.2122 19.3756 16.2301L19.3884 16.2658L20.8825 15.7247C20.8979 15.7196 20.9107 15.717 20.921 15.7196C20.9312 15.7222 20.944 15.7375 20.9568 15.7604L20.9927 15.7477L20.8056 15.2372L20.7697 15.25C20.78 15.2882 20.7826 15.3163 20.7774 15.3291C20.7723 15.3418 20.7646 15.3521 20.7467 15.3597L19.7856 15.7068L19.6831 15.4286L20.2392 15.227C20.27 15.2168 20.2931 15.2142 20.311 15.2219C20.3289 15.2295 20.3443 15.2423 20.3546 15.2627L20.3904 15.25L20.393 15.2474ZM22.3895 14.5251L22.2203 14.0605L22.1844 14.0733C22.187 14.0937 22.1844 14.1141 22.1767 14.132C22.1691 14.1499 22.1485 14.1626 22.1204 14.1754L21.5642 14.377L21.4745 14.1295L22.4356 13.7823C22.451 13.7772 22.4663 13.7772 22.4766 13.7849C22.4894 13.7925 22.5022 13.813 22.5202 13.8461L22.556 13.8334L22.3664 13.3152L22.3305 13.328C22.3382 13.3637 22.3408 13.3867 22.3382 13.402C22.3331 13.4148 22.3254 13.425 22.3074 13.4326L20.8133 13.9738L20.8261 14.0095C20.8646 13.9993 20.8902 13.9967 20.903 14.0044C20.9158 14.0095 20.9235 14.0197 20.9286 14.035L21.4361 15.4235C21.4412 15.4363 21.4412 15.4516 21.4361 15.4618C21.431 15.4746 21.4105 15.4899 21.372 15.5077L21.3848 15.5435L22.879 15.0024C22.8943 14.9973 22.9071 14.9947 22.9174 14.9973C22.9276 14.9998 22.9405 15.0151 22.9533 15.0381L22.9892 15.0253L22.8021 14.5149L22.7662 14.5276C22.7764 14.5659 22.779 14.594 22.7739 14.6068C22.7688 14.6195 22.7611 14.6297 22.7431 14.6374L21.7821 14.9845L21.6796 14.7063L22.2357 14.5047C22.2664 14.4944 22.2895 14.4919 22.3074 14.4996C22.3254 14.5072 22.3408 14.52 22.351 14.5404L22.3869 14.5276L22.3895 14.5251ZM23.43 14.6935C23.4351 14.7063 23.4351 14.7216 23.43 14.7318C23.4248 14.7446 23.4043 14.7599 23.3659 14.7778L23.3787 14.8135L23.9477 14.6068L23.9348 14.571C23.8964 14.5812 23.8708 14.5838 23.858 14.5761C23.8451 14.571 23.8375 14.5608 23.8323 14.5455L23.4915 13.6088C23.676 13.7083 23.8349 13.7925 23.9656 13.8615C24.0963 13.9304 24.2065 13.9865 24.2962 14.0325C24.3859 14.0784 24.4577 14.1141 24.5115 14.1397C24.5653 14.1652 24.6063 14.1882 24.6345 14.2009C24.6627 14.2162 24.6806 14.2264 24.6909 14.2341C24.7011 14.2418 24.7063 14.2469 24.7088 14.252C24.7114 14.2622 24.7088 14.2724 24.7037 14.28C24.696 14.2903 24.6806 14.2979 24.6524 14.3081L24.6652 14.3439L25.2342 14.1371L25.2214 14.1014C25.1829 14.1116 25.1573 14.1141 25.1445 14.1065C25.1317 14.0988 25.124 14.0912 25.1189 14.0759L24.6114 12.6873C24.6063 12.6746 24.6063 12.6593 24.6114 12.6491C24.6166 12.6363 24.6371 12.621 24.6755 12.6031L24.6627 12.5674L24.1142 12.7665L24.1271 12.8022C24.1706 12.7894 24.1962 12.7997 24.2091 12.8328L24.4987 13.6292C24.45 13.6037 24.3885 13.5756 24.3193 13.5398C24.2501 13.5041 24.1783 13.4684 24.1014 13.4301C24.0271 13.3918 23.9502 13.351 23.8759 13.3127C23.8016 13.2744 23.7349 13.2361 23.676 13.2055C23.6171 13.1749 23.5684 13.1468 23.5299 13.1238C23.4915 13.1008 23.4735 13.0881 23.471 13.0855C23.4684 13.0753 23.471 13.0651 23.4787 13.0549C23.4863 13.0447 23.5068 13.0319 23.5402 13.0166L23.5274 12.9809L22.8072 13.2412L22.82 13.277C22.8585 13.2667 22.8841 13.2642 22.8969 13.2718C22.9097 13.277 22.9174 13.2872 22.9225 13.3025L23.43 14.691V14.6935Z" fill="#06102D"/>
<path d="M25.1931 16.2737C25.1803 17.4835 24.9138 18.7087 24.3679 19.8751C22.3176 24.255 17.0869 26.1515 12.6891 24.1096C11.5179 23.5659 10.5235 22.7976 9.73413 21.8788L25.1931 16.2737V16.2737Z" stroke="#06102D" stroke-width="1.49" stroke-linecap="round" stroke-linejoin="round"/>
<path d="M24.4883 16.6387C24.4319 17.6316 24.1884 18.627 23.74 19.5841C21.8511 23.6195 17.033 25.3653 12.9812 23.4842C12.0227 23.0375 11.1923 22.4301 10.5081 21.7077L24.4857 16.6412L24.4883 16.6387Z" stroke="#06102D" stroke-width="0.74" stroke-linecap="round" stroke-linejoin="round"/>
<path d="M21.6153 18.2083C21.5436 18.4507 21.4513 18.6907 21.3411 18.928C20.1212 21.5315 17.0125 22.6596 14.3984 21.4447C14.16 21.3349 13.9371 21.2099 13.7244 21.0695L21.6153 18.2083V18.2083Z" stroke="#06102D" stroke-width="0.74" stroke-linecap="round" stroke-linejoin="round"/>
<path fill-rule="evenodd" clip-rule="evenodd" d="M21.3411 18.928C21.4513 18.6907 21.5436 18.4507 21.6153 18.2083L13.7244 21.0695C13.9371 21.2099 14.16 21.3349 14.3984 21.4447C17.0125 22.6596 20.1212 21.5315 21.3411 18.928ZM20.2213 19.5815L20.2366 19.9976H20.2315L19.9752 19.6683L19.5831 19.8113L19.8163 19.4667L19.5601 19.1374L19.9624 19.2523L20.1956 18.9077L20.211 19.3238L20.6134 19.4386L20.2213 19.5815ZM18.335 21.4576L18.3197 21.0415L18.7118 20.8986L18.3094 20.7837L18.294 20.3677L18.0608 20.7123L17.6584 20.5974L17.9147 20.9267L17.6815 21.2712L18.0736 21.1283L18.3299 21.4576H18.335ZM15.9207 21.1411L15.9361 21.5572H15.931L15.6747 21.2279L15.2826 21.3708L15.5158 21.0263L15.2595 20.697L15.6619 20.8119L15.8951 20.4673L15.9105 20.8833L16.3128 20.9982L15.9207 21.1411Z" fill="#06102D"/>
<path d="M7.74292 22.3279L27.0103 15.3445" stroke="#06102D" stroke-width="2" stroke-miterlimit="10" stroke-linecap="square"/>
<path d="M7.49683 21.6566L26.7642 14.6707" stroke="#06102D" stroke-width="0.5" stroke-miterlimit="10" stroke-linecap="square"/>
</svg>
