<svg width="19" height="15" viewBox="0 0 19 15" fill="none" xmlns="http://www.w3.org/2000/svg">
<path fill-rule="evenodd" clip-rule="evenodd" d="M18.006 0H0V14.2656H18.006V0ZM2.23383 1.90208C1.71044 1.90208 1.28614 2.32787 1.28614 2.85312V11.4125C1.28614 11.9377 1.71044 12.3635 2.23383 12.3635H15.7722C16.2956 12.3635 16.7199 11.9377 16.7199 11.4125V2.85312C16.7199 2.32788 16.2956 1.90208 15.7722 1.90208H2.23383Z" fill="#06102D"/>
<path fill-rule="evenodd" clip-rule="evenodd" d="M8.52916 3.80416H2.84305V10.4614H8.52916V3.80416ZM6.90443 5.46848H4.46753V8.79712H6.90443V5.46848Z" fill="#06102D"/>
<path d="M10.4245 7.79853V3.80416H15.1629V5.13562H11.6091V6.46707H15.1629V10.4614H10.4245V9.12998H13.9783V7.79853H10.4245Z" fill="#06102D"/>
</svg>
