<svg width="32" height="34" viewBox="0 0 32 34" fill="none" xmlns="http://www.w3.org/2000/svg">
<path d="M12.2962 9.10156H19.7036C20.2883 9.10156 20.7618 9.57229 20.7618 10.1535V12.1915C20.7618 12.7727 20.2883 13.2434 19.7036 13.2434H12.2962C11.7116 13.2434 11.238 12.7727 11.238 12.1915V10.1535C11.238 9.57229 11.7116 9.10156 12.2962 9.10156V9.10156Z" stroke="#06102D" stroke-width="2" stroke-linecap="round" stroke-linejoin="round"/>
<path d="M10.2302 12.3545C9.06086 12.3545 8.11377 13.2959 8.11377 14.4583V20.604C8.11377 21.7664 9.06086 22.7078 10.2302 22.7078H21.7699C22.9392 22.7078 23.8863 21.7664 23.8863 20.604V14.4583C23.8863 13.2959 22.9392 12.3545 21.7699 12.3545H10.2302ZM12.8439 16.399H14.5953C14.7408 16.399 14.8598 16.2807 14.8598 16.1361V14.3952C14.8598 14.2505 14.9788 14.1322 15.1244 14.1322H16.8757C17.0212 14.1322 17.1402 14.2505 17.1402 14.3952V16.1361C17.1402 16.2807 17.2593 16.399 17.4048 16.399H19.1561C19.3016 16.399 19.4206 16.5174 19.4206 16.662V18.4029C19.4206 18.5475 19.3016 18.6659 19.1561 18.6659H17.4048C17.2593 18.6659 17.1402 18.7842 17.1402 18.9289V20.6698C17.1402 20.8144 17.0212 20.9327 16.8757 20.9327H15.1244C14.9788 20.9327 14.8598 20.8144 14.8598 20.6698V18.9289C14.8598 18.7842 14.7408 18.6659 14.5953 18.6659H12.8439C12.6984 18.6659 12.5794 18.5475 12.5794 18.4029V16.662C12.5794 16.5174 12.6984 16.399 12.8439 16.399Z" fill="#06102D"/>
</svg>
