<svg width="36" height="38" viewBox="0 0 36 38" fill="none" xmlns="http://www.w3.org/2000/svg">
<path fill-rule="evenodd" clip-rule="evenodd" d="M15.9091 11.0453C15.9243 11.0628 15.9392 11.0805 15.9539 11.0982H19.8294L19.8347 11.0923C20.7603 10.0343 22.5192 9.72859 23.7573 10.4105C23.8555 10.4634 23.9448 10.5222 24.0311 10.5839V10.5809L24.0907 10.5721L26.623 18.2105C26.8772 18.614 27.0251 19.0654 27.06 19.5286L27.1026 19.657L27.067 19.6632C27.0857 20.3275 26.8728 21.009 26.4091 21.6026C25.2871 23.0427 23.1144 23.4219 21.5609 22.4461C20.9211 22.0442 20.4852 21.4759 20.2724 20.8457L20.2633 20.8473C20.2412 20.8512 20.2157 20.7408 20.1879 20.5412C20.1459 20.3491 20.1238 20.1531 20.1222 19.9558C20.0278 18.977 19.9183 17.3324 19.8224 15.742H16.0188L15.9013 19.302C16.0056 19.778 15.9877 20.2642 15.8544 20.7216L15.8496 20.8679L15.8099 20.861C15.5944 21.481 15.1622 22.0392 14.5311 22.4344C12.9775 23.4102 10.8049 23.031 9.68289 21.5909C9.22731 21.0061 9.01412 20.3356 9.02559 19.6802L9.01031 19.6775C8.98684 19.6735 9.00435 19.5473 9.05364 19.3275C9.08115 19.134 9.12848 18.9436 9.19514 18.7589C9.80791 16.439 11.6532 10.528 11.6532 10.528L11.7127 10.5369C11.796 10.4751 11.8883 10.4163 11.9865 10.3634C13.2246 9.68156 14.9805 9.98723 15.9091 11.0453ZM12.5459 22.4011C13.9266 22.4011 15.0459 21.5057 15.0459 20.4011C15.0459 19.2966 13.9266 18.4011 12.5459 18.4011C11.1652 18.4011 10.0459 19.2966 10.0459 20.4011C10.0459 21.5057 11.1652 22.4011 12.5459 22.4011ZM23.5 22.45C24.8807 22.45 26 21.5545 26 20.45C26 19.3454 24.8807 18.45 23.5 18.45C22.1193 18.45 21 19.3454 21 20.45C21 21.5545 22.1193 22.45 23.5 22.45Z" fill="#06102D"/>
</svg>
