<svg width="27" height="28" viewBox="0 0 27 28" fill="none" xmlns="http://www.w3.org/2000/svg">
<path d="M10.971 5.375H11.4375L11.7969 5.94241L12.1674 5.375H12.6072L12.0201 6.22394L12.6585 7.15085H12.1786L11.7791 6.5358L11.3706 7.15085H10.9197L11.5581 6.22178L10.9688 5.37717L10.971 5.375ZM13.3929 5.375H13.8594L14.2188 5.94241L14.5893 5.375H15.0291L14.442 6.22394L15.0804 7.15085H14.6005L14.2009 6.5358L13.7924 7.15085H13.3416L13.9799 6.22178L13.3907 5.37717L13.3929 5.375ZM16.5268 5.375H16.9933L17.3527 5.94241L17.7232 5.375H18.163L17.5759 6.22394L18.2143 7.15085H17.7344L17.3349 6.5358L16.9264 7.15085H16.4755L17.1139 6.22178L16.5246 5.37717L16.5268 5.375Z" fill="#06102D"/>
<path d="M6.47768 17.5615C6.49554 17.633 6.52455 17.6958 6.5625 17.7521C6.60268 17.8084 6.65402 17.8539 6.71652 17.8885C6.77902 17.9232 6.85714 17.9405 6.94643 17.9405C7.03571 17.9405 7.11384 17.9232 7.17634 17.8885C7.23884 17.8539 7.29018 17.8084 7.33036 17.7521C7.37054 17.6958 7.39732 17.633 7.41518 17.5615C7.43304 17.4901 7.44196 17.4186 7.44196 17.345C7.44196 17.2713 7.43304 17.1912 7.41518 17.1197C7.39732 17.0461 7.3683 16.9811 7.33036 16.9248C7.29018 16.8685 7.23884 16.823 7.17634 16.7884C7.11384 16.7537 7.03571 16.7364 6.94643 16.7364C6.85714 16.7364 6.77902 16.7537 6.71652 16.7884C6.65402 16.823 6.60268 16.8685 6.5625 16.9248C6.52232 16.9811 6.49554 17.0461 6.47768 17.1197C6.45982 17.1934 6.45089 17.2692 6.45089 17.345C6.45089 17.4208 6.45982 17.4922 6.47768 17.5615ZM6.10938 16.9746C6.14955 16.862 6.20982 16.7624 6.28571 16.6779C6.36161 16.5935 6.45759 16.5263 6.5692 16.4787C6.6808 16.431 6.80804 16.4072 6.94643 16.4072C7.08482 16.4072 7.21429 16.431 7.32589 16.4787C7.4375 16.5263 7.53125 16.5935 7.60714 16.6779C7.68304 16.7624 7.7433 16.862 7.78348 16.9746C7.82366 17.0872 7.84598 17.2107 7.84598 17.3428C7.84598 17.4749 7.82589 17.5918 7.78348 17.7045C7.7433 17.8171 7.68304 17.9145 7.60714 17.9968C7.53125 18.0791 7.43527 18.1441 7.32589 18.1917C7.21429 18.2394 7.08929 18.2632 6.94643 18.2632C6.80357 18.2632 6.6808 18.2394 6.5692 18.1917C6.45759 18.1441 6.36384 18.0791 6.28571 17.9968C6.20982 17.9145 6.14955 17.8171 6.10938 17.7045C6.0692 17.5918 6.04688 17.4727 6.04688 17.3428C6.04688 17.2129 6.06696 17.0872 6.10938 16.9746ZM9.89509 17.5615C9.91295 17.633 9.94196 17.6958 9.97991 17.7521C10.0201 17.8084 10.0714 17.8539 10.1339 17.8885C10.1964 17.9232 10.2746 17.9405 10.3638 17.9405C10.4531 17.9405 10.5312 17.9232 10.5938 17.8885C10.6562 17.8539 10.7076 17.8084 10.7478 17.7521C10.7879 17.6958 10.8147 17.633 10.8326 17.5615C10.8504 17.4901 10.8594 17.4186 10.8594 17.345C10.8594 17.2713 10.8504 17.1912 10.8326 17.1197C10.8147 17.0461 10.7857 16.9811 10.7478 16.9248C10.7076 16.8685 10.6562 16.823 10.5938 16.7884C10.5312 16.7537 10.4531 16.7364 10.3638 16.7364C10.2746 16.7364 10.1964 16.7537 10.1339 16.7884C10.0714 16.823 10.0201 16.8685 9.97991 16.9248C9.93973 16.9811 9.91295 17.0461 9.89509 17.1197C9.87723 17.1934 9.8683 17.2692 9.8683 17.345C9.8683 17.4208 9.87723 17.4922 9.89509 17.5615ZM9.52679 16.9746C9.56696 16.862 9.62723 16.7624 9.70313 16.6779C9.77902 16.5935 9.875 16.5263 9.98661 16.4787C10.0982 16.431 10.2254 16.4072 10.3638 16.4072C10.5022 16.4072 10.6317 16.431 10.7433 16.4787C10.8549 16.5263 10.9487 16.5935 11.0246 16.6779C11.1004 16.7624 11.1607 16.862 11.2009 16.9746C11.2411 17.0872 11.2634 17.2107 11.2634 17.3428C11.2634 17.4749 11.2433 17.5918 11.2009 17.7045C11.1607 17.8171 11.1004 17.9145 11.0246 17.9968C10.9487 18.0791 10.8527 18.1441 10.7433 18.1917C10.6317 18.2394 10.5067 18.2632 10.3638 18.2632C10.221 18.2632 10.0982 18.2394 9.98661 18.1917C9.875 18.1441 9.78125 18.0791 9.70313 17.9968C9.62723 17.9145 9.56696 17.8171 9.52679 17.7045C9.48661 17.5918 9.46429 17.4727 9.46429 17.3428C9.46429 17.2129 9.48438 17.0872 9.52679 16.9746ZM14.0246 17.5615C14.0424 17.633 14.0714 17.6958 14.1094 17.7521C14.1496 17.8084 14.2009 17.8539 14.2634 17.8885C14.3259 17.9232 14.404 17.9405 14.4933 17.9405C14.5826 17.9405 14.6607 17.9232 14.7232 17.8885C14.7857 17.8539 14.8371 17.8084 14.8772 17.7521C14.9174 17.6958 14.9442 17.633 14.9621 17.5615C14.9799 17.4901 14.9888 17.4186 14.9888 17.345C14.9888 17.2713 14.9799 17.1912 14.9621 17.1197C14.9442 17.0461 14.9152 16.9811 14.8772 16.9248C14.8371 16.8685 14.7857 16.823 14.7232 16.7884C14.6607 16.7537 14.5826 16.7364 14.4933 16.7364C14.404 16.7364 14.3259 16.7537 14.2634 16.7884C14.2009 16.823 14.1496 16.8685 14.1094 16.9248C14.0692 16.9811 14.0424 17.0461 14.0246 17.1197C14.0067 17.1934 13.9978 17.2692 13.9978 17.345C13.9978 17.4208 14.0067 17.4922 14.0246 17.5615ZM13.6563 16.9746C13.6964 16.862 13.7567 16.7624 13.8326 16.6779C13.9085 16.5935 14.0045 16.5263 14.1161 16.4787C14.2277 16.431 14.3549 16.4072 14.4933 16.4072C14.6317 16.4072 14.7612 16.431 14.8728 16.4787C14.9844 16.5263 15.0781 16.5935 15.154 16.6779C15.2299 16.7624 15.2902 16.862 15.3304 16.9746C15.3705 17.0872 15.3929 17.2107 15.3929 17.3428C15.3929 17.4749 15.3728 17.5918 15.3304 17.7045C15.2902 17.8171 15.2299 17.9145 15.154 17.9968C15.0781 18.0791 14.9821 18.1441 14.8728 18.1917C14.7612 18.2394 14.6362 18.2632 14.4933 18.2632C14.3504 18.2632 14.2277 18.2394 14.1161 18.1917C14.0045 18.1441 13.9107 18.0791 13.8326 17.9968C13.7567 17.9145 13.6964 17.8171 13.6563 17.7045C13.6161 17.5918 13.5938 17.4727 13.5938 17.3428C13.5938 17.2129 13.6138 17.0872 13.6563 16.9746ZM19.5804 17.5615C19.5982 17.633 19.6272 17.6958 19.6652 17.7521C19.7054 17.8084 19.7567 17.8539 19.8192 17.8885C19.8817 17.9232 19.9598 17.9405 20.0491 17.9405C20.1384 17.9405 20.2165 17.9232 20.279 17.8885C20.3415 17.8539 20.3929 17.8084 20.433 17.7521C20.4732 17.6958 20.5 17.633 20.5179 17.5615C20.5357 17.4901 20.5446 17.4186 20.5446 17.345C20.5446 17.2713 20.5357 17.1912 20.5179 17.1197C20.5 17.0461 20.471 16.9811 20.433 16.9248C20.3929 16.8685 20.3415 16.823 20.279 16.7884C20.2165 16.7537 20.1384 16.7364 20.0491 16.7364C19.9598 16.7364 19.8817 16.7537 19.8192 16.7884C19.7567 16.823 19.7054 16.8685 19.6652 16.9248C19.625 16.9811 19.5982 17.0461 19.5804 17.1197C19.5625 17.1934 19.5536 17.2692 19.5536 17.345C19.5536 17.4208 19.5625 17.4922 19.5804 17.5615ZM19.2121 16.9746C19.2522 16.862 19.3125 16.7624 19.3884 16.6779C19.4643 16.5935 19.5603 16.5263 19.6719 16.4787C19.7835 16.431 19.9107 16.4072 20.0491 16.4072C20.1875 16.4072 20.317 16.431 20.4286 16.4787C20.5402 16.5263 20.6339 16.5935 20.7098 16.6779C20.7857 16.7624 20.846 16.862 20.8862 16.9746C20.9263 17.0872 20.9487 17.2107 20.9487 17.3428C20.9487 17.4749 20.9286 17.5918 20.8862 17.7045C20.846 17.8171 20.7857 17.9145 20.7098 17.9968C20.6339 18.0791 20.5379 18.1441 20.4286 18.1917C20.317 18.2394 20.192 18.2632 20.0491 18.2632C19.9063 18.2632 19.7835 18.2394 19.6719 18.1917C19.5603 18.1441 19.4665 18.0791 19.3884 17.9968C19.3125 17.9145 19.2522 17.8171 19.2121 17.7045C19.1719 17.5918 19.1496 17.4727 19.1496 17.3428C19.1496 17.2129 19.1696 17.0872 19.2121 16.9746Z" fill="#06102D"/>
<path d="M16.3861 15.0708C16.404 15.1423 16.433 15.2051 16.4709 15.2614C16.5111 15.3177 16.5625 15.3632 16.625 15.3978C16.6875 15.4325 16.7656 15.4498 16.8549 15.4498C16.9442 15.4498 17.0223 15.4325 17.0848 15.3978C17.1473 15.3632 17.1986 15.3177 17.2388 15.2614C17.279 15.2051 17.3058 15.1423 17.3236 15.0708C17.3415 14.9993 17.3504 14.9279 17.3504 14.8542C17.3504 14.7806 17.3415 14.7005 17.3236 14.629C17.3058 14.5554 17.2768 14.4904 17.2388 14.4341C17.1986 14.3778 17.1473 14.3323 17.0848 14.2977C17.0223 14.263 16.9442 14.2457 16.8549 14.2457C16.7656 14.2457 16.6875 14.263 16.625 14.2977C16.5625 14.3323 16.5111 14.3778 16.4709 14.4341C16.4308 14.4904 16.404 14.5554 16.3861 14.629C16.3683 14.7026 16.3593 14.7784 16.3593 14.8542C16.3593 14.93 16.3683 15.0015 16.3861 15.0708ZM16.0178 14.4839C16.058 14.3713 16.1183 14.2717 16.1942 14.1872C16.2701 14.1028 16.366 14.0356 16.4776 13.988C16.5893 13.9403 16.7165 13.9165 16.8549 13.9165C16.9933 13.9165 17.1227 13.9403 17.2343 13.988C17.3459 14.0356 17.4397 14.1028 17.5156 14.1872C17.5915 14.2717 17.6518 14.3713 17.6919 14.4839C17.7321 14.5965 17.7544 14.72 17.7544 14.8521C17.7544 14.9842 17.7343 15.1011 17.6919 15.2137C17.6518 15.3264 17.5915 15.4238 17.5156 15.5061C17.4397 15.5884 17.3437 15.6534 17.2343 15.701C17.1227 15.7487 16.9977 15.7725 16.8549 15.7725C16.712 15.7725 16.5893 15.7487 16.4776 15.701C16.366 15.6534 16.2723 15.5884 16.1942 15.5061C16.1183 15.4238 16.058 15.3264 16.0178 15.2137C15.9776 15.1011 15.9553 14.982 15.9553 14.8521C15.9553 14.7221 15.9754 14.5965 16.0178 14.4839Z" fill="#06102D"/>
<path d="M15.2634 15.8419V13.8604" stroke="#06102D" stroke-width="0.72" stroke-linecap="round" stroke-linejoin="round"/>
<path d="M15.2634 12.6172L14.7834 13.8603H15.7455L15.2656 12.6172H15.2634Z" fill="#06102D"/>
<path d="M15.2634 12.6172L14.7834 13.8603H15.7455L15.2656 12.6172H15.2634Z" stroke="#06102D" stroke-width="0.72" stroke-miterlimit="10"/>
<path d="M12.8347 7.67529L21.5066 13.0895L17.5044 17.1934" stroke="#06102D" stroke-width="0.72" stroke-linecap="round" stroke-linejoin="round"/>
<path d="M16.625 18.0962L17.8549 17.5136L17.1562 16.8726L16.625 18.0962Z" fill="#06102D"/>
<path d="M16.625 18.0962L17.8549 17.5136L17.1562 16.8726L16.625 18.0962V18.0962Z" stroke="#06102D" stroke-width="0.72" stroke-miterlimit="10"/>
<path d="M4.65632 7.71436H5.12284L5.48221 8.28176L5.85275 7.71436H6.29248L5.70543 8.5633L6.34382 9.49021H5.86391L5.46436 8.87516L5.05587 9.49021H4.60498L5.24337 8.56113L4.65409 7.71652L4.65632 7.71436ZM8.5023 7.71436H8.96882L9.3282 8.28176L9.69873 7.71436H10.1385L9.55141 8.5633L10.1898 9.49021H9.70989L9.31034 8.87516L8.90186 9.49021H8.45096L9.08936 8.56113L8.50007 7.71652L8.5023 7.71436ZM10.9242 7.71436H11.3907L11.7501 8.28176L12.1206 7.71436H12.5603L11.9733 8.5633L12.6117 9.49021H12.1318L11.7322 8.87516L11.3237 9.49021H10.8728L11.5112 8.56113L10.9219 7.71652L10.9242 7.71436ZM18.3327 7.71436H18.7992L19.1586 8.28176L19.5291 7.71436H19.9688L19.3818 8.5633L20.0202 9.49021H19.5402L19.1407 8.87516L18.7322 9.49021H18.2813L18.9197 8.56113L18.3304 7.71652L18.3327 7.71436Z" fill="#06102D"/>
<path d="M13.3928 9.84961H13.8593L14.2187 10.417L14.5915 9.84961H15.0312L14.4442 10.6986L15.0826 11.6255H14.6026L14.2031 11.0104L13.7968 11.6255H13.3459L13.9821 10.6964L13.3928 9.84961Z" fill="#06102D"/>
<path d="M12.6116 10.2827V13.3753" stroke="#06102D" stroke-width="0.72" stroke-linecap="round" stroke-linejoin="round"/>
<path d="M12.6115 14.6181L13.0914 13.375H12.1294L12.6093 14.6181H12.6115Z" fill="#06102D"/>
<path d="M12.6115 14.6181L13.0914 13.375H12.1294L12.6093 14.6181H12.6115Z" stroke="#06102D" stroke-width="0.72" stroke-miterlimit="10"/>
<path d="M11.2343 19.8984C11.2521 19.9699 11.2811 20.0327 11.3191 20.089C11.3593 20.1453 11.4106 20.1908 11.4731 20.2255C11.5356 20.2601 11.6137 20.2774 11.703 20.2774C11.7923 20.2774 11.8704 20.2601 11.9329 20.2255C11.9954 20.1908 12.0468 20.1453 12.0869 20.089C12.1271 20.0327 12.1539 19.9699 12.1718 19.8984C12.1896 19.827 12.1986 19.7555 12.1986 19.6819C12.1986 19.6082 12.1896 19.5281 12.1718 19.4566C12.1539 19.383 12.1249 19.318 12.0869 19.2617C12.0468 19.2054 11.9954 19.1599 11.9329 19.1253C11.8704 19.0906 11.7923 19.0733 11.703 19.0733C11.6137 19.0733 11.5356 19.0906 11.4731 19.1253C11.4106 19.1599 11.3593 19.2054 11.3191 19.2617C11.2789 19.318 11.2521 19.383 11.2343 19.4566C11.2164 19.5303 11.2075 19.6061 11.2075 19.6819C11.2075 19.7577 11.2164 19.8291 11.2343 19.8984ZM10.866 19.3115C10.9061 19.1989 10.9664 19.0993 11.0423 19.0148C11.1182 18.9304 11.2142 18.8633 11.3258 18.8156C11.4374 18.768 11.5646 18.7441 11.703 18.7441C11.8414 18.7441 11.9709 18.768 12.0825 18.8156C12.1941 18.8633 12.2878 18.9304 12.3637 19.0148C12.4396 19.0993 12.4999 19.1989 12.5401 19.3115C12.5803 19.4242 12.6026 19.5476 12.6026 19.6797C12.6026 19.8118 12.5825 19.9288 12.5401 20.0414C12.4999 20.154 12.4396 20.2514 12.3637 20.3337C12.2878 20.416 12.1919 20.481 12.0825 20.5287C11.9709 20.5763 11.8459 20.6001 11.703 20.6001C11.5602 20.6001 11.4374 20.5763 11.3258 20.5287C11.2142 20.481 11.1204 20.416 11.0423 20.3337C10.9664 20.2514 10.9061 20.154 10.866 20.0414C10.8258 19.9288 10.8035 19.8097 10.8035 19.6797C10.8035 19.5498 10.8236 19.4242 10.866 19.3115ZM13.9396 19.8984C13.9575 19.9699 13.9865 20.0327 14.0244 20.089C14.0646 20.1453 14.116 20.1908 14.1785 20.2255C14.241 20.2601 14.3191 20.2774 14.4084 20.2774C14.4977 20.2774 14.5758 20.2601 14.6383 20.2255C14.7008 20.1908 14.7521 20.1453 14.7923 20.089C14.8325 20.0327 14.8593 19.9699 14.8771 19.8984C14.895 19.827 14.9039 19.7555 14.9039 19.6819C14.9039 19.6082 14.895 19.5281 14.8771 19.4566C14.8593 19.383 14.8303 19.318 14.7923 19.2617C14.7521 19.2054 14.7008 19.1599 14.6383 19.1253C14.5758 19.0906 14.4977 19.0733 14.4084 19.0733C14.3191 19.0733 14.241 19.0906 14.1785 19.1253C14.116 19.1599 14.0646 19.2054 14.0244 19.2617C13.9843 19.318 13.9575 19.383 13.9396 19.4566C13.9218 19.5303 13.9128 19.6061 13.9128 19.6819C13.9128 19.7577 13.9218 19.8291 13.9396 19.8984ZM13.5713 19.3115C13.6115 19.1989 13.6718 19.0993 13.7477 19.0148C13.8236 18.9304 13.9195 18.8633 14.0311 18.8156C14.1428 18.768 14.27 18.7441 14.4084 18.7441C14.5468 18.7441 14.6762 18.768 14.7878 18.8156C14.8994 18.8633 14.9932 18.9304 15.0691 19.0148C15.145 19.0993 15.2053 19.1989 15.2454 19.3115C15.2856 19.4242 15.3079 19.5476 15.3079 19.6797C15.3079 19.8118 15.2878 19.9288 15.2454 20.0414C15.2053 20.154 15.145 20.2514 15.0691 20.3337C14.9932 20.416 14.8972 20.481 14.7878 20.5287C14.6762 20.5763 14.5512 20.6001 14.4084 20.6001C14.2655 20.6001 14.1428 20.5763 14.0311 20.5287C13.9195 20.481 13.8258 20.416 13.7477 20.3337C13.6718 20.2514 13.6115 20.154 13.5713 20.0414C13.5311 19.9288 13.5088 19.8097 13.5088 19.6797C13.5088 19.5498 13.5289 19.4242 13.5713 19.3115ZM16.645 19.8984C16.6628 19.9699 16.6919 20.0327 16.7298 20.089C16.77 20.1453 16.8213 20.1908 16.8838 20.2255C16.9463 20.2601 17.0244 20.2774 17.1137 20.2774C17.203 20.2774 17.2811 20.2601 17.3436 20.2255C17.4061 20.1908 17.4575 20.1453 17.4977 20.089C17.5378 20.0327 17.5646 19.9699 17.5825 19.8984C17.6003 19.827 17.6093 19.7555 17.6093 19.6819C17.6093 19.6082 17.6003 19.5281 17.5825 19.4566C17.5646 19.383 17.5356 19.318 17.4977 19.2617C17.4575 19.2054 17.4061 19.1599 17.3436 19.1253C17.2811 19.0906 17.203 19.0733 17.1137 19.0733C17.0244 19.0733 16.9463 19.0906 16.8838 19.1253C16.8213 19.1599 16.77 19.2054 16.7298 19.2617C16.6896 19.318 16.6628 19.383 16.645 19.4566C16.6271 19.5303 16.6182 19.6061 16.6182 19.6819C16.6182 19.7577 16.6271 19.8291 16.645 19.8984ZM16.2767 19.3115C16.3169 19.1989 16.3771 19.0993 16.453 19.0148C16.5289 18.9304 16.6249 18.8633 16.7365 18.8156C16.8481 18.768 16.9753 18.7441 17.1137 18.7441C17.2521 18.7441 17.3816 18.768 17.4932 18.8156C17.6048 18.8633 17.6986 18.9304 17.7744 19.0148C17.8503 19.0993 17.9106 19.1989 17.9508 19.3115C17.991 19.4242 18.0133 19.5476 18.0133 19.6797C18.0133 19.8118 17.9932 19.9288 17.9508 20.0414C17.9106 20.154 17.8503 20.2514 17.7744 20.3337C17.6986 20.416 17.6026 20.481 17.4932 20.5287C17.3816 20.5763 17.2566 20.6001 17.1137 20.6001C16.9709 20.6001 16.8481 20.5763 16.7365 20.5287C16.6249 20.481 16.5311 20.416 16.453 20.3337C16.3771 20.2514 16.3169 20.154 16.2767 20.0414C16.2365 19.9288 16.2142 19.8097 16.2142 19.6797C16.2142 19.5498 16.2343 19.4242 16.2767 19.3115Z" fill="#06102D"/>
</svg>
