<svg width="20" height="22" viewBox="0 0 20 22" fill="none" xmlns="http://www.w3.org/2000/svg">
<path d="M3.22024 13.7612H16.7798L16.3075 19.7756H3.75992L3.22024 13.7612Z" fill="#06102D"/>
<path d="M6.55949 7.7217L5.54758 7.38757L3.18647 6.05104L5.95235 11.4222L3.25393 12.0849L2.81941 13.3148C2.92899 13.2164 3.07158 13.1612 3.22021 13.1612H16.7797C16.9283 13.1612 17.0709 13.2163 17.1805 13.3147L16.746 12.0849L14.0476 11.4222L16.6785 6.05104L14.3174 7.38757L13.3055 7.7217C13.3617 9.08267 13.1203 9.48114 12.5942 10.3495C12.5154 10.4796 12.4301 10.6203 12.3386 10.7762C11.0484 12.9676 8.95433 12.9676 7.66415 10.7762C7.52125 10.5337 7.38826 10.3283 7.2676 10.142C6.79254 9.40828 6.5085 8.9696 6.5623 7.7217H6.55949Z" fill="#06102D"/>
<path d="M0.892822 18.7676L2.62669 13.8602L3.1623 19.8293C3.19006 20.1386 3.44931 20.3756 3.7599 20.3756H16.3075C16.6207 20.3756 16.8812 20.1348 16.9057 19.8226L17.3737 13.8615L19.1071 18.7676L17.7579 20.4382L15.7341 21.1065H4.26584L2.24203 20.4382L0.892822 18.7676Z" fill="#06102D"/>
<path fill-rule="evenodd" clip-rule="evenodd" d="M3.87646 14.3612L4.30847 19.1756H15.7528L16.1308 14.3612H3.87646ZM10.5256 17.2891C10.8151 17.0023 10.8151 16.5373 10.5256 16.2505C10.2361 15.9637 9.76666 15.9637 9.47715 16.2505C9.18763 16.5373 9.18763 17.0023 9.47715 17.2891C9.76666 17.5759 10.2361 17.5759 10.5256 17.2891Z" fill="#06102D"/>
<path d="M10.5256 16.2505C10.8151 16.5373 10.8151 17.0023 10.5256 17.2891C10.2361 17.5759 9.76666 17.5759 9.47715 17.2891C9.18763 17.0023 9.18763 16.5373 9.47715 16.2505C9.76666 15.9637 10.2361 15.9637 10.5256 16.2505Z" fill="#06102D"/>
<path d="M9.28323 7.62705C9.69081 8.25355 9.34226 8.88284 8.9375 9.50934C8.52993 10.1358 7.9256 10.3948 7.51802 9.77107C7.11045 9.14457 6.9671 8.18394 7.37467 7.56023C7.78224 6.93373 8.87566 7.00334 9.28323 7.62984V7.62705Z" fill="#06102D"/>
<path d="M10.5284 7.62705C10.0871 8.25355 10.4638 8.88284 10.9051 9.50934C11.3464 10.1358 12.0041 10.3948 12.4454 9.77107C12.8867 9.14457 13.0413 8.18394 12.6 7.56023C12.1587 6.93373 10.9669 7.00334 10.5256 7.62984L10.5284 7.62705Z" fill="#06102D"/>
<path d="M3.79365 5.51645V4.71453L6.15476 3.91261L7.16667 0.571289H12.8333L13.7103 3.91261L16.2063 4.71453V5.51645L13.7778 6.58568H6.22222L3.79365 5.51645Z" fill="#06102D"/>
</svg>
