<svg width="14" height="14" viewBox="0 0 14 14" fill="none" xmlns="http://www.w3.org/2000/svg">
<path d="M1.28376 13.0768C1.12482 13.0768 0.993387 13.0253 0.889463 12.9224C0.78554 12.8195 0.733578 12.6893 0.733578 12.5319V11.6238H0V8.89949C0 8.74208 0.0519618 8.61192 0.155885 8.509C0.259809 8.40608 0.391241 8.35462 0.550183 8.35462H1.46716V2.72433C1.46716 1.94941 1.75447 1.30163 2.32911 0.780975C2.90375 0.260325 3.59453 0 4.40147 0C5.17172 0 5.82277 0.263352 6.35462 0.790057C6.88646 1.31676 7.15238 1.96152 7.15238 2.72433V10.3525C7.15238 10.8126 7.31133 11.2 7.62921 11.5149C7.94709 11.8297 8.33833 11.9871 8.80293 11.9871C9.30421 11.9871 9.73519 11.8327 10.0959 11.5239C10.4565 11.2152 10.6369 10.8247 10.6369 10.3525V4.72218H9.71991C9.56096 4.72218 9.42953 4.67072 9.32561 4.5678C9.22168 4.46488 9.16972 4.33472 9.16972 4.17731V1.45298H9.9033V0.544867C9.9033 0.387461 9.95526 0.257298 10.0592 0.154379C10.1631 0.0514597 10.2945 0 10.4535 0H11.9206C12.0796 0 12.211 0.0514597 12.3149 0.154379C12.4189 0.257298 12.4708 0.387461 12.4708 0.544867V1.45298H13.2044V4.17731C13.2044 4.33472 13.1524 4.46488 13.0485 4.5678C12.9446 4.67072 12.8132 4.72218 12.6542 4.72218H11.7372V10.3525C11.7372 11.1274 11.4499 11.7752 10.8753 12.2958C10.3007 12.8165 9.60987 13.0768 8.80293 13.0768C8.03268 13.0768 7.38163 12.8134 6.84978 12.2867C6.31794 11.76 6.05202 11.1153 6.05202 10.3525V2.72433C6.05202 2.26422 5.89308 1.87676 5.57519 1.56195C5.25731 1.24714 4.86607 1.08973 4.40147 1.08973C3.90019 1.08973 3.46921 1.24411 3.10854 1.55287C2.74786 1.86163 2.56752 2.25212 2.56752 2.72433V8.35462H3.48449C3.64344 8.35462 3.77487 8.40608 3.87879 8.509C3.98272 8.61192 4.03468 8.74208 4.03468 8.89949V11.6238H3.3011V12.5319C3.3011 12.6893 3.24914 12.8195 3.14521 12.9224C3.04129 13.0253 2.90986 13.0768 2.75092 13.0768H1.28376Z" fill="#06102D"/>
</svg>
