<svg width="24" height="5" viewBox="0 0 24 5" fill="none" xmlns="http://www.w3.org/2000/svg">
<path d="M0.960318 1.37273H0V0.754738H0.0873015C0.414682 0.754738 0.673859 0.694254 0.862103 0.575915C1.05035 0.457577 1.17039 0.265605 1.21949 0.00263031H1.94246V4.65728H0.960318V1.3701V1.37273ZM3.11558 4.65991C3.11558 4.45479 3.1374 4.26019 3.18105 4.08137C3.2247 3.90255 3.29018 3.73161 3.37748 3.56857C3.46478 3.40552 3.57664 3.24774 3.71305 3.09258C3.84673 2.93743 4.00223 2.77964 4.17956 2.62186L4.57515 2.26684C4.68428 2.1748 4.77158 2.08802 4.83705 2.00913C4.90253 1.93024 4.95436 1.85134 4.98983 1.77245C5.0253 1.69356 5.04985 1.60941 5.06076 1.51474C5.07168 1.42269 5.07713 1.3175 5.07713 1.19917C5.07713 0.812592 4.9189 0.620621 4.5997 0.620621C4.47693 0.620621 4.38145 0.644288 4.31052 0.691624C4.23958 0.738959 4.18502 0.804703 4.14683 0.888855C4.10863 0.973007 4.08408 1.06768 4.07316 1.17813C4.06225 1.28858 4.0568 1.40429 4.0568 1.52525H3.11558V1.34643C3.11558 0.912523 3.23562 0.578545 3.47569 0.347128C3.71577 0.11571 4.09499 0 4.61607 0C5.10714 0 5.46999 0.110449 5.70734 0.328718C5.94469 0.546987 6.062 0.862558 6.062 1.26754C6.062 1.41743 6.04836 1.55681 6.02108 1.68567C5.9938 1.81453 5.95015 1.93812 5.89286 2.05646C5.83284 2.1748 5.75645 2.29051 5.66096 2.40096C5.56548 2.51404 5.45089 2.62712 5.31448 2.74546L4.76885 3.23196C4.62426 3.35819 4.50967 3.48179 4.42783 3.60275C4.34598 3.72372 4.29415 3.82628 4.26959 3.91569H6.09201V4.65202H3.1183L3.11558 4.65991ZM9.39038 0.820482C9.19122 1.09135 9.01116 1.38325 8.85565 1.69356C8.70015 2.00387 8.56101 2.3247 8.4437 2.65342C8.32639 2.98213 8.22817 3.31611 8.15179 3.65535C8.0754 3.99459 8.01538 4.32857 7.97445 4.65728H6.9432C6.97867 4.3759 7.03323 4.08137 7.1069 3.77369C7.18056 3.46338 7.27604 3.15044 7.39608 2.82961C7.51612 2.50878 7.66344 2.18795 7.83532 1.86186C8.00719 1.5384 8.21181 1.2202 8.44916 0.909893H6.41667V0.0946711H9.39038V0.817852V0.820482ZM10.809 4.65991H9.90873V3.63431H10.809V4.65991ZM11.3328 1.55681C11.3547 1.25965 11.4174 0.994044 11.5184 0.765256C11.6193 0.533839 11.7693 0.352387 11.9712 0.21301C12.1731 0.0736333 12.4541 0.00525962 12.8142 0.00525962C13.1089 0.00525962 13.3544 0.0447066 13.5481 0.126229C13.7418 0.207751 13.8946 0.336608 14.0119 0.518061C14.1292 0.696883 14.2083 0.930931 14.2574 1.21757C14.3065 1.50422 14.3284 1.85397 14.3284 2.26684C14.3284 2.5903 14.3175 2.90324 14.2956 3.2004C14.2738 3.49756 14.2111 3.76317 14.1128 3.99196C14.0119 4.22338 13.8619 4.4022 13.66 4.53368C13.4581 4.66517 13.1771 4.73092 12.817 4.73092C12.5251 4.73092 12.2822 4.6941 12.0858 4.62047C11.8894 4.54683 11.7339 4.41798 11.6193 4.23915C11.5047 4.06033 11.4229 3.82628 11.3738 3.53964C11.3247 3.253 11.3028 2.90324 11.3028 2.49037C11.3028 2.16691 11.3137 1.85397 11.3356 1.55681H11.3328ZM12.3041 3.41341C12.3204 3.60012 12.3477 3.74739 12.3886 3.85258C12.4296 3.9604 12.4841 4.03403 12.5523 4.07348C12.6205 4.11293 12.7078 4.13133 12.8115 4.13133C12.9152 4.13133 13.0079 4.10504 13.0761 4.05507C13.1443 4.00511 13.1989 3.91832 13.2371 3.79735C13.2753 3.67639 13.3026 3.51597 13.3189 3.31348C13.3353 3.11099 13.3435 2.86117 13.3435 2.564V2.05646C13.3435 1.76193 13.3353 1.52262 13.3189 1.33591C13.3026 1.1492 13.2753 1.00193 13.2344 0.894114C13.1935 0.786295 13.1389 0.712662 13.0707 0.673216C13.0025 0.633769 12.9152 0.615361 12.8115 0.615361C12.7078 0.615361 12.6124 0.641659 12.5441 0.691624C12.4759 0.741589 12.4214 0.828371 12.3832 0.949339C12.345 1.07031 12.3177 1.23072 12.3013 1.43321C12.285 1.6357 12.2768 1.88553 12.2768 2.18269V2.69023C12.2768 2.98476 12.285 3.22407 12.3013 3.41078L12.3041 3.41341ZM15.717 4.65991H14.8167V3.63431H15.717V4.65991ZM16.2408 1.55681C16.2626 1.25965 16.3254 0.994044 16.4263 0.765256C16.5273 0.533839 16.6773 0.352387 16.8792 0.21301C17.0811 0.0736333 17.3621 0.00525962 17.7222 0.00525962C18.0169 0.00525962 18.2624 0.0447066 18.4561 0.126229C18.6498 0.207751 18.8026 0.336608 18.9199 0.518061C19.0372 0.696883 19.1163 0.930931 19.1654 1.21757C19.2145 1.50422 19.2364 1.85397 19.2364 2.26684C19.2364 2.5903 19.2254 2.90324 19.2036 3.2004C19.1818 3.49756 19.119 3.76317 19.0208 3.99196C18.9199 4.22338 18.7698 4.4022 18.568 4.53368C18.3661 4.66517 18.0851 4.73092 17.725 4.73092C17.433 4.73092 17.1902 4.6941 16.9938 4.62047C16.7974 4.54683 16.6419 4.41798 16.5273 4.23915C16.4127 4.06033 16.3309 3.82628 16.2817 3.53964C16.2326 3.253 16.2108 2.90324 16.2108 2.49037C16.2108 2.16691 16.2217 1.85397 16.2436 1.55681H16.2408ZM17.2121 3.41341C17.2284 3.60012 17.2557 3.74739 17.2966 3.85258C17.3376 3.9604 17.3921 4.03403 17.4603 4.07348C17.5285 4.11293 17.6158 4.13133 17.7195 4.13133C17.8232 4.13133 17.9159 4.10504 17.9841 4.05507C18.0523 4.00511 18.1069 3.91832 18.1451 3.79735C18.1833 3.67639 18.2106 3.51597 18.2269 3.31348C18.2433 3.11099 18.2515 2.86117 18.2515 2.564V2.05646C18.2515 1.76193 18.2433 1.52262 18.2269 1.33591C18.2106 1.1492 18.1833 1.00193 18.1424 0.894114C18.1014 0.786295 18.0469 0.712662 17.9787 0.673216C17.9105 0.633769 17.8232 0.615361 17.7195 0.615361C17.6158 0.615361 17.5203 0.641659 17.4521 0.691624C17.3839 0.741589 17.3294 0.828371 17.2912 0.949339C17.253 1.07031 17.2257 1.23072 17.2093 1.43321C17.193 1.6357 17.1848 1.88553 17.1848 2.18269V2.69023C17.1848 2.98476 17.193 3.22407 17.2093 3.41078L17.2121 3.41341ZM20.625 4.65991H19.7247V3.63431H20.625V4.65991ZM22.2346 1.37273H21.2743V0.754738H21.3616C21.689 0.754738 21.9482 0.694254 22.1364 0.575915C22.3247 0.457577 22.4447 0.265605 22.4938 0.00263031H23.2168V4.65728H22.2346V1.3701V1.37273Z" fill="#06102D"/>
</svg>
