<svg width="16" height="13" viewBox="0 0 16 13" fill="none" xmlns="http://www.w3.org/2000/svg">
<path fill-rule="evenodd" clip-rule="evenodd" d="M13.1457 0C14.2502 0 15.1457 0.895431 15.1457 2V10.631C15.1457 11.7356 14.2502 12.631 13.1457 12.631H2C0.895433 12.631 0 11.7356 0 10.631V2C0 0.895429 0.895431 0 2 0H13.1457ZM11.9584 1.5793C11.9584 2.01558 11.6012 2.36925 11.1607 2.36925C10.7202 2.36925 10.363 2.01558 10.363 1.5793C10.363 1.14302 10.7202 0.789339 11.1607 0.789339C11.6012 0.789339 11.9584 1.14302 11.9584 1.5793ZM13.5521 2.36823C13.9926 2.36823 14.3497 2.01456 14.3497 1.57828C14.3497 1.142 13.9926 0.78832 13.5521 0.78832C13.1115 0.78832 12.7544 1.142 12.7544 1.57828C12.7544 2.01456 13.1115 2.36823 13.5521 2.36823ZM9.56701 1.57675C9.56701 2.01303 9.20988 2.3667 8.76934 2.3667C8.32881 2.3667 7.97168 2.01303 7.97168 1.57675C7.97168 1.14047 8.32881 0.78679 8.76934 0.78679C9.20988 0.78679 9.56701 1.14047 9.56701 1.57675ZM1.79736 3.15431C1.24508 3.15431 0.797363 3.60203 0.797363 4.15431V10.8381C0.797363 11.3904 1.24508 11.8381 1.79736 11.8381H13.3488C13.901 11.8381 14.3488 11.3904 14.3488 10.8381V4.15431C14.3488 3.60203 13.901 3.15431 13.3488 3.15431H1.79736Z" fill="#06102D"/>
</svg>
