<svg width="32" height="34" viewBox="0 0 32 34" fill="none" xmlns="http://www.w3.org/2000/svg">
<path fill-rule="evenodd" clip-rule="evenodd" d="M8.6852 13.8036L7.95239 14.424L8.6852 14.8559V20.2646C8.6852 20.5118 8.88625 20.7117 9.13493 20.7117H22.9206C23.1693 20.7117 23.3704 20.5118 23.3704 20.2646V14.8448L24.1005 14.4134V14.4029L23.3704 13.7847V10.5056C23.3704 10.2584 23.1693 10.0586 22.9206 10.0586H18.9698L16.8175 8.23616C16.3677 7.85748 15.709 7.85748 15.2619 8.23616L13.1091 10.0586H9.13493C8.88625 10.0586 8.6852 10.2584 8.6852 10.5056V13.8036ZM9.79883 11.5711V11.9839V12.9911H11.947V11.9839H13.8491V10.5639H9.79883V11.5711ZM9.79883 14.548V14.6268V15.8892V15.968V17.2303V17.3092V18.6503H21.4364V17.3092V17.2303V15.8892H16.7089V14.6268H20.9972V13.2068H9.79883V14.548Z" fill="#06102D"/>
<path d="M24.0635 14.3376L16.0027 19.0974L24.0635 23.8573V14.335V14.3376Z" fill="#06102D"/>
<path d="M7.89941 14.3374L24.0634 23.8597H7.89941V14.3374Z" fill="#06102D"/>
</svg>
