<svg width="20" height="20" viewBox="0 0 20 20" fill="none" xmlns="http://www.w3.org/2000/svg">
<g clip-path="url(#clip0_16209_237358)">
<path d="M10.0001 1.66675C5.40008 1.66675 1.66675 5.40008 1.66675 10.0001C1.66675 14.6001 5.40008 18.3334 10.0001 18.3334C14.6001 18.3334 18.3334 14.6001 18.3334 10.0001C18.3334 5.40008 14.6001 1.66675 10.0001 1.66675ZM10.0001 5.00008C11.6084 5.00008 12.9167 6.30841 12.9167 7.91675C12.9167 9.52508 11.6084 10.8334 10.0001 10.8334C8.39175 10.8334 7.08341 9.52508 7.08341 7.91675C7.08341 6.30841 8.39175 5.00008 10.0001 5.00008ZM10.0001 16.6667C8.30842 16.6667 6.30842 15.9834 4.88341 14.2667C6.29175 13.1667 8.06675 12.5001 10.0001 12.5001C11.9334 12.5001 13.7084 13.1667 15.1167 14.2667C13.6917 15.9834 11.6917 16.6667 10.0001 16.6667Z" fill="black"/>
</g>
<defs>
<clipPath id="clip0_16209_237358">
<rect width="20" height="20" fill="white"/>
</clipPath>
</defs>
</svg>
