<svg width="17" height="15" viewBox="0 0 17 15" fill="none" xmlns="http://www.w3.org/2000/svg">
<path d="M5.91426 7H0.86163C0.36157 10.5 3.13531 15 8.86163 15C14.5879 15 17.3616 10.5 16.8616 7H11.9934V9.14123H13.3616L11.0616 11.5L8.86163 9.14123H10.1248V7H5.91426Z" fill="#06102D"/>
<path d="M11.8089 7L16.8616 7C16.8616 4.66667 14.5879 1.24981e-06 8.86157 7.94709e-07C3.13526 3.39609e-07 0.861572 4.66667 0.861572 7L5.9142 7L5.9142 5.05555L4.65105 5.05555L6.75631 2.72222L8.86157 5.05556L7.59842 5.05555L7.59842 7L11.8089 7Z" fill="#06102D"/>
</svg>
