<svg width="11" height="14" viewBox="0 0 11 14" fill="none" xmlns="http://www.w3.org/2000/svg">
<path d="M2.73281 11.025H8.26719V9.975H2.73281V11.025ZM2.73281 8.05H8.26719V7H2.73281V8.05ZM1.03125 14C0.75625 14 0.515625 13.895 0.309375 13.685C0.103125 13.475 0 13.23 0 12.95V1.05C0 0.77 0.103125 0.525 0.309375 0.315C0.515625 0.105 0.75625 0 1.03125 0H7.23594L11 3.8325V12.95C11 13.23 10.8969 13.475 10.6906 13.685C10.4844 13.895 10.2437 14 9.96875 14H1.03125ZM6.72031 4.305V1.05H1.03125V12.95H9.96875V4.305H6.72031ZM1.03125 1.05V4.305V1.05V12.95V1.05Z" fill="black"/>
</svg>
