<svg width="18" height="20" viewBox="0 0 18 20" fill="none" xmlns="http://www.w3.org/2000/svg">
<path d="M9.89782 0.14889L10.318 0.376286C10.4162 0.430428 10.5062 0.498105 10.5853 0.579318L11.0573 1.06659C11.131 1.1451 11.1964 1.23173 11.2428 1.32918L11.5511 1.93286C11.5647 1.95994 11.5784 1.9843 11.5947 2.01137L11.7857 2.31998C11.843 2.41473 11.8867 2.51489 11.9139 2.62317L12.2768 4.06335C12.3068 4.18516 12.3177 4.3124 12.3041 4.43963L12.1022 6.34813C12.0831 6.53221 12.124 6.719 12.2222 6.87601C12.3204 7.03303 12.3559 7.21982 12.3232 7.40119L12.2468 7.81808C12.2304 7.90742 12.2031 7.99675 12.1649 8.08067L11.8185 8.82783C11.7584 8.96048 11.6384 9.05793 11.4965 9.09042C11.3574 9.1229 11.2483 9.22848 11.2101 9.36654L10.8309 10.7309C10.7299 11.091 10.8254 11.4754 11.0791 11.7515L12.6342 13.4326C12.7269 13.5328 12.8388 13.614 12.9616 13.6735L15.9435 15.1056C16.2245 15.2409 16.4318 15.4873 16.5164 15.7823L17.1384 17.9426C17.3048 18.5165 16.9692 19.1175 16.3881 19.2799C16.2899 19.307 16.189 19.3205 16.088 19.3205H1.09127C0.488343 19.3205 0 18.836 0 18.2377C0 18.1104 0.0218253 17.9859 0.0654761 17.8695L0.886656 15.6253C0.984871 15.3573 1.18403 15.1381 1.4432 15.0162L4.02679 13.7953C4.17138 13.7277 4.2996 13.6275 4.40055 13.503L5.53819 12.1251C5.76463 11.8517 5.84102 11.4835 5.74281 11.1424L5.26811 9.49648C5.22445 9.34488 5.10169 9.23119 4.94618 9.1987C4.79067 9.16622 4.66245 9.05522 4.60789 8.90633L4.19048 7.77748C4.12773 7.60964 4.10863 7.42555 4.13591 7.24959L4.2314 6.59448C4.23958 6.53221 4.28596 6.48078 4.34598 6.46454C4.40327 6.44829 4.4442 6.39415 4.43874 6.3346L4.30779 4.64537C4.2996 4.53979 4.30779 4.43692 4.32961 4.33405L4.64608 2.88305C4.67882 2.72875 4.74702 2.58257 4.84251 2.45804L5.59276 1.47807C5.63095 1.42935 5.67188 1.38332 5.71825 1.34001L6.46032 0.655116C6.52034 0.598267 6.58854 0.54954 6.6622 0.506227L7.2815 0.154304C7.42882 0.0703843 7.59251 0.021657 7.76166 0.0135358L8.01538 0C8.04266 0 8.07267 0 8.09995 0L9.39583 0.0243639C9.57044 0.027071 9.74231 0.0730915 9.89509 0.157011L9.89782 0.14889Z" fill="#06102D"/>
</svg>
