<svg width="14" height="14" viewBox="0 0 14 14" fill="none" xmlns="http://www.w3.org/2000/svg">
<path d="M11.6504 7.17862C11.6786 6.97429 11.6928 6.76316 11.6928 6.5384C11.6928 6.32045 11.6786 6.10251 11.6433 5.89818L13.0786 4.82207C13.2058 4.72672 13.2412 4.54283 13.1634 4.40661L11.8059 2.14541C11.7211 1.99557 11.5443 1.9479 11.3888 1.99557L9.69897 2.64941C9.34546 2.3906 8.97073 2.17266 8.55359 2.0092L8.29906 0.279244C8.27078 0.115784 8.12937 0 7.95969 0H5.24471C5.07503 0 4.94069 0.115784 4.91241 0.279244L4.65788 2.0092C4.24074 2.17266 3.85894 2.39741 3.5125 2.64941L1.82271 1.99557C1.66717 1.94109 1.49041 1.99557 1.40557 2.14541L0.0551482 4.40661C-0.0296948 4.54964 -0.00141389 4.72672 0.139991 4.82207L1.57525 5.89818C1.5399 6.10251 1.51162 6.32726 1.51162 6.5384C1.51162 6.74954 1.52576 6.97429 1.56111 7.17862L0.125851 8.25473C-0.00141387 8.35008 -0.036765 8.53397 0.0410077 8.67019L1.3985 10.9314C1.48334 11.0812 1.6601 11.1289 1.81564 11.0812L3.50543 10.4274C3.85894 10.6862 4.23367 10.9041 4.65081 11.0676L4.90534 12.7976C4.94069 12.961 5.07503 13.0768 5.24471 13.0768H7.95969C8.12937 13.0768 8.27078 12.961 8.29199 12.7976L8.54652 11.0676C8.96366 10.9041 9.34546 10.6862 9.6919 10.4274L11.3817 11.0812C11.5372 11.1357 11.714 11.0812 11.7988 10.9314L13.1563 8.67019C13.2412 8.52035 13.2058 8.35008 13.0715 8.25473L11.6504 7.17862ZM6.6022 8.9903C5.20229 8.9903 4.05691 7.88695 4.05691 6.5384C4.05691 5.18986 5.20229 4.0865 6.6022 4.0865C8.00211 4.0865 9.14749 5.18986 9.14749 6.5384C9.14749 7.88695 8.00211 8.9903 6.6022 8.9903Z" fill="#06102D"/>
</svg>
