<svg width="32" height="34" viewBox="0 0 32 34" fill="none" xmlns="http://www.w3.org/2000/svg">
<path d="M22.9232 11.1451C22.1084 10.1984 21.082 9.40682 19.873 8.84669C15.3333 6.74289 9.93383 8.69416 7.81743 13.2094C7.25394 14.4112 6.9788 15.6735 6.96558 16.92L22.9232 11.1451V11.1451Z" stroke="#06102D" stroke-width="1.49" stroke-linecap="round" stroke-linejoin="round"/>
<path d="M22.1216 11.3238C21.4153 10.5796 20.5582 9.95104 19.5687 9.49347C15.3862 7.55534 10.4153 9.35409 8.46292 13.5117C7.99995 14.4952 7.75128 15.5235 7.69043 16.5465L22.119 11.3264L22.1216 11.3238Z" stroke="#06102D" stroke-width="0.74" stroke-linecap="round" stroke-linejoin="round"/>
<path d="M18.8042 11.9786C18.5846 11.8339 18.3518 11.7051 18.1084 11.592C15.41 10.3402 12.201 11.5026 10.9418 14.1849C10.828 14.4295 10.7328 14.6767 10.6587 14.9265L18.8042 11.9786Z" stroke="#06102D" stroke-width="0.74" stroke-linecap="round" stroke-linejoin="round"/>
<path fill-rule="evenodd" clip-rule="evenodd" d="M18.1084 11.592C18.3518 11.7051 18.5846 11.8339 18.8042 11.9786L10.6587 14.9265C10.7328 14.6767 10.828 14.4295 10.9418 14.1849C12.201 11.5026 15.41 10.3402 18.1084 11.592ZM16.7857 11.8156L16.5211 11.4763H16.5158L16.5317 11.905L16.127 12.0522L16.5423 12.1706L16.5582 12.5992L16.7989 12.2442L17.2143 12.3625L16.9497 12.0233L17.1904 11.6683L16.7857 11.8156ZM14.0451 11.5789L14.3096 11.9181L14.7144 11.7708L14.4736 12.1258L14.7382 12.4651L14.3228 12.3467L14.0821 12.7018L14.0662 12.2731L13.6509 12.1548L14.0556 12.0075L14.0398 11.5789H14.0451ZM12.3467 13.4225L12.0822 13.0833H12.0769L12.0927 13.5119L11.688 13.6592L12.1033 13.7775L12.1192 14.2062L12.3599 13.8511L12.7753 13.9695L12.5107 13.6302L12.7515 13.2752L12.3467 13.4225Z" fill="#06102D"/>
<path d="M5 17.63L24.8889 10.4351" stroke="#06102D" stroke-width="2" stroke-miterlimit="10" stroke-linecap="square"/>
<path d="M5.25391 18.3243L25.1401 11.1267" stroke="#06102D" stroke-width="0.5" stroke-miterlimit="10" stroke-linecap="square"/>
<path d="M7.71439 20.6225L8.35196 20.3911L8.33873 20.3543C8.29905 20.3648 8.2726 20.3675 8.25937 20.3596C8.24614 20.3543 8.2382 20.3438 8.23291 20.328L7.81228 19.1788L8.34402 18.9868C8.3599 18.9816 8.37577 18.9816 8.38635 18.9895C8.39958 18.9974 8.41281 19.0184 8.43132 19.0526L8.46836 19.0394L8.2673 18.4925L8.23027 18.5056C8.2382 18.5424 8.24085 18.5661 8.2382 18.5819C8.23291 18.595 8.22498 18.6055 8.20646 18.6134L6.68 19.1657C6.66413 19.1709 6.64826 19.1709 6.63767 19.163C6.62445 19.1551 6.61122 19.1341 6.5927 19.0999L6.55566 19.1131L6.75672 19.6601L6.79376 19.6469C6.78582 19.6101 6.78318 19.5864 6.78582 19.5706C6.79111 19.5575 6.79905 19.547 6.81757 19.5391L7.34931 19.3471L7.76995 20.4963C7.77524 20.5095 7.77524 20.5252 7.76995 20.5358C7.76466 20.5489 7.74349 20.5647 7.70381 20.5831L7.71704 20.6199L7.71439 20.6225ZM9.64032 19.5023L9.21969 18.3531C9.21439 18.3399 9.21439 18.3241 9.21969 18.3136C9.22498 18.3005 9.24614 18.2847 9.28582 18.2663L9.27259 18.2295L8.63503 18.4609L8.64826 18.4977C8.68794 18.4872 8.71439 18.4846 8.72762 18.4925C8.74085 18.4977 8.74879 18.5082 8.75408 18.524L9.27789 19.9546C9.28318 19.9677 9.28318 19.9835 9.27789 19.994C9.2726 20.0072 9.25143 20.023 9.21175 20.0414L9.22498 20.0782L10.8387 19.4944C10.8546 19.4891 10.8678 19.4865 10.8784 19.4918C10.889 19.497 10.9022 19.5128 10.9181 19.5444L10.9551 19.5312L10.7594 19L10.7223 19.0131C10.7303 19.05 10.7329 19.0736 10.7303 19.0894C10.725 19.1026 10.717 19.1131 10.6985 19.121L9.63503 19.5049L9.64032 19.5023ZM11.5028 18.2137L11.3731 17.8613L11.8414 17.6904C11.9287 17.6588 11.9948 17.6483 12.0451 17.6615C12.0953 17.6746 12.1297 17.7088 12.1535 17.7693C12.1774 17.835 12.1747 17.8902 12.1456 17.9323C12.1165 17.9744 12.0583 18.0138 11.971 18.0428L11.5028 18.2137ZM11.6218 18.5398L12.1774 18.3373C12.2752 18.3031 12.3546 18.2584 12.4181 18.2032C12.4816 18.148 12.5292 18.0901 12.5636 18.0244C12.598 17.9586 12.6139 17.8929 12.6165 17.8219C12.6165 17.7509 12.6059 17.6799 12.5821 17.6141C12.5583 17.5457 12.5213 17.4853 12.4737 17.4327C12.426 17.3801 12.3678 17.338 12.3017 17.3091C12.2356 17.2801 12.1588 17.2644 12.0742 17.2644C11.9895 17.2644 11.8996 17.2801 11.8017 17.317L10.6959 17.7167L10.7091 17.7535C10.7488 17.743 10.7752 17.7403 10.7885 17.7482C10.8017 17.7535 10.8096 17.764 10.8149 17.7798L11.3387 19.2104C11.344 19.2235 11.344 19.2393 11.3387 19.2498C11.3334 19.263 11.3123 19.2787 11.2726 19.2972L11.2858 19.334L11.9234 19.1026L11.9102 19.0657C11.8705 19.0763 11.844 19.0789 11.8308 19.071C11.8176 19.0657 11.8096 19.0552 11.8043 19.0394L11.6218 18.5398ZM12.9313 17.288C12.8996 17.3538 12.8969 17.4195 12.9207 17.4853C12.9446 17.551 12.9895 17.5983 13.0557 17.6299C13.1218 17.6615 13.1879 17.6641 13.2541 17.6404C13.3202 17.6167 13.3678 17.572 13.3996 17.5063C13.4313 17.4406 13.434 17.3748 13.4102 17.3091C13.3864 17.2433 13.3414 17.196 13.2752 17.1644C13.2091 17.1329 13.143 17.1302 13.0768 17.1539C13.0107 17.1776 12.9631 17.2223 12.9313 17.288ZM13.2541 18.1716C13.2223 18.2374 13.2197 18.3031 13.2435 18.3689C13.2673 18.4346 13.3123 18.4819 13.3758 18.5082C13.4419 18.5345 13.5054 18.5372 13.5715 18.5135C13.6377 18.4898 13.6853 18.4477 13.717 18.3846C13.7488 18.3215 13.7541 18.2584 13.7276 18.1927C13.7038 18.1269 13.6588 18.0796 13.5927 18.048C13.5266 18.0165 13.4604 18.0138 13.3943 18.0375C13.3282 18.0612 13.2805 18.1059 13.2488 18.1716H13.2541ZM14.6297 18.0217C14.6297 18.0217 14.6297 17.9954 14.6297 17.9718C14.6297 17.9481 14.6297 17.9165 14.6297 17.8771C14.6297 17.8376 14.6297 17.7877 14.6297 17.7246L15.3625 17.459C15.3625 17.459 15.3811 17.4853 15.4049 17.5089C15.426 17.5326 15.4498 17.5589 15.4737 17.5878C15.4975 17.6141 15.5186 17.6404 15.5398 17.6615C15.5583 17.6825 15.5689 17.6956 15.5715 17.6983C15.5795 17.7219 15.5636 17.7403 15.5266 17.7561L15.5398 17.7929L16.1483 17.572L16.135 17.5352C16.1165 17.5431 16.098 17.5405 16.0848 17.5352C16.0689 17.5273 16.0451 17.5063 16.016 17.4774C15.9551 17.4116 15.8864 17.338 15.8096 17.2538C15.7329 17.1697 15.6562 17.0855 15.5742 16.9961C15.4922 16.9093 15.4155 16.8226 15.3387 16.7384C15.262 16.6543 15.1932 16.578 15.135 16.5096C15.0742 16.4412 15.0266 16.386 14.9895 16.3439C14.9525 16.3019 14.9313 16.2782 14.9313 16.2756C14.926 16.2598 14.926 16.2466 14.9366 16.2388C14.9446 16.2309 14.9578 16.223 14.9737 16.2151L14.9604 16.1783L14.1535 16.4702L14.1668 16.507C14.1826 16.5044 14.1959 16.5017 14.2117 16.5017C14.2276 16.5017 14.2356 16.507 14.2408 16.5149C14.2408 16.5149 14.2408 16.5412 14.2408 16.5885C14.2408 16.6359 14.2408 16.6963 14.2408 16.77C14.2408 16.8436 14.2408 16.9278 14.2382 17.0224C14.2382 17.1171 14.2356 17.2144 14.2329 17.3117C14.2329 17.4116 14.2303 17.5089 14.2276 17.6036C14.2276 17.6983 14.2223 17.7877 14.2223 17.8639C14.2223 17.9428 14.2223 18.0059 14.2223 18.0585C14.2223 18.1085 14.2223 18.1401 14.2223 18.1532C14.2223 18.1821 14.217 18.2032 14.2091 18.2163C14.2012 18.2295 14.1879 18.2426 14.1668 18.2531L14.18 18.29L14.7276 18.0927L14.7144 18.0559C14.6906 18.0638 14.6747 18.0664 14.6668 18.0638C14.6588 18.0638 14.6509 18.0559 14.6483 18.0454C14.6483 18.0401 14.6483 18.0349 14.6456 18.0244L14.6297 18.0217ZM14.6139 17.4511L14.6218 16.6201L15.1879 17.2433L14.6139 17.4511ZM17.9842 16.9067L18.6033 16.6832L18.5901 16.6464C18.5504 16.6569 18.5239 16.6595 18.5107 16.6516C18.4975 16.6464 18.4895 16.6359 18.4842 16.6201L17.9604 15.1895C17.9551 15.1763 17.9551 15.1606 17.9604 15.15C17.9657 15.1369 17.9869 15.1211 18.0266 15.1027L18.0133 15.0659L17.1774 15.3683L17.1906 15.4051C17.2408 15.3894 17.2726 15.3999 17.2858 15.4341C17.2885 15.4446 17.2885 15.4735 17.2858 15.5208C17.2832 15.5682 17.2779 15.6287 17.2699 15.6997C17.262 15.7707 17.2541 15.8522 17.2435 15.939C17.2329 16.0257 17.225 16.1152 17.2197 16.2046C17.2091 16.1941 17.1879 16.173 17.1588 16.1441C17.1297 16.1125 17.0953 16.0783 17.0557 16.0363C17.016 15.9968 16.9763 15.9547 16.9313 15.91C16.889 15.8653 16.8493 15.8259 16.8123 15.7864C16.7752 15.7496 16.7461 15.7154 16.7223 15.6891C16.6985 15.6628 16.6853 15.6497 16.6853 15.6471C16.6721 15.6129 16.6906 15.584 16.7382 15.5655L16.725 15.5287L15.9181 15.8206L15.9313 15.8574C15.971 15.8469 15.9975 15.8443 16.0107 15.8522C16.0239 15.8574 16.0319 15.868 16.0371 15.8837L16.561 17.3143C16.5662 17.3275 16.5662 17.3433 16.561 17.3538C16.5557 17.3669 16.5345 17.3827 16.4948 17.4011L16.508 17.4379L17.053 17.2407L17.0398 17.2039C17.0001 17.2144 16.9737 17.217 16.9604 17.2091C16.9472 17.2039 16.9393 17.1934 16.934 17.1776L16.5133 16.0284H16.5186L17.5028 17.0329L17.6165 15.6418H17.6244L18.0371 16.7752C18.0424 16.7884 18.0424 16.8042 18.0371 16.8147C18.0319 16.8278 18.0107 16.8436 17.971 16.862L17.9842 16.8988V16.9067ZM19.5107 15.9863L19.3758 15.6181L19.9022 15.4288C20.0133 15.3894 20.098 15.3736 20.1509 15.3841C20.2065 15.3946 20.2461 15.4341 20.2699 15.5024C20.2938 15.5708 20.2885 15.626 20.2541 15.6707C20.2197 15.7154 20.1456 15.7575 20.0345 15.797L19.508 15.9863H19.5107ZM19.262 15.3052L19.1588 15.0238L19.5795 14.8713C19.6456 14.8476 19.7012 14.8292 19.7461 14.8161C19.7911 14.8029 19.8281 14.7977 19.8546 14.8003C19.8837 14.8003 19.9049 14.8108 19.9234 14.824C19.9393 14.8397 19.9551 14.8608 19.9657 14.8923C19.9763 14.9239 19.9816 14.9502 19.9763 14.9712C19.9737 14.9923 19.9604 15.0133 19.9393 15.0343C19.9181 15.0527 19.8864 15.0712 19.844 15.0922C19.8017 15.1132 19.7488 15.1316 19.6826 15.1553L19.262 15.3078V15.3052ZM19.1324 16.3887C19.1377 16.4018 19.1377 16.4176 19.1324 16.4281C19.1271 16.4412 19.1059 16.457 19.0662 16.4754L19.0795 16.5123L20.2726 16.081C20.3811 16.0415 20.471 15.9942 20.5424 15.9416C20.6139 15.889 20.6668 15.8311 20.7012 15.7733C20.7356 15.7128 20.7567 15.6523 20.7594 15.5892C20.762 15.5261 20.7541 15.463 20.7303 15.4025C20.6879 15.2868 20.6218 15.2132 20.5345 15.179C20.4446 15.1448 20.344 15.1316 20.2276 15.1395V15.1343C20.3043 15.0843 20.3625 15.0212 20.3969 14.9449C20.4313 14.8687 20.4313 14.7845 20.3969 14.6925C20.3705 14.6162 20.3308 14.5557 20.2832 14.5136C20.2356 14.4689 20.1774 14.44 20.1139 14.4242C20.0504 14.4085 19.9789 14.4058 19.9049 14.4137C19.8282 14.4216 19.7488 14.4426 19.6641 14.4742L18.4869 14.9002L18.5001 14.937C18.5398 14.9265 18.5662 14.9239 18.5795 14.9318C18.5927 14.937 18.6006 14.9476 18.6059 14.9633L19.1297 16.3939L19.1324 16.3887ZM22.3599 14.6583L22.1853 14.1797L22.1483 14.1928C22.1509 14.2139 22.1483 14.2349 22.1403 14.2533C22.1324 14.2717 22.1112 14.2849 22.0821 14.298L21.508 14.5058L21.4155 14.2507L22.4075 13.893C22.4234 13.8878 22.4393 13.8878 22.4498 13.8957C22.4631 13.9035 22.4763 13.9246 22.4948 13.9588L22.5319 13.9456L22.3361 13.4118L22.299 13.4249C22.307 13.4617 22.3096 13.4854 22.307 13.5012C22.3017 13.5143 22.2938 13.5249 22.2752 13.5327L20.7329 14.0903L20.7461 14.1271C20.7858 14.1166 20.8123 14.1139 20.8255 14.1218C20.8387 14.1271 20.8467 14.1376 20.852 14.1534L21.3758 15.584C21.3811 15.5971 21.3811 15.6129 21.3758 15.6234C21.3705 15.6365 21.3493 15.6523 21.3096 15.6707L21.3229 15.7075L22.8652 15.15C22.8811 15.1448 22.8943 15.1422 22.9049 15.1448C22.9155 15.1474 22.9287 15.1632 22.9419 15.1869L22.9789 15.1737L22.7858 14.6478L22.7488 14.6609C22.7594 14.7004 22.762 14.7293 22.7567 14.7424C22.7514 14.7556 22.7435 14.7661 22.725 14.774L21.7329 15.1316L21.6271 14.845L22.2012 14.6372C22.2329 14.6267 22.2567 14.6241 22.2752 14.632C22.2938 14.6399 22.3096 14.653 22.3202 14.6741L22.3573 14.6609L22.3599 14.6583ZM23.5901 13.8247L23.4657 13.488L23.9842 13.3013C24.0742 13.2698 24.143 13.2619 24.1906 13.2856C24.2382 13.3066 24.2673 13.3408 24.2858 13.3855C24.3017 13.4302 24.299 13.4749 24.2779 13.5222C24.2567 13.5696 24.2012 13.609 24.1086 13.6406L23.5901 13.8273V13.8247ZM23.7091 14.1507L24.0107 14.0403C24.0107 14.0403 24.0424 14.064 24.0715 14.085C24.1033 14.106 24.1377 14.1297 24.18 14.156C24.2223 14.1823 24.2647 14.2112 24.3096 14.2402C24.3546 14.2691 24.3943 14.298 24.4313 14.3217C24.4684 14.348 24.5001 14.369 24.5266 14.3874C24.553 14.4058 24.5662 14.4163 24.5662 14.4216C24.5795 14.4558 24.5636 14.4821 24.5186 14.5005L24.5319 14.5373L25.1747 14.3059L25.1615 14.2691C25.1271 14.2822 25.0901 14.2743 25.0504 14.2454L24.5001 13.8667C24.6139 13.7852 24.6985 13.6905 24.7541 13.5801C24.807 13.4696 24.8096 13.3434 24.7567 13.204C24.6932 13.0305 24.5953 12.92 24.4604 12.8753C24.3282 12.8306 24.1456 12.849 23.9181 12.9305L22.7885 13.3408L22.8017 13.3776C22.8414 13.3671 22.8678 13.3644 22.8811 13.3723C22.8943 13.3776 22.9022 13.3881 22.9075 13.4039L23.4313 14.8345C23.4366 14.8476 23.4366 14.8634 23.4313 14.8739C23.426 14.8871 23.4049 14.9028 23.3652 14.9213L23.3784 14.9581L24.016 14.7267L24.0028 14.6898C23.9631 14.7004 23.9366 14.703 23.9234 14.6951C23.9102 14.6898 23.9022 14.6793 23.8969 14.6635L23.7091 14.1481V14.1507Z" fill="#06102D"/>
<path d="M24.9127 16.5833C24.8995 17.8298 24.6244 19.092 24.0609 20.2938C21.9445 24.8065 16.545 26.7604 12.0053 24.6566C10.7963 24.0964 9.76989 23.3049 8.95508 22.3582L24.9127 16.5833V16.5833Z" stroke="#06102D" stroke-width="1.49" stroke-linecap="round" stroke-linejoin="round"/>
<path d="M24.1851 16.9595C24.1269 17.9824 23.8756 19.008 23.4126 19.9942C21.4629 24.1518 16.4894 25.9506 12.3068 24.0125C11.3174 23.5522 10.4603 22.9264 9.75391 22.1822L24.1825 16.9621L24.1851 16.9595Z" stroke="#06102D" stroke-width="0.74" stroke-linecap="round" stroke-linejoin="round"/>
<path d="M21.2197 18.5767C21.1456 18.8265 21.0504 19.0737 20.9367 19.3182C19.6774 22.0006 16.4684 23.1629 13.77 21.9112C13.524 21.7981 13.2938 21.6692 13.0742 21.5246L21.2197 18.5767V18.5767Z" stroke="#06102D" stroke-width="0.74" stroke-linecap="round" stroke-linejoin="round"/>
<path fill-rule="evenodd" clip-rule="evenodd" d="M20.9367 19.3182C21.0504 19.0737 21.1456 18.8265 21.2197 18.5767L13.0742 21.5246C13.2938 21.6692 13.524 21.7981 13.77 21.9112C16.4684 23.1629 19.6774 22.0006 20.9367 19.3182ZM19.7804 19.9914L19.7963 20.42H19.791L19.5265 20.0808L19.1217 20.228L19.3625 19.873L19.0979 19.5338L19.5132 19.6521L19.754 19.2971L19.7699 19.7258L20.1852 19.8441L19.7804 19.9914ZM17.8334 21.9244L17.8175 21.4958L18.2223 21.3485L17.807 21.2302L17.7911 20.8015L17.5504 21.1565L17.135 21.0382L17.3996 21.3774L17.1588 21.7324L17.5636 21.5852L17.8281 21.9244H17.8334ZM15.3412 21.5983L15.3571 22.027H15.3518L15.0873 21.6877L14.6825 21.835L14.9232 21.48L14.6587 21.1407L15.074 21.2591L15.3148 20.9041L15.3306 21.3327L15.746 21.451L15.3412 21.5983Z" fill="#06102D"/>
<path d="M6.89941 22.8212L26.7883 15.6262" stroke="#06102D" stroke-width="2" stroke-miterlimit="10" stroke-linecap="square"/>
<path d="M6.64551 22.1295L26.5344 14.9319" stroke="#06102D" stroke-width="0.5" stroke-miterlimit="10" stroke-linecap="square"/>
</svg>
