<svg width="19" height="19" viewBox="0 0 19 19" fill="none" xmlns="http://www.w3.org/2000/svg">
<path d="M4.11887 14.3745L10.646 11.187L13.8646 4.72294L7.33744 7.91041L4.11887 14.3745ZM9.003 10.4292C8.74791 10.4292 8.53409 10.3437 8.36154 10.1728C8.18898 10.002 8.1027 9.7902 8.1027 9.53758C8.1027 9.28496 8.18898 9.07321 8.36154 8.90232C8.53409 8.73143 8.74791 8.64598 9.003 8.64598C9.25808 8.64598 9.4719 8.73143 9.64446 8.90232C9.81702 9.07321 9.9033 9.28496 9.9033 9.53758C9.9033 9.7902 9.81702 10.002 9.64446 10.1728C9.4719 10.3437 9.25808 10.4292 9.003 10.4292ZM9.003 18.4536C7.77259 18.4536 6.6097 18.2195 5.51434 17.7514C4.41897 17.2834 3.4624 16.6444 2.64463 15.8345C1.82686 15.0246 1.18164 14.0773 0.708986 12.9925C0.236329 11.9078 0 10.7561 0 9.53758C0 8.3042 0.236329 7.14512 0.708986 6.06034C1.18164 4.97556 1.82686 4.03195 2.64463 3.22951C3.4624 2.42707 4.41897 1.79181 5.51434 1.32372C6.6097 0.855627 7.77259 0.621582 9.003 0.621582C10.2484 0.621582 11.4188 0.855627 12.5142 1.32372C13.6095 1.79181 14.5624 2.42707 15.3726 3.22951C16.1829 4.03195 16.8244 4.97556 17.297 6.06034C17.7697 7.14512 18.006 8.3042 18.006 9.53758C18.006 10.7561 17.7697 11.9078 17.297 12.9925C16.8244 14.0773 16.1829 15.0246 15.3726 15.8345C14.5624 16.6444 13.6095 17.2834 12.5142 17.7514C11.4188 18.2195 10.2484 18.4536 9.003 18.4536ZM9.003 17.1162C11.1337 17.1162 12.9418 16.3769 14.4273 14.8983C15.9128 13.4198 16.6555 11.6328 16.6555 9.53758C16.6555 7.42746 15.9128 5.63683 14.4273 4.16569C12.9418 2.69455 11.1337 1.95898 9.003 1.95898C6.88729 1.95898 5.08294 2.69455 3.58995 4.16569C2.09695 5.63683 1.35045 7.42746 1.35045 9.53758C1.35045 11.6328 2.09695 13.4198 3.58995 14.8983C5.08294 16.3769 6.88729 17.1162 9.003 17.1162Z" fill="#06102D"/>
</svg>
