<svg width="16" height="16" viewBox="0 0 16 16" fill="none" xmlns="http://www.w3.org/2000/svg">
<path d="M3.12104 9.18749H4.29143C4.35645 8.36326 4.69131 7.67425 5.29602 7.12047C5.90072 6.56669 6.62571 6.28979 7.47099 6.28979C8.01717 6.28979 8.57636 6.44434 9.14855 6.75343C9.72074 7.06251 10.1889 7.48751 10.553 8.02841H8.83644V9.18749H12.4842V5.57503H11.3138V7.23638C10.8326 6.54093 10.2409 6.01612 9.53868 5.66196C8.83644 5.3078 8.14721 5.13071 7.47099 5.13071C6.2876 5.13071 5.28301 5.52351 4.45724 6.30911C3.63146 7.09471 3.18606 8.05417 3.12104 9.18749ZM7.8026 15.4852C6.73624 15.4852 5.72841 15.2823 4.77909 14.8766C3.82978 14.471 3.00075 13.9172 2.29201 13.2153C1.58328 12.5134 1.02409 11.6924 0.614455 10.7523C0.204818 9.81211 0 8.81401 0 7.75796C0 6.68903 0.204818 5.6845 0.614455 4.74435C1.02409 3.80421 1.58328 2.98642 2.29201 2.29097C3.00075 1.59552 3.82978 1.04496 4.77909 0.639279C5.72841 0.233601 6.73624 0.0307617 7.8026 0.0307617C8.88196 0.0307617 9.8963 0.233601 10.8456 0.639279C11.7949 1.04496 12.6207 1.59552 13.3229 2.29097C14.0252 2.98642 14.5811 3.80421 14.9907 4.74435C15.4004 5.6845 15.6052 6.68903 15.6052 7.75796C15.6052 8.81401 15.4004 9.81211 14.9907 10.7523C14.5811 11.6924 14.0252 12.5134 13.3229 13.2153C12.6207 13.9172 11.7949 14.471 10.8456 14.8766C9.8963 15.2823 8.88196 15.4852 7.8026 15.4852ZM7.8026 14.3261C9.64922 14.3261 11.2162 13.6854 12.5037 12.4039C13.7911 11.1225 14.4348 9.57385 14.4348 7.75796C14.4348 5.92919 13.7911 4.37731 12.5037 3.10232C11.2162 1.82734 9.64922 1.18984 7.8026 1.18984C5.96899 1.18984 4.40522 1.82734 3.11129 3.10232C1.81736 4.37731 1.17039 5.92919 1.17039 7.75796C1.17039 9.57385 1.81736 11.1225 3.11129 12.4039C4.40522 13.6854 5.96899 14.3261 7.8026 14.3261Z" fill="#06102D"/>
</svg>
