<svg width="14" height="16" viewBox="0 0 14 16" fill="none" xmlns="http://www.w3.org/2000/svg">
<path fill-rule="evenodd" clip-rule="evenodd" d="M1 0C0.447715 0 0 0.447715 0 1V15C0 15.5523 0.447715 16 1 16H12.0909C12.6432 16 13.0909 15.5523 13.0909 15V1C13.0909 0.447715 12.6432 0 12.0909 0H1ZM2.45455 1.45455C1.90226 1.45455 1.45455 1.90226 1.45455 2.45454V12.8182C1.45455 13.3705 1.90226 13.8182 2.45454 13.8182H10.6364C11.1886 13.8182 11.6364 13.3705 11.6364 12.8182V2.45455C11.6364 1.90226 11.1886 1.45455 10.6364 1.45455H2.45455Z" fill="#06102D"/>
</svg>
