<svg width="20" height="20" viewBox="0 0 20 20" fill="none" xmlns="http://www.w3.org/2000/svg">
<path d="M17.8417 9.64984L10.3417 2.14984C10.0417 1.84984 9.62508 1.6665 9.16675 1.6665H3.33341C2.41675 1.6665 1.66675 2.4165 1.66675 3.33317V9.1665C1.66675 9.62484 1.85008 10.0415 2.15841 10.3498L9.65842 17.8498C9.95842 18.1498 10.3751 18.3332 10.8334 18.3332C11.2917 18.3332 11.7084 18.1498 12.0084 17.8415L17.8417 12.0082C18.1501 11.7082 18.3334 11.2915 18.3334 10.8332C18.3334 10.3748 18.1417 9.94984 17.8417 9.64984ZM4.58341 5.83317C3.89175 5.83317 3.33341 5.27484 3.33341 4.58317C3.33341 3.8915 3.89175 3.33317 4.58341 3.33317C5.27508 3.33317 5.83341 3.8915 5.83341 4.58317C5.83341 5.27484 5.27508 5.83317 4.58341 5.83317Z" fill="#06102D"/>
</svg>
