<svg width="16" height="20" viewBox="0 0 16 20" fill="none" xmlns="http://www.w3.org/2000/svg">
<path d="M7.8026 11.8046C8.40405 11.8046 8.9161 11.6026 9.33874 11.1984C9.76138 10.7942 9.9727 10.2909 9.9727 9.68858C9.9727 9.10211 9.76138 8.60281 9.33874 8.1907C8.9161 7.77858 8.40405 7.57252 7.8026 7.57252C7.20115 7.57252 6.6891 7.77858 6.26646 8.1907C5.84382 8.60281 5.6325 9.10211 5.6325 9.68858C5.6325 10.2909 5.84382 10.7942 6.26646 11.1984C6.6891 11.6026 7.20115 11.8046 7.8026 11.8046ZM7.8026 17.7962C8.5666 17.5426 9.34686 17.1424 10.1434 16.5955C10.9399 16.0487 11.582 15.4265 12.0696 14.7291L9.8264 12.6368C9.51755 12.8112 9.19244 12.9538 8.85107 13.0648C8.50971 13.1757 8.16022 13.2312 7.8026 13.2312C6.79476 13.2312 5.93729 12.8904 5.23018 12.2088C4.52307 11.5273 4.16951 10.6872 4.16951 9.68858C4.16951 8.70584 4.52307 7.86972 5.23018 7.18022C5.93729 6.49071 6.79476 6.14596 7.8026 6.14596C8.81044 6.14596 9.66791 6.49071 10.375 7.18022C11.0821 7.86972 11.4357 8.71377 11.4357 9.71236C11.4357 10.0452 11.3869 10.3781 11.2894 10.711C11.1919 11.0438 11.0374 11.345 10.8261 11.6144L12.8743 13.5165C13.2644 12.8349 13.5733 12.086 13.8008 11.2697C14.0284 10.4534 14.1422 9.61726 14.1422 8.76132V4.05367L7.8026 1.79495L1.46299 4.05367V8.76132C1.46299 10.8378 2.05225 12.7121 3.23076 14.3843C4.40928 16.0566 5.93323 17.1939 7.8026 17.7962ZM7.8026 19.2703C5.52684 18.7155 3.65747 17.4277 2.19448 15.4067C0.731494 13.3858 0 11.1706 0 8.76132V3.10263L7.8026 0.249512L15.6052 3.10263V8.76132C15.6052 11.1706 14.8737 13.3858 13.4107 15.4067C11.9477 17.4277 10.0784 18.7155 7.8026 19.2703Z" fill="#06102D"/>
</svg>
