<svg width="28" height="23" viewBox="0 0 28 23" fill="none" xmlns="http://www.w3.org/2000/svg">
<path d="M17.6092 10.5887L21.3622 6.78495M12.5289 9.72299L10.5378 5.99463M5.93066 18.326L11.0378 15.3849M18.4545 14.3955L21.3622 14.857M17.0229 11.0324C18.3027 12.3295 18.3027 14.4289 17.0229 15.726C15.7431 17.0231 13.6717 17.0231 12.392 15.726C11.1122 14.4289 11.1122 12.3295 12.392 11.0324C13.6717 9.7353 15.7431 9.7353 17.0229 11.0324ZM10.383 1.66287C11.2551 2.5467 11.2551 3.97952 10.383 4.86335C9.51102 5.74718 8.09733 5.74718 7.22531 4.86335C6.35328 3.97952 6.35328 2.5467 7.22531 1.66287C8.09733 0.779043 9.51102 0.779043 10.383 1.66287ZM25.1719 2.9241C26.0439 3.80793 26.0439 5.24075 25.1719 6.12458C24.2998 7.00841 22.8861 7.00841 22.0141 6.12458C21.1421 5.24075 21.1421 3.80793 22.0141 2.9241C22.8861 2.04027 24.2998 2.04027 25.1719 2.9241ZM26.0171 14.0032C26.8891 14.887 26.8891 16.3199 26.0171 17.2037C25.1451 18.0875 23.7314 18.0875 22.8593 17.2037C21.9873 16.3199 21.9873 14.887 22.8593 14.0032C23.7314 13.1194 25.1451 13.1194 26.0171 14.0032ZM4.81176 17.9519C5.68378 18.8358 5.68378 20.2686 4.81176 21.1524C3.93973 22.0362 2.52604 22.0362 1.65402 21.1524C0.781994 20.2686 0.781994 18.8358 1.65402 17.9519C2.52604 17.0681 3.93973 17.0681 4.81176 17.9519Z" stroke="#06102D" stroke-linecap="square"/>
</svg>
