<svg width="16" height="12" viewBox="0 0 16 12" fill="none" xmlns="http://www.w3.org/2000/svg">
<path d="M1.17039 11.888C0.858286 11.888 0.585195 11.7766 0.351117 11.5537C0.117039 11.3308 0 11.0707 0 10.7735V1.1145C0 0.8173 0.117039 0.55725 0.351117 0.33435C0.585195 0.11145 0.858286 0 1.17039 0H14.4348C14.7469 0 15.02 0.11145 15.2541 0.33435C15.4882 0.55725 15.6052 0.8173 15.6052 1.1145V10.7735C15.6052 11.0707 15.4882 11.3308 15.2541 11.5537C15.02 11.7766 14.7469 11.888 14.4348 11.888H1.17039ZM7.8026 6.27835L1.17039 2.13613V10.7735H14.4348V2.13613L7.8026 6.27835ZM7.8026 5.16385L14.3568 1.1145H1.26792L7.8026 5.16385ZM1.17039 2.13613V1.1145V10.7735V2.13613Z" fill="#06102D"/>
</svg>
