<svg width="14" height="15" viewBox="0 0 14 15" fill="none" xmlns="http://www.w3.org/2000/svg">
<path d="M7.49835 0.114858L7.81663 0.290278C7.89104 0.332045 7.95924 0.384253 8.01918 0.446903L8.37674 0.822802C8.43254 0.883363 8.48214 0.950189 8.51728 1.02537L8.75083 1.49107C8.76116 1.51195 8.77149 1.53075 8.7839 1.55163L8.92857 1.7897C8.97197 1.86279 9.00504 1.94006 9.02571 2.02359L9.3006 3.13458C9.32333 3.22856 9.3316 3.32671 9.32126 3.42486L9.16832 4.89713C9.15385 5.03914 9.18485 5.18323 9.25926 5.30435C9.33366 5.42548 9.36053 5.56957 9.33573 5.70949L9.27786 6.03109C9.26546 6.10001 9.24479 6.16892 9.21586 6.23366L8.95337 6.81004C8.9079 6.91237 8.81696 6.98755 8.70949 7.01261C8.60408 7.03767 8.52141 7.11911 8.49248 7.22562L8.20519 8.27813C8.12872 8.55588 8.20106 8.85243 8.39327 9.06544L9.57135 10.3623C9.64162 10.4396 9.72635 10.5022 9.81936 10.5481L12.0784 11.6529C12.2913 11.7573 12.4483 11.9473 12.5124 12.175L12.9836 13.8414C13.1097 14.2842 12.8555 14.7478 12.4153 14.8731C12.3409 14.894 12.2644 14.9044 12.1879 14.9044H0.826719C0.369957 14.9044 0 14.5306 0 14.0691C0 13.9709 0.0165343 13.8749 0.0496031 13.7851L0.671709 12.0538C0.746114 11.8471 0.896991 11.6779 1.09334 11.584L3.0506 10.6421C3.16014 10.5899 3.25727 10.5126 3.33375 10.4166L4.1956 9.35362C4.36715 9.1427 4.42502 8.85869 4.35061 8.59556L3.99099 7.32586C3.95792 7.20891 3.86491 7.1212 3.74711 7.09614C3.6293 7.07108 3.53216 6.98546 3.49082 6.8706L3.1746 5.99977C3.12707 5.87029 3.1126 5.72829 3.13327 5.59254L3.20561 5.08717C3.21181 5.03914 3.24694 4.99946 3.29241 4.98693C3.33581 4.9744 3.36682 4.93263 3.36268 4.88669L3.26348 3.58357C3.25727 3.50213 3.26348 3.42277 3.28001 3.34341L3.51976 2.22407C3.54456 2.10504 3.59623 1.99227 3.66857 1.8962L4.23694 1.14023C4.26587 1.10264 4.29688 1.06714 4.33201 1.03372L4.89418 0.505376C4.93965 0.461521 4.99132 0.423931 5.04712 0.390518L5.51629 0.119035C5.62789 0.0542965 5.7519 0.0167069 5.88004 0.0104419L6.07226 0C6.09292 0 6.11566 0 6.13633 0L7.11806 0.018795C7.25033 0.0208833 7.38054 0.0563849 7.49628 0.121123L7.49835 0.114858Z" fill="#06102D"/>
</svg>
