<svg width="30" height="32" viewBox="0 0 30 32" fill="none" xmlns="http://www.w3.org/2000/svg">
<path fill-rule="evenodd" clip-rule="evenodd" d="M22.2298 19.5875C22.7159 19.1024 22.7159 18.3128 22.2298 17.8277C21.7437 17.3426 20.9525 17.3426 20.4664 17.8277C19.9803 18.3128 19.9803 19.1024 20.4664 19.5875C20.9525 20.0726 21.7437 20.0726 22.2298 19.5875ZM21.8328 18.3082C21.937 18.2043 21.937 18.0335 21.8328 17.9295C21.7287 17.8256 21.5575 17.8256 21.4534 17.9295C21.3492 18.0335 21.3492 18.2043 21.4534 18.3082C21.5575 18.4122 21.7287 18.4122 21.8328 18.3082Z" fill="#06102D"/>
<path fill-rule="evenodd" clip-rule="evenodd" d="M24.7222 19.5875C25.2083 19.1024 25.2083 18.3128 24.7222 17.8277C24.2361 17.3426 23.4449 17.3426 22.9588 17.8277C22.4727 18.3128 22.4727 19.1024 22.9588 19.5875C23.4449 20.0726 24.2361 20.0726 24.7222 19.5875ZM24.3255 18.3082C24.4297 18.2043 24.4297 18.0335 24.3255 17.9295C24.2213 17.8256 24.0502 17.8256 23.946 17.9295C23.8419 18.0335 23.8419 18.2043 23.946 18.3082C24.0502 18.4122 24.2213 18.4122 24.3255 18.3082Z" fill="#06102D"/>
<path fill-rule="evenodd" clip-rule="evenodd" d="M23.44 17.3897C23.9261 16.9046 23.9261 16.1151 23.44 15.6299C22.9539 15.1448 22.1627 15.1448 21.6766 15.6299C21.1905 16.1151 21.1905 16.9046 21.6766 17.3897C22.1627 17.8748 22.9539 17.8748 23.44 17.3897ZM23.043 16.11C23.1472 16.006 23.1472 15.8352 23.043 15.7313C22.9389 15.6273 22.7677 15.6273 22.6636 15.7313C22.5594 15.8352 22.5594 16.006 22.6636 16.11C22.7677 16.2139 22.9389 16.2139 23.043 16.11Z" fill="#06102D"/>
<path d="M6.47067 19.6692L8.53664 19.2682L8.49696 19.0603L8.68793 19.1742L11.4756 14.5458L9.98754 13.6523L7.38337 17.9787L6.19041 18.2114L5.96472 17.0456L4.50391 17.3278L5.01482 19.9514L6.47563 19.6692H6.47067Z" fill="#06102D"/>
<path d="M6.47067 19.6692L8.53664 19.2682L8.49696 19.0603L8.68793 19.1742L11.4756 14.5458L9.98754 13.6523L7.38337 17.9787L6.19041 18.2114L5.96472 17.0456L4.50391 17.3278L5.01482 19.9514L6.47563 19.6692H6.47067Z" stroke="#06102D" stroke-linecap="round" stroke-linejoin="round"/>
<path d="M8.94346 12.0436C9.19891 12.2713 9.21875 12.6624 8.99058 12.9173C8.7624 13.1722 8.37054 13.192 8.11508 12.9643C7.85963 12.7366 7.83978 12.3456 8.07044 12.0906C8.29861 11.8357 8.69048 11.8159 8.94594 12.0436" fill="#06102D"/>
<path d="M8.94334 12.0436C9.1988 12.2713 9.21864 12.6624 8.99047 12.9173C8.76229 13.1722 8.37043 13.192 8.11497 12.9643C7.85952 12.7366 7.83967 12.3456 8.06785 12.0906C8.29602 11.8357 8.68789 11.8159 8.94334 12.0436Z" stroke="#06102D" stroke-linecap="round" stroke-linejoin="round"/>
<path d="M11.8403 18.7139L17.1355 13.4297L17.3984 13.692L12.1032 18.9763L11.8403 18.7139Z" fill="#06102D"/>
<path d="M12.1032 13.4272L17.3984 18.7115L17.1355 18.9738L11.8403 13.6896L12.1032 13.4272Z" fill="#06102D"/>
<path d="M10.8755 16.0161H18.3656V16.3874H10.8755V16.0161Z" fill="#06102D"/>
<path d="M14.4346 19.939V12.4644H14.8066V19.939H14.4346Z" fill="#06102D"/>
<path d="M17.2496 13.5756C18.703 15.026 18.703 17.3773 17.2496 18.8252C15.7962 20.2756 13.4401 20.2756 11.9892 18.8252C10.5358 17.3748 10.5358 15.0235 11.9892 13.5756C13.4426 12.1252 15.7987 12.1252 17.2496 13.5756Z" stroke="#06102D" stroke-linecap="round" stroke-linejoin="round"/>
<path d="M15.3199 15.5015C15.7068 15.8876 15.7068 16.5138 15.3199 16.9024C14.933 17.2885 14.3055 17.2885 13.9162 16.9024C13.5293 16.5163 13.5293 15.8901 13.9162 15.5015C14.3031 15.1154 14.9305 15.1154 15.3199 15.5015" stroke="#06102D" stroke-linecap="round" stroke-linejoin="round"/>
<path d="M24.757 10.5759C24.5462 10.5214 24.2883 10.514 23.9956 10.5289L10.5457 10.7368C9.72481 10.7788 9.09485 11.4793 9.13701 12.2985L9.15437 12.645C9.19653 13.4643 9.89842 14.0929 10.7194 14.0509L24.0676 12.8579C24.3726 12.843 24.643 12.8034 24.8587 12.7218L25.4961 13.2564L25.325 9.98682L24.7546 10.5784L24.757 10.5759Z" fill="#06102D"/>
<path d="M24.757 10.5759C24.5462 10.5214 24.2883 10.514 23.9956 10.5289L10.5457 10.7368C9.72481 10.7788 9.09485 11.4793 9.13701 12.2985L9.15437 12.645C9.19653 13.4643 9.89842 14.0929 10.7194 14.0509L24.0676 12.8579C24.3726 12.843 24.643 12.8034 24.8587 12.7218L25.4961 13.2564L25.325 9.98682L24.7546 10.5784L24.757 10.5759Z" stroke="#06102D" stroke-linecap="round" stroke-linejoin="round"/>
</svg>
