<svg width="13" height="12" viewBox="0 0 13 12" fill="none" xmlns="http://www.w3.org/2000/svg">
<path d="M3.60128 3.63281H2.40088V7.79361C2.40088 8.44745 2.94106 8.98241 3.60128 8.98241H9.00308V7.79361H3.60128V3.63281Z" fill="#06102D"/>
<path d="M10.8035 0.660645H6.00191C5.34169 0.660645 4.80151 1.1956 4.80151 1.84944V5.41584C4.80151 6.06968 5.34169 6.60464 6.00191 6.60464H10.8035C11.4637 6.60464 12.0039 6.06968 12.0039 5.41584V1.84944C12.0039 1.1956 11.4637 0.660645 10.8035 0.660645ZM10.8035 5.41584H6.00191V3.03824H10.8035V5.41584Z" fill="#06102D"/>
<path d="M1.2004 6.0105H0V10.1713C0 10.8251 0.54018 11.3601 1.2004 11.3601H6.6022V10.1713H1.2004V6.0105Z" fill="#06102D"/>
</svg>
