<svg width="21" height="19" viewBox="0 0 21 19" fill="none" xmlns="http://www.w3.org/2000/svg">
<path d="M6.33623 5.23405C6.93147 4.91956 9.35409 3.03264 9.35409 3.03264C9.48504 2.90332 9.49695 2.70346 9.38087 2.58883L6.83921 0.0788148C6.72314 -0.0358112 6.52076 -0.0240547 6.3898 0.105267C6.3898 0.105267 4.02968 2.95622 4.14576 3.07085L4.03564 2.9621C3.91957 2.84747 3.73207 2.84747 3.61599 2.9621L2.77373 3.79387C2.69635 3.87029 2.66957 3.97904 2.69635 4.07603C2.32433 4.28177 1.94635 4.5845 1.58028 4.97247C0.20528 6.43027 -0.476268 8.50824 0.374922 10.3129C1.22611 12.1204 0.833256 8.93147 2.21123 7.47366C2.99099 6.64777 4.17254 6.55372 4.89278 6.29801L8.48504 9.84554L7.86302 10.4598C7.92849 10.5362 7.99695 10.6097 8.07135 10.6832L15.0922 17.6166C16.1041 18.6159 17.488 18.8657 18.1874 18.178C18.8838 17.4902 18.6309 16.1206 17.619 15.1213L10.5981 8.18787C10.5237 8.11439 10.4493 8.0468 10.3719 7.98213L9.74992 8.59641L6.33921 5.22817L6.33623 5.23405Z" fill="#06102D"/>
<path d="M6.33623 5.23405C6.93147 4.91956 9.35409 3.03264 9.35409 3.03264C9.48504 2.90332 9.49695 2.70346 9.38087 2.58883L6.83921 0.0788148C6.72314 -0.0358112 6.52076 -0.0240547 6.3898 0.105267C6.3898 0.105267 4.02968 2.95622 4.14576 3.07085L4.03564 2.9621C3.91957 2.84747 3.73207 2.84747 3.61599 2.9621L2.77373 3.79387C2.69635 3.87029 2.66957 3.97904 2.69635 4.07603C2.32433 4.28177 1.94635 4.5845 1.58028 4.97247C0.20528 6.43027 -0.476268 8.50824 0.374922 10.3129C1.22611 12.1204 0.833256 8.93147 2.21123 7.47366C2.99099 6.64777 4.17254 6.55372 4.89278 6.29801L8.48504 9.84554L7.86302 10.4598C7.92849 10.5362 7.99695 10.6097 8.07135 10.6832L15.0922 17.6166C16.1041 18.6159 17.488 18.8657 18.1874 18.178C18.8838 17.4902 18.6309 16.1206 17.619 15.1213L10.5981 8.18787C10.5237 8.11439 10.4493 8.0468 10.3719 7.98213L9.74992 8.59641L6.33921 5.22817L6.33623 5.23405Z" fill="#06102D"/>
<path d="M4.61599 15.3975C5.02671 15.3975 5.36004 15.7267 5.36004 16.1323C5.36004 16.5379 5.02671 16.8671 4.61599 16.8671C4.20528 16.8671 3.87194 16.5379 3.87194 16.1323C3.87194 15.7267 4.20528 15.3975 4.61599 15.3975ZM12.3511 6.57427C12.238 6.65656 12.1279 6.75062 12.0178 6.85936L3.1279 15.1007C2.42849 15.7914 2.42849 16.9112 3.1279 17.5989C3.8273 18.2896 4.96123 18.2896 5.65766 17.5989L13.994 8.72865C14.0833 8.64048 14.1636 8.55524 14.235 8.46707C14.7648 8.72277 15.36 8.86385 15.991 8.86385C18.2112 8.86385 20.0088 7.08862 20.0088 4.89603C20.0088 4.49924 19.9493 4.11716 19.8422 3.75564L17.1547 6.40968L17.1696 6.42437L15.0892 5.78952L14.4463 3.73507L14.4612 3.74977L17.1487 1.09573C16.7827 0.986984 16.3958 0.931141 15.994 0.931141C13.7737 0.931141 11.9761 2.70637 11.9761 4.89897C11.9761 5.49855 12.11 6.0658 12.3511 6.57721V6.57427Z" fill="#06102D"/>
</svg>
