<svg width="26" height="16" viewBox="0 0 26 16" fill="none" xmlns="http://www.w3.org/2000/svg">
<path d="M1 8.13729H25.0162M4.94097 8.13729H7.46123M12.7188 7.9942V5.41859M6.20833 8.24604V10.8216M19.2292 8.24604V10.8216M17.9271 8.13729H20.4444M11.4601 8.13729H13.9774M17.8981 11.3024H20.8582C21.0174 11.3024 21.1476 11.4312 21.1476 11.5886V14.5133C21.1476 14.6707 21.0174 14.7995 20.8582 14.7995H17.8981C17.739 14.7995 17.6088 14.6707 17.6088 14.5133V11.5886C17.6088 11.4312 17.739 11.3024 17.8981 11.3024ZM4.76736 11.3024H7.72743C7.88657 11.3024 8.01678 11.4312 8.01678 11.5886V14.5162C8.01678 14.6736 7.88657 14.8024 7.72743 14.8024H4.76736C4.60822 14.8024 4.47801 14.6736 4.47801 14.5162V11.5886C4.47801 11.4312 4.60822 11.3024 4.76736 11.3024ZM11.1331 1H14.0932C14.2523 1 14.3825 1.12878 14.3825 1.28618V4.21378C14.3825 4.37118 14.2523 4.49996 14.0932 4.49996H11.1331C10.974 4.49996 10.8438 4.37118 10.8438 4.21378V1.28618C10.8438 1.12878 10.974 1 11.1331 1Z" stroke="#06102D" stroke-linecap="square" stroke-linejoin="round"/>
</svg>
