<svg width="16" height="16" viewBox="0 0 16 16" fill="none" xmlns="http://www.w3.org/2000/svg">
<path d="M15.085 7.21205H8.32277V5.15147H9.88329C10.1704 5.15147 10.4035 4.92068 10.4035 4.63632V0.515147C10.4035 0.230786 10.1704 0 9.88329 0H5.72191C5.43477 0 5.20173 0.230786 5.20173 0.515147V4.63632C5.20173 4.92068 5.43477 5.15147 5.72191 5.15147H7.28243V7.21205H0.520173C0.233038 7.21205 0 7.44284 0 7.7272C0 8.01156 0.233038 8.24235 0.520173 8.24235H3.12104V10.3029H1.56052C1.27338 10.3029 1.04035 10.5337 1.04035 10.8181V14.9393C1.04035 15.2236 1.27338 15.4544 1.56052 15.4544H5.72191C6.00904 15.4544 6.24208 15.2236 6.24208 14.9393V10.8181C6.24208 10.5337 6.00904 10.3029 5.72191 10.3029H4.16139V8.24235H11.4438V10.3029H9.88329C9.59616 10.3029 9.36312 10.5337 9.36312 10.8181V14.9393C9.36312 15.2236 9.59616 15.4544 9.88329 15.4544H14.0447C14.3318 15.4544 14.5649 15.2236 14.5649 14.9393V10.8181C14.5649 10.5337 14.3318 10.3029 14.0447 10.3029H12.4842V8.24235H15.085C15.3722 8.24235 15.6052 8.01156 15.6052 7.7272C15.6052 7.44284 15.3722 7.21205 15.085 7.21205ZM6.24208 1.03029H9.36312V4.12117H6.24208V1.03029ZM5.20173 14.4241H2.08069V11.3332H5.20173V14.4241ZM13.5245 14.4241H10.4035V11.3332H13.5245V14.4241Z" fill="#06102D"/>
</svg>
