<svg width="25" height="10" viewBox="0 0 25 10" fill="none" xmlns="http://www.w3.org/2000/svg">
<path d="M1.39699 0.142006V2.45866H1.41667C1.68651 1.99644 2.12781 1.76812 2.74339 1.76812C3.1875 1.76812 3.53042 1.88785 3.76935 2.13009C4.00827 2.36956 4.12913 2.76216 4.12913 3.30234V7.3008H2.73214V3.58079C2.73214 3.29956 2.68436 3.10465 2.5916 2.99327C2.49603 2.88189 2.34425 2.82899 2.13624 2.82899C1.64435 2.82899 1.39699 3.12692 1.39699 3.72001V7.29801H0V0.142006H1.39699ZM6.76009 0.361977V1.90456H7.56961V2.8457H6.76009V5.76379C6.76009 5.97819 6.79101 6.12855 6.85565 6.22043C6.9203 6.30954 7.05241 6.35687 7.2548 6.35687C7.3082 6.35687 7.36161 6.35687 7.41782 6.3513C7.47123 6.34852 7.52183 6.34295 7.56961 6.33738V7.3008C7.41501 7.3008 7.26323 7.30637 7.11987 7.31472C6.97371 7.32586 6.82193 7.32864 6.6589 7.32864C6.38905 7.32864 6.167 7.30915 5.99554 7.27295C5.82407 7.23675 5.69196 7.16157 5.60202 7.05298C5.51207 6.9416 5.44742 6.79681 5.41369 6.61582C5.37996 6.43484 5.3631 6.2093 5.3631 5.93364V2.8457H4.65476V1.90456H5.3631V0.361977H6.76009ZM9.75645 0.361977V1.90456H10.566V2.8457H9.75645V5.76379C9.75645 5.97819 9.78737 6.12855 9.85202 6.22043C9.91667 6.30954 10.0488 6.35687 10.2512 6.35687C10.3046 6.35687 10.358 6.35687 10.4142 6.3513C10.4676 6.34852 10.5182 6.34295 10.566 6.33738V7.3008C10.4114 7.3008 10.2596 7.30637 10.1162 7.31472C9.97007 7.32586 9.81829 7.32864 9.65526 7.32864C9.38542 7.32864 9.16336 7.30915 8.9919 7.27295C8.82044 7.23675 8.68833 7.16157 8.59838 7.05298C8.50843 6.9416 8.44378 6.79681 8.41005 6.61582C8.37632 6.43484 8.35946 6.2093 8.35946 5.93364V2.8457H7.65112V1.90456H8.35946V0.361977H9.75645ZM12.3874 1.90456V2.47537H12.4071C12.5617 2.22198 12.7359 2.03821 12.9271 1.92962C13.1182 1.81824 13.3571 1.76533 13.641 1.76533C14.2145 1.76533 14.6361 1.98809 14.9059 2.43081C15.1758 2.87632 15.3107 3.59749 15.3107 4.59989C15.3107 5.60229 15.1758 6.32067 14.9059 6.75505C14.6361 7.18942 14.2145 7.40661 13.641 7.40661C13.3768 7.40661 13.1548 7.35927 12.9692 7.26181C12.7837 7.16436 12.6179 7.00843 12.4689 6.79681H12.4492V9.03272H11.0522V1.90456H12.3874ZM12.5842 5.92807C12.6741 6.226 12.8765 6.37358 13.1857 6.37358C13.4949 6.37358 13.686 6.226 13.7788 5.92807C13.8687 5.63013 13.9165 5.18741 13.9165 4.59989C13.9165 4.01238 13.8715 3.56965 13.7788 3.27171C13.6888 2.97378 13.4893 2.8262 13.1857 2.8262C12.8821 2.8262 12.6741 2.97378 12.5842 3.27171C12.4942 3.56965 12.4464 4.01238 12.4464 4.59989C12.4464 5.18741 12.4914 5.63013 12.5842 5.92807ZM17.5284 2.07441V3.63926H16.1933V2.07441H17.5284ZM17.5284 5.73316V7.29801H16.1933V5.73316H17.5284ZM21.4636 0L19.1756 7.40661H18.0737L20.3309 0H21.4636ZM24.8226 0L22.5346 7.40661H21.4327L23.6898 0H24.8226Z" fill="#06102D"/>
</svg>
