<svg width="19" height="21" viewBox="0 0 19 21" fill="none" xmlns="http://www.w3.org/2000/svg">
<path d="M10.4977 0.161652L10.9433 0.408539C11.0475 0.467322 11.1429 0.5408 11.2269 0.628974L11.7274 1.15802C11.8056 1.24325 11.875 1.3373 11.9242 1.44311L12.2512 2.09854C12.2656 2.12793 12.2801 2.15438 12.2975 2.18377L12.5 2.51883C12.5608 2.6217 12.6071 2.73045 12.636 2.84802L13.0208 4.41163C13.0527 4.54389 13.0642 4.68203 13.0498 4.82017L12.8356 6.89226C12.8154 7.09212 12.8588 7.29492 12.963 7.46539C13.0671 7.63586 13.1047 7.83866 13.07 8.03558L12.989 8.4882C12.9716 8.5852 12.9427 8.68219 12.9022 8.7733L12.5347 9.5845C12.4711 9.72852 12.3438 9.83433 12.1933 9.8696C12.0457 9.90487 11.93 10.0195 11.8895 10.1694L11.4873 11.6507C11.3802 12.0416 11.4815 12.459 11.7506 12.7588L13.3999 14.584C13.4983 14.6927 13.6169 14.7809 13.7471 14.8455L16.9097 16.4003C17.2078 16.5473 17.4277 16.8148 17.5174 17.1351L18.1771 19.4805C18.3536 20.1036 17.9977 20.7561 17.3814 20.9325C17.2772 20.9619 17.1701 20.9766 17.0631 20.9766H1.15741C0.517939 20.9766 0 20.4505 0 19.8009C0 19.6628 0.0231481 19.5276 0.0694444 19.4012L0.940393 16.9647C1.04456 16.6737 1.25579 16.4356 1.53067 16.3034L4.27083 14.9778C4.42419 14.9043 4.56018 14.7956 4.66724 14.6604L5.87384 13.1644C6.11401 12.8675 6.19502 12.4678 6.09086 12.0975L5.58738 10.3105C5.54109 10.1459 5.41088 10.0224 5.24595 9.98716C5.08102 9.95189 4.94502 9.83139 4.88715 9.66973L4.44444 8.44412C4.37789 8.26189 4.35764 8.06203 4.38657 7.87099L4.48785 7.15972C4.49653 7.09212 4.54572 7.03627 4.60937 7.01864C4.67014 7.00101 4.71354 6.94222 4.70775 6.87756L4.56887 5.04355C4.56018 4.92892 4.56887 4.81723 4.59201 4.70555L4.92766 3.13017C4.96238 2.96264 5.03472 2.80393 5.13599 2.66873L5.93171 1.60476C5.97222 1.55186 6.01563 1.5019 6.06482 1.45487L6.85185 0.711269C6.91551 0.649548 6.98785 0.596643 7.06597 0.549617L7.7228 0.16753C7.87905 0.0764173 8.05266 0.0235134 8.23206 0.014696L8.50116 0C8.53009 0 8.56192 0 8.59086 0L9.96528 0.0264522C10.1505 0.0293913 10.3328 0.0793565 10.4948 0.170469L10.4977 0.161652Z" fill="#343A40"/>
<path d="M10.4977 0.161652L10.9433 0.408539C11.0475 0.467322 11.1429 0.5408 11.2269 0.628974L11.7274 1.15802C11.8056 1.24325 11.875 1.3373 11.9242 1.44311L12.2512 2.09854C12.2656 2.12793 12.2801 2.15438 12.2975 2.18377L12.5 2.51883C12.5608 2.6217 12.6071 2.73045 12.636 2.84802L13.0208 4.41163C13.0527 4.54389 13.0642 4.68203 13.0498 4.82017L12.8356 6.89226C12.8154 7.09212 12.8588 7.29492 12.963 7.46539C13.0671 7.63586 13.1047 7.83866 13.07 8.03558L12.989 8.4882C12.9716 8.5852 12.9427 8.68219 12.9022 8.7733L12.5347 9.5845C12.4711 9.72852 12.3438 9.83433 12.1933 9.8696C12.0457 9.90487 11.93 10.0195 11.8895 10.1694L11.4873 11.6507C11.3802 12.0416 11.4815 12.459 11.7506 12.7588L13.3999 14.584C13.4983 14.6927 13.6169 14.7809 13.7471 14.8455L16.9097 16.4003C17.2078 16.5473 17.4277 16.8148 17.5174 17.1351L18.1771 19.4805C18.3536 20.1036 17.9977 20.7561 17.3814 20.9325C17.2772 20.9619 17.1701 20.9766 17.0631 20.9766H1.15741C0.517939 20.9766 0 20.4505 0 19.8009C0 19.6628 0.0231481 19.5276 0.0694444 19.4012L0.940393 16.9647C1.04456 16.6737 1.25579 16.4356 1.53067 16.3034L4.27083 14.9778C4.42419 14.9043 4.56018 14.7956 4.66724 14.6604L5.87384 13.1644C6.11401 12.8675 6.19502 12.4678 6.09086 12.0975L5.58738 10.3105C5.54109 10.1459 5.41088 10.0224 5.24595 9.98716C5.08102 9.95189 4.94502 9.83139 4.88715 9.66973L4.44444 8.44412C4.37789 8.26189 4.35764 8.06203 4.38657 7.87099L4.48785 7.15972C4.49653 7.09212 4.54572 7.03627 4.60937 7.01864C4.67014 7.00101 4.71354 6.94222 4.70775 6.87756L4.56887 5.04355C4.56018 4.92892 4.56887 4.81723 4.59201 4.70555L4.92766 3.13017C4.96238 2.96264 5.03472 2.80393 5.13599 2.66873L5.93171 1.60476C5.97222 1.55186 6.01563 1.5019 6.06482 1.45487L6.85185 0.711269C6.91551 0.649548 6.98785 0.596643 7.06597 0.549617L7.7228 0.16753C7.87905 0.0764173 8.05266 0.0235134 8.23206 0.014696L8.50116 0C8.53009 0 8.56192 0 8.59086 0L9.96528 0.0264522C10.1505 0.0293913 10.3328 0.0793565 10.4948 0.170469L10.4977 0.161652Z" fill="black" fill-opacity="0.5"/>
</svg>
