<svg width="37" height="39" viewBox="0 0 37 39" fill="none" xmlns="http://www.w3.org/2000/svg">
<path d="M7.1638 10.0991H29.8361C30.0043 10.0991 30.142 10.2349 30.142 10.4008V26.0864C30.142 26.2523 30.0043 26.3881 29.8361 26.3881H7.1638C6.99556 26.3881 6.85791 26.2523 6.85791 26.0864V10.4008C6.85791 10.2349 6.99556 10.0991 7.1638 10.0991V10.0991Z" stroke="#06102D" stroke-width="2" stroke-linecap="round" stroke-linejoin="round"/>
<path d="M8.84619 12.271H17.1418M19.8581 12.271H28.1537M24.3669 15.0944V23.2751M26.7895 17.8454V23.2751M21.9442 20.0173V23.2751" stroke="#06102D" stroke-width="0.5" stroke-linecap="square" stroke-linejoin="round"/>
<path d="M19.8581 24.4334H28.1537M8.84619 21.2842H17.1418M8.84619 22.4214H17.1418M8.84619 23.4772H12.1498M8.84619 24.4334H12.1498M13.8383 23.4772H17.1418M13.8383 24.4334H17.1418" stroke="#06102D" stroke-width="0.5" stroke-linecap="square" stroke-linejoin="round"/>
<path d="M14.0188 14.47C13.7159 14.3644 13.3917 14.3071 13.0522 14.3071C11.4463 14.3071 10.1462 15.5891 10.1462 17.1728C10.1462 18.7564 11.4463 20.0384 13.0522 20.0384C14.6581 20.0384 15.9581 18.7564 15.9581 17.1728C15.9581 16.8199 15.8938 16.479 15.7745 16.1683L12.7065 17.4714L14.0188 14.47Z" fill="#06102D"/>
<path d="M16.634 15.0492C16.4658 14.2769 15.8815 13.7279 15.0801 13.5952L13.5874 16.5483L16.6371 15.0492H16.634Z" fill="#06102D"/>
</svg>
