<svg width="15" height="16" viewBox="0 0 15 16" fill="none" xmlns="http://www.w3.org/2000/svg">
<path d="M14.4975 12.6363C14.4975 13.2611 14.2794 13.7929 13.8431 14.2316C13.4068 14.6703 12.8733 14.8896 12.2423 14.8896L4.02709 14.8896L4.02709 13.6932L12.2423 13.6932C12.5377 13.6932 12.786 13.5902 12.9874 13.3841C13.1887 13.1781 13.2894 12.9288 13.2894 12.6363C13.2894 12.3439 13.1887 12.0979 12.9874 11.8985C12.786 11.6991 12.5377 11.5994 12.2423 11.5994L2.2753 11.5994C1.64439 11.5994 1.10745 11.3801 0.664469 10.9414C0.22149 10.5027 -2.02562e-07 9.9709 -2.28293e-07 9.34609C-2.54024e-07 8.72128 0.22149 8.19284 0.664469 7.76079C1.10745 7.32874 1.64439 7.11272 2.2753 7.11272L12.2423 7.11271C12.5377 7.11271 12.786 7.00969 12.9874 6.80363C13.1887 6.59758 13.2894 6.34832 13.2894 6.05585C13.2894 5.76338 13.1887 5.51745 12.9874 5.31804C12.786 5.11863 12.5377 5.01893 12.2423 5.01893L2.2753 5.01893C1.64439 5.01893 1.10745 4.79958 0.664469 4.36088C0.221489 3.92218 -4.73557e-07 3.39042 -4.99288e-07 2.76561C-5.25019e-07 2.14079 0.221489 1.61236 0.664469 1.18031C1.10745 0.748259 1.64439 0.532233 2.2753 0.532233L10.4704 0.532233L10.4704 1.72868L2.2753 1.72868C1.97998 1.72868 1.72829 1.82839 1.52022 2.0278C1.31216 2.22721 1.20813 2.47314 1.20813 2.76561C1.20813 3.05807 1.31216 3.30733 1.52022 3.51339C1.72829 3.71945 1.97998 3.82247 2.2753 3.82247L12.2423 3.82247C12.8733 3.82247 13.4068 4.0385 13.8431 4.47055C14.2794 4.9026 14.4975 5.43104 14.4975 6.05585C14.4975 6.68066 14.2794 7.21242 13.8431 7.65112C13.4068 8.08982 12.8733 8.30917 12.2423 8.30917L2.2753 8.30917C2.2753 8.30917 1.72829 8.40887 1.52022 8.60828C1.31216 8.80769 1.20813 9.05363 1.20813 9.34609C1.20813 9.63856 1.31216 9.88782 1.52022 10.0939C1.72829 10.2999 1.97998 10.403 2.2753 10.403L12.2423 10.403C12.8733 10.403 13.4068 10.619 13.8431 11.051C14.2794 11.4831 14.4975 12.0115 14.4975 12.6363Z" fill="#06102D"/>
<rect x="6.84546" y="0.132812" width="7.24876" height="2.3929" rx="1.19645" fill="#06102D"/>
<rect y="13.2959" width="7.24876" height="2.3929" rx="1.19645" fill="#06102D"/>
<rect x="3.62451" y="6.51318" width="7.24876" height="2.3929" rx="1.19645" fill="#06102D"/>
</svg>
