<svg width="28" height="9" viewBox="0 0 28 9" fill="none" xmlns="http://www.w3.org/2000/svg">
<path d="M1.55721 2.03264V2.648H3.57259V4.01238H1.86078V4.61938H3.57259V6.12576H1.29861V6.74948H6.56333V6.12576H4.27811V4.61938H5.98991V4.01238H4.27811V2.648H6.28505V2.03264H1.5544H1.55721ZM7.85351 0.526259H0V8.75149H0.69709V8.34496H7.15641V8.75149H7.85351V0.526259ZM0.69709 7.70176V1.16946H7.15641V7.70176H0.69709ZM5.40807 4.81429L4.86276 4.99528C5.09325 5.30714 5.30126 5.67747 5.49239 6.10349L6.02645 5.85846C5.85499 5.48813 5.64418 5.14007 5.40526 4.81708L5.40807 4.81429ZM9.44163 0.487277V8.77933H10.1022V1.13048H11.2574C11.0663 1.86001 10.788 2.6842 10.4451 3.59193C10.9707 4.36878 11.2378 5.06768 11.2378 5.70253C11.2378 5.91136 11.1984 6.06172 11.1338 6.15639C11.0579 6.24271 10.9145 6.2984 10.7037 6.31789C10.5997 6.31789 10.4732 6.2984 10.3411 6.27891L10.5519 6.94996C11.086 6.9416 11.4683 6.82744 11.6791 6.59912C11.8309 6.40978 11.9096 6.11741 11.918 5.69975C11.8786 5.03705 11.6229 4.29917 11.1338 3.48333C11.4401 2.63965 11.7156 1.81824 11.9461 1.02189V0.481708H9.44163V0.487277ZM13.5117 3.96226V4.34929H16.4547V3.80911C16.7414 4.15995 17.0759 4.47181 17.4582 4.75582L17.8489 4.24348C17.3317 3.8648 16.9016 3.41094 16.5587 2.89025C17.0281 2.40854 17.3317 1.79318 17.475 1.05252V0.654344H15.707C15.6789 0.503984 15.6592 0.342486 15.6395 0.180989L15.0858 0.342486C15.2376 1.69572 15.6789 2.83177 16.4041 3.7395H13.7001C14.3606 2.97378 14.7316 1.99644 14.8188 0.824194V0.587517H13.6523C13.7001 0.417666 13.7479 0.247815 13.7872 0.07518L13.166 0C12.9355 1.06922 12.497 1.97974 11.8477 2.72597L12.2216 3.20767C12.3171 3.09351 12.4211 2.97935 12.5167 2.86797C12.7359 3.01833 12.9552 3.19932 13.1857 3.41651C12.8596 3.75621 12.4605 4.05971 11.9826 4.32423L12.393 4.82543C12.8146 4.5804 13.1857 4.28525 13.5117 3.9539V3.96226ZM12.7753 2.51435C12.8905 2.3445 13.0058 2.15516 13.1098 1.96581C13.3487 2.09947 13.5876 2.25818 13.835 2.45866C13.731 2.66749 13.6157 2.86519 13.4808 3.05453C13.2616 2.85683 13.0227 2.67584 12.7725 2.51435H12.7753ZM13.3009 1.55929C13.3571 1.42563 13.4162 1.28363 13.4724 1.14162H14.1976C14.1582 1.43399 14.0936 1.718 14.0064 2.00201C13.7872 1.83216 13.5483 1.69015 13.2981 1.5565L13.3009 1.55929ZM12.289 5.27929V5.90301H14.6501V7.76858C14.6501 8.02475 14.5349 8.15562 14.3241 8.15562C14.0852 8.15562 13.8378 8.13613 13.568 8.10829L13.7029 8.72365H14.5433C15.0605 8.72365 15.3163 8.45912 15.3163 7.9273V5.90023H17.4947V5.27651H12.2862L12.289 5.27929ZM13.2363 6.3875C12.8624 7.10589 12.4239 7.72125 11.918 8.25308L12.4436 8.61227C12.9496 8.0526 13.3909 7.40104 13.7731 6.64367L13.2391 6.3875H13.2363ZM16.4378 6.36801L15.9403 6.67987C16.4744 7.38155 16.896 8.02475 17.2108 8.61227L17.7364 8.25308C17.4301 7.72403 17 7.08918 16.4378 6.36801ZM15.8251 1.20845H16.8482C16.7442 1.62611 16.5531 2.01315 16.2664 2.38348C16.0752 2.02429 15.9319 1.63447 15.8279 1.20845H15.8251Z" fill="#06102D"/>
<path d="M21.5564 0.027832C20.9436 1.52308 19.9598 2.84847 18.605 4.00401L18.8242 4.71404C19.3302 4.29638 19.7996 3.85365 20.2296 3.38865V8.79324H20.9183V2.5561C21.4355 1.85442 21.8656 1.11655 22.2001 0.322982L21.5592 0.030616L21.5564 0.027832ZM25.961 8.62339C26.4191 8.62339 26.7339 8.50923 26.9082 8.28369C27.0713 8.05537 27.1865 7.39267 27.2511 6.30395L26.6103 6.09512C26.5709 7.03348 26.5063 7.58201 26.3995 7.73237C26.2842 7.88273 26.0931 7.96905 25.8457 7.96905H24.2969C23.9709 7.96905 23.8191 7.81869 23.8191 7.52354V4.32422C25.0053 3.58634 26.0453 2.74266 26.9335 1.79595L26.4557 1.25577C25.6996 2.09945 24.8226 2.85682 23.8191 3.51952V0.139209H23.1304V3.9344C22.6442 4.21841 22.127 4.47458 21.5929 4.71961L21.8993 5.36282C22.3209 5.16512 22.7313 4.95629 23.1333 4.72796V7.61543C23.1333 8.27812 23.4677 8.61782 24.1367 8.61782H25.961V8.62339Z" fill="#06102D"/>
</svg>
