<svg width="30" height="19" viewBox="0 0 30 19" fill="none" xmlns="http://www.w3.org/2000/svg">
<path d="M2.12314 7.93162C2.27608 7.73253 2.35255 7.46407 2.35255 7.12019C2.35255 6.80346 2.27914 6.55007 2.13232 6.36305C1.98549 6.17603 1.78361 6.08252 1.52666 6.08252C1.26972 6.08252 1.04948 6.17905 0.893477 6.37512C0.740534 6.56817 0.664062 6.83362 0.664062 7.16845C0.664062 7.50328 0.737475 7.75666 0.884301 7.94369C1.03113 8.13071 1.23607 8.22422 1.49607 8.22422C1.75608 8.22422 1.9702 8.12467 2.12314 7.9286V7.93162ZM1.93961 6.51991C2.03749 6.66168 2.08643 6.86379 2.08643 7.12622C2.08643 7.38865 2.03443 7.61791 1.93043 7.77476C1.82643 7.93162 1.68266 8.01005 1.49913 8.01005C1.3156 8.01005 1.18101 7.93765 1.08313 7.79588C0.985243 7.65109 0.936301 7.44898 0.936301 7.18353V7.13829C0.951596 6.58627 1.1443 6.30876 1.52054 6.30876C1.70102 6.30876 1.84172 6.37813 1.93961 6.51991Z" fill="#06102D"/>
<path d="M3.04393 7.89524C3.02864 7.94953 2.98276 7.9797 2.9124 7.9797C2.90017 7.9797 2.86958 7.9797 2.82064 7.97366C2.78699 7.96763 2.7564 7.96462 2.72581 7.96462C2.62487 7.96462 2.57593 7.9978 2.57593 8.07019C2.57593 8.14259 2.61875 8.17577 2.70746 8.17577C2.73805 8.17577 2.79005 8.16973 2.86346 8.16069C2.99499 8.14259 3.10511 8.13655 3.19382 8.13655C3.28253 8.13655 3.41406 8.14862 3.58535 8.16974C3.61594 8.17275 3.64959 8.17577 3.68324 8.17577C3.77194 8.17577 3.81783 8.13957 3.81783 8.07019C3.81783 8.00081 3.76888 7.96462 3.671 7.96462C3.64959 7.96462 3.61594 7.96462 3.57006 7.97065C3.52418 7.97668 3.49053 7.9797 3.46912 7.9797C3.37735 7.9797 3.33147 7.91032 3.32841 7.77156C3.32841 7.73235 3.32841 7.64789 3.32229 7.52119C3.32229 7.41562 3.32229 7.33417 3.32229 7.27083V6.92996C3.32229 6.75501 3.32841 6.55894 3.33758 6.34477C3.33758 6.30254 3.33758 6.27841 3.33758 6.27237C3.33758 6.22713 3.33453 6.19696 3.32535 6.17886C3.31617 6.15171 3.28864 6.13965 3.24276 6.13965C3.22747 6.13965 3.19076 6.13965 3.12652 6.1487C3.0837 6.15171 3.02864 6.15473 2.9644 6.15473C2.93687 6.15473 2.89711 6.15473 2.84205 6.14568C2.79005 6.13965 2.75334 6.13965 2.72581 6.13965C2.64934 6.13965 2.61263 6.17585 2.61263 6.24522C2.61263 6.3146 2.6524 6.3508 2.73193 6.3508C2.75334 6.3508 2.78087 6.3508 2.82064 6.34477C2.8604 6.33874 2.88793 6.33572 2.90934 6.33572C2.96746 6.33572 3.00417 6.35382 3.02558 6.387C3.04393 6.42018 3.05617 6.48956 3.05617 6.59212L3.06535 7.4669C3.06535 7.69917 3.05617 7.84094 3.04087 7.89825L3.04393 7.89524ZM4.75384 7.89524C4.73854 7.94953 4.69266 7.9797 4.62231 7.9797C4.61007 7.9797 4.57948 7.9797 4.53054 7.97366C4.49689 7.96763 4.46631 7.96462 4.43572 7.96462C4.33477 7.96462 4.28583 7.9978 4.28583 8.07019C4.28583 8.14259 4.32866 8.17577 4.41736 8.17577C4.44795 8.17577 4.49995 8.16973 4.57337 8.16069C4.7049 8.14259 4.81502 8.13655 4.90372 8.13655C4.99243 8.13655 5.12396 8.14862 5.29526 8.16974C5.32585 8.17275 5.35949 8.17577 5.39314 8.17577C5.48185 8.17577 5.52773 8.13957 5.52773 8.07019C5.52773 8.00081 5.47879 7.96462 5.3809 7.96462C5.35949 7.96462 5.32585 7.96462 5.27996 7.97065C5.23408 7.97668 5.20043 7.9797 5.17902 7.9797C5.08725 7.9797 5.04137 7.91032 5.03831 7.77156C5.03831 7.73235 5.03831 7.64789 5.03219 7.52119C5.03219 7.41562 5.03219 7.33417 5.03219 7.27083V6.92996C5.03219 6.75501 5.03831 6.55894 5.04749 6.34477C5.04749 6.30254 5.04749 6.27841 5.04749 6.27237C5.04749 6.22713 5.04443 6.19696 5.03525 6.17886C5.02608 6.15171 4.99855 6.13965 4.95266 6.13965C4.93737 6.13965 4.90066 6.13965 4.83643 6.1487C4.7936 6.15171 4.73854 6.15473 4.67431 6.15473C4.64678 6.15473 4.60701 6.15473 4.55195 6.14568C4.49995 6.13965 4.46325 6.13965 4.43572 6.13965C4.35925 6.13965 4.32254 6.17585 4.32254 6.24522C4.32254 6.3146 4.3623 6.3508 4.44183 6.3508C4.46325 6.3508 4.49078 6.3508 4.53054 6.34477C4.57031 6.33874 4.59784 6.33572 4.61925 6.33572C4.67737 6.33572 4.71407 6.35382 4.73549 6.387C4.75384 6.42018 4.76607 6.48956 4.76607 6.59212L4.77525 7.4669C4.77525 7.69917 4.76607 7.84094 4.75078 7.89825L4.75384 7.89524ZM6.46374 7.89524C6.44845 7.94953 6.40257 7.9797 6.33221 7.9797C6.31998 7.9797 6.28939 7.9797 6.24045 7.97366C6.2068 7.96763 6.17621 7.96462 6.14562 7.96462C6.04468 7.96462 5.99574 7.9978 5.99574 8.07019C5.99574 8.14259 6.03856 8.17577 6.12727 8.17577C6.15786 8.17577 6.20986 8.16973 6.28327 8.16069C6.4148 8.14259 6.52492 8.13655 6.61363 8.13655C6.70233 8.13655 6.83386 8.14862 7.00516 8.16974C7.03575 8.17275 7.0694 8.17577 7.10304 8.17577C7.19175 8.17577 7.23763 8.13957 7.23763 8.07019C7.23763 8.00081 7.18869 7.96462 7.09081 7.96462C7.0694 7.96462 7.03575 7.96462 6.98987 7.97065C6.94398 7.97668 6.91034 7.9797 6.88892 7.9797C6.79716 7.9797 6.75127 7.91032 6.74822 7.77156C6.74822 7.73235 6.74822 7.64789 6.7421 7.52119C6.7421 7.41562 6.7421 7.33417 6.7421 7.27083V6.92996C6.7421 6.75501 6.74822 6.55894 6.75739 6.34477C6.75739 6.30254 6.75739 6.27841 6.75739 6.27237C6.75739 6.22713 6.75433 6.19696 6.74516 6.17886C6.73598 6.15171 6.70845 6.13965 6.66257 6.13965C6.64727 6.13965 6.61057 6.13965 6.54633 6.1487C6.50351 6.15171 6.44845 6.15473 6.38421 6.15473C6.35668 6.15473 6.31692 6.15473 6.26186 6.14568C6.20986 6.13965 6.17315 6.13965 6.14562 6.13965C6.06915 6.13965 6.03244 6.17585 6.03244 6.24522C6.03244 6.3146 6.07221 6.3508 6.15174 6.3508C6.17315 6.3508 6.20068 6.3508 6.24045 6.34477C6.28021 6.33874 6.30774 6.33572 6.32915 6.33572C6.38727 6.33572 6.42398 6.35382 6.44539 6.387C6.46374 6.42018 6.47598 6.48956 6.47598 6.59212L6.48515 7.4669C6.48515 7.69917 6.47598 7.84094 6.46068 7.89825L6.46374 7.89524Z" fill="#06102D"/>
<path d="M8.90781 7.93162C9.06075 7.73253 9.13722 7.46407 9.13722 7.12019C9.13722 6.80346 9.06381 6.55007 8.91698 6.36305C8.77016 6.17603 8.56827 6.08252 8.31133 6.08252C8.05439 6.08252 7.83415 6.17905 7.67815 6.37512C7.5252 6.56817 7.44873 6.83362 7.44873 7.16845C7.44873 7.50328 7.52214 7.75666 7.66897 7.94369C7.81579 8.13071 8.02074 8.22422 8.28074 8.22422C8.54074 8.22422 8.75486 8.12467 8.90781 7.9286V7.93162ZM8.72428 6.51991C8.82216 6.66168 8.8711 6.86379 8.8711 7.12622C8.8711 7.38865 8.8191 7.61791 8.7151 7.77476C8.6111 7.93162 8.46733 8.01005 8.2838 8.01005C8.10027 8.01005 7.96568 7.93765 7.86779 7.79588C7.76991 7.65109 7.72097 7.44898 7.72097 7.18353V7.13829C7.73626 6.58627 7.92897 6.30876 8.30521 6.30876C8.48568 6.30876 8.62639 6.37813 8.72428 6.51991ZM10.8563 7.93162C11.0092 7.73253 11.0857 7.46407 11.0857 7.12019C11.0857 6.80346 11.0123 6.55007 10.8655 6.36305C10.7187 6.17603 10.5168 6.08252 10.2598 6.08252C10.0029 6.08252 9.78264 6.17905 9.62664 6.37512C9.4737 6.56817 9.39723 6.83362 9.39723 7.16845C9.39723 7.50328 9.47064 7.75666 9.61746 7.94369C9.76429 8.13071 9.96923 8.22422 10.2292 8.22422C10.4892 8.22422 10.7034 8.12467 10.8563 7.9286V7.93162ZM10.6728 6.51991C10.7707 6.66168 10.8196 6.86379 10.8196 7.12622C10.8196 7.38865 10.7676 7.61791 10.6636 7.77476C10.5596 7.93162 10.4158 8.01005 10.2323 8.01005C10.0488 8.01005 9.91417 7.93765 9.81629 7.79588C9.71841 7.65109 9.66947 7.44898 9.66947 7.18353V7.13829C9.68476 6.58627 9.87747 6.30876 10.2537 6.30876C10.4342 6.30876 10.5749 6.37813 10.6728 6.51991Z" fill="#06102D"/>
<path d="M13.4868 7.89542C13.4715 7.94972 13.4256 7.97988 13.3553 7.97988C13.343 7.97988 13.3125 7.97988 13.2635 7.97385C13.2299 7.96782 13.1993 7.9648 13.1687 7.9648C13.0677 7.9648 13.0188 7.99798 13.0188 8.07038C13.0188 8.14277 13.0616 8.17595 13.1503 8.17595C13.1809 8.17595 13.2329 8.16992 13.3063 8.16087C13.4379 8.14277 13.548 8.13674 13.6367 8.13674C13.7254 8.13674 13.8569 8.14881 14.0282 8.16992C14.0588 8.17294 14.0925 8.17595 14.1261 8.17595C14.2148 8.17595 14.2607 8.13976 14.2607 8.07038C14.2607 8.001 14.2118 7.9648 14.1139 7.9648C14.0925 7.9648 14.0588 7.9648 14.0129 7.97083C13.967 7.97687 13.9334 7.97988 13.912 7.97988C13.8202 7.97988 13.7743 7.9105 13.7713 7.77175C13.7713 7.73253 13.7713 7.64807 13.7652 7.52138C13.7652 7.4158 13.7652 7.33436 13.7652 7.27101V6.93015C13.7652 6.75519 13.7713 6.55912 13.7805 6.34495C13.7805 6.30272 13.7805 6.27859 13.7805 6.27256C13.7805 6.22731 13.7774 6.19715 13.7682 6.17905C13.759 6.1519 13.7315 6.13983 13.6856 6.13983C13.6703 6.13983 13.6336 6.13983 13.5694 6.14888C13.5266 6.1519 13.4715 6.15492 13.4073 6.15492C13.3797 6.15492 13.34 6.15492 13.2849 6.14587C13.2329 6.13983 13.1962 6.13983 13.1687 6.13983C13.0922 6.13983 13.0555 6.17603 13.0555 6.24541C13.0555 6.31479 13.0953 6.35099 13.1748 6.35099C13.1962 6.35099 13.2237 6.35099 13.2635 6.34495C13.3033 6.33892 13.3308 6.3359 13.3522 6.3359C13.4103 6.3359 13.447 6.354 13.4685 6.38718C13.4868 6.42037 13.499 6.48974 13.499 6.5923L13.5082 7.46708C13.5082 7.69935 13.499 7.84112 13.4837 7.89844L13.4868 7.89542ZM16.9464 7.93162C17.0993 7.73253 17.1758 7.46407 17.1758 7.12019C17.1758 6.80346 17.1024 6.55007 16.9556 6.36305C16.8087 6.17603 16.6068 6.08252 16.3499 6.08252C16.093 6.08252 15.8727 6.17905 15.7167 6.37512C15.5638 6.56817 15.4873 6.83362 15.4873 7.16845C15.4873 7.50328 15.5607 7.75666 15.7075 7.94369C15.8544 8.13071 16.0593 8.22422 16.3193 8.22422C16.5793 8.22422 16.7934 8.12467 16.9464 7.9286V7.93162ZM16.7628 6.51991C16.8607 6.66168 16.9097 6.86379 16.9097 7.12622C16.9097 7.38865 16.8577 7.61791 16.7537 7.77476C16.6497 7.93162 16.5059 8.01005 16.3224 8.01005C16.1388 8.01005 16.0042 7.93765 15.9064 7.79588C15.8085 7.65109 15.7595 7.44898 15.7595 7.18353V7.13829C15.7748 6.58627 15.9675 6.30876 16.3438 6.30876C16.5243 6.30876 16.665 6.37813 16.7628 6.51991Z" fill="#06102D"/>
<path d="M17.8672 7.89524C17.8519 7.94953 17.806 7.9797 17.7356 7.9797C17.7234 7.9797 17.6928 7.9797 17.6439 7.97366C17.6102 7.96763 17.5796 7.96462 17.5491 7.96462C17.4481 7.96462 17.3992 7.9978 17.3992 8.07019C17.3992 8.14259 17.442 8.17577 17.5307 8.17577C17.5613 8.17577 17.6133 8.16973 17.6867 8.16069C17.8182 8.14259 17.9284 8.13655 18.0171 8.13655C18.1058 8.13655 18.2373 8.14862 18.4086 8.16974C18.4392 8.17275 18.4728 8.17577 18.5065 8.17577C18.5952 8.17577 18.6411 8.13957 18.6411 8.07019C18.6411 8.00081 18.5921 7.96462 18.4942 7.96462C18.4728 7.96462 18.4392 7.96462 18.3933 7.97065C18.3474 7.97668 18.3138 7.9797 18.2924 7.9797C18.2006 7.9797 18.1547 7.91032 18.1516 7.77156C18.1516 7.73235 18.1517 7.64789 18.1455 7.52119C18.1455 7.41562 18.1455 7.33417 18.1455 7.27083V6.92996C18.1455 6.75501 18.1517 6.55894 18.1608 6.34477C18.1608 6.30254 18.1608 6.27841 18.1608 6.27237C18.1608 6.22713 18.1578 6.19696 18.1486 6.17886C18.1394 6.15171 18.1119 6.13965 18.066 6.13965C18.0507 6.13965 18.014 6.13965 17.9498 6.1487C17.9069 6.15171 17.8519 6.15473 17.7876 6.15473C17.7601 6.15473 17.7204 6.15473 17.6653 6.14568C17.6133 6.13965 17.5766 6.13965 17.5491 6.13965C17.4726 6.13965 17.4359 6.17585 17.4359 6.24522C17.4359 6.3146 17.4756 6.3508 17.5552 6.3508C17.5766 6.3508 17.6041 6.3508 17.6439 6.34477C17.6836 6.33874 17.7112 6.33572 17.7326 6.33572C17.7907 6.33572 17.8274 6.35382 17.8488 6.387C17.8672 6.42018 17.8794 6.48956 17.8794 6.59212L17.8886 7.4669C17.8886 7.69917 17.8794 7.84094 17.8641 7.89825L17.8672 7.89524ZM19.5771 7.89524C19.5618 7.94953 19.5159 7.9797 19.4455 7.9797C19.4333 7.9797 19.4027 7.9797 19.3538 7.97366C19.3201 7.96763 19.2895 7.96462 19.259 7.96462C19.158 7.96462 19.1091 7.9978 19.1091 8.07019C19.1091 8.14259 19.1519 8.17577 19.2406 8.17577C19.2712 8.17577 19.3232 8.16973 19.3966 8.16069C19.5281 8.14259 19.6383 8.13655 19.727 8.13655C19.8157 8.13655 19.9472 8.14862 20.1185 8.16974C20.1491 8.17275 20.1827 8.17577 20.2164 8.17577C20.3051 8.17577 20.351 8.13957 20.351 8.07019C20.351 8.00081 20.302 7.96462 20.2041 7.96462C20.1827 7.96462 20.1491 7.96462 20.1032 7.97065C20.0573 7.97668 20.0237 7.9797 20.0023 7.9797C19.9105 7.9797 19.8646 7.91032 19.8616 7.77156C19.8616 7.73235 19.8616 7.64789 19.8554 7.52119C19.8554 7.41562 19.8554 7.33417 19.8554 7.27083V6.92996C19.8554 6.75501 19.8616 6.55894 19.8707 6.34477C19.8707 6.30254 19.8707 6.27841 19.8707 6.27237C19.8707 6.22713 19.8677 6.19696 19.8585 6.17886C19.8493 6.15171 19.8218 6.13965 19.7759 6.13965C19.7606 6.13965 19.7239 6.13965 19.6597 6.1487C19.6168 6.15171 19.5618 6.15473 19.4976 6.15473C19.47 6.15473 19.4303 6.15473 19.3752 6.14568C19.3232 6.13965 19.2865 6.13965 19.259 6.13965C19.1825 6.13965 19.1458 6.17585 19.1458 6.24522C19.1458 6.3146 19.1855 6.3508 19.2651 6.3508C19.2865 6.3508 19.314 6.3508 19.3538 6.34477C19.3935 6.33874 19.4211 6.33572 19.4425 6.33572C19.5006 6.33572 19.5373 6.35382 19.5587 6.387C19.5771 6.42018 19.5893 6.48956 19.5893 6.59212L19.5985 7.4669C19.5985 7.69917 19.5893 7.84094 19.574 7.89825L19.5771 7.89524ZM21.287 7.89524C21.2717 7.94953 21.2258 7.9797 21.1555 7.9797C21.1432 7.9797 21.1126 7.9797 21.0637 7.97366C21.03 7.96763 20.9995 7.96462 20.9689 7.96462C20.8679 7.96462 20.819 7.9978 20.819 8.07019C20.819 8.14259 20.8618 8.17577 20.9505 8.17577C20.9811 8.17577 21.0331 8.16973 21.1065 8.16069C21.238 8.14259 21.3482 8.13655 21.4369 8.13655C21.5256 8.13655 21.6571 8.14862 21.8284 8.16974C21.859 8.17275 21.8926 8.17577 21.9263 8.17577C22.015 8.17577 22.0609 8.13957 22.0609 8.07019C22.0609 8.00081 22.0119 7.96462 21.9141 7.96462C21.8926 7.96462 21.859 7.96462 21.8131 7.97065C21.7672 7.97668 21.7336 7.9797 21.7122 7.9797C21.6204 7.9797 21.5745 7.91032 21.5715 7.77156C21.5715 7.73235 21.5715 7.64789 21.5653 7.52119C21.5653 7.41562 21.5653 7.33417 21.5653 7.27083V6.92996C21.5653 6.75501 21.5715 6.55894 21.5806 6.34477C21.5806 6.30254 21.5806 6.27841 21.5806 6.27237C21.5806 6.22713 21.5776 6.19696 21.5684 6.17886C21.5592 6.15171 21.5317 6.13965 21.4858 6.13965C21.4705 6.13965 21.4338 6.13965 21.3696 6.1487C21.3268 6.15171 21.2717 6.15473 21.2075 6.15473C21.1799 6.15473 21.1402 6.15473 21.0851 6.14568C21.0331 6.13965 20.9964 6.13965 20.9689 6.13965C20.8924 6.13965 20.8557 6.17585 20.8557 6.24522C20.8557 6.3146 20.8955 6.3508 20.975 6.3508C20.9964 6.3508 21.0239 6.3508 21.0637 6.34477C21.1035 6.33874 21.131 6.33572 21.1524 6.33572C21.2105 6.33572 21.2472 6.35382 21.2686 6.387C21.287 6.42018 21.2992 6.48956 21.2992 6.59212L21.3084 7.4669C21.3084 7.69917 21.2992 7.84094 21.2839 7.89825L21.287 7.89524Z" fill="#06102D"/>
<path d="M23.7311 7.93162C23.884 7.73253 23.9605 7.46407 23.9605 7.12019C23.9605 6.80346 23.8871 6.55007 23.7402 6.36305C23.5934 6.17603 23.3915 6.08252 23.1346 6.08252C22.8776 6.08252 22.6574 6.17905 22.5014 6.37512C22.3484 6.56817 22.272 6.83362 22.272 7.16845C22.272 7.50328 22.3454 7.75666 22.4922 7.94369C22.639 8.13071 22.844 8.22422 23.104 8.22422C23.364 8.22422 23.5781 8.12467 23.7311 7.9286V7.93162ZM23.5475 6.51991C23.6454 6.66168 23.6943 6.86379 23.6943 7.12622C23.6943 7.38865 23.6423 7.61791 23.5383 7.77476C23.4343 7.93162 23.2906 8.01005 23.107 8.01005C22.9235 8.01005 22.7889 7.93765 22.691 7.79588C22.5932 7.65109 22.5442 7.44898 22.5442 7.18353V7.13829C22.5595 6.58627 22.7522 6.30876 23.1285 6.30876C23.3089 6.30876 23.4496 6.37813 23.5475 6.51991ZM24.6518 7.89844C24.6365 7.95273 24.5906 7.9829 24.5202 7.9829C24.508 7.9829 24.4774 7.9829 24.4285 7.97687C24.3948 7.97083 24.3642 7.96782 24.3336 7.96782C24.2327 7.96782 24.1838 8.001 24.1838 8.07339C24.1838 8.14579 24.2266 8.17897 24.3153 8.17897C24.3459 8.17897 24.3979 8.17294 24.4713 8.16389C24.6028 8.14579 24.7129 8.13976 24.8017 8.13976C24.8904 8.13976 25.0219 8.15182 25.1932 8.17294C25.2238 8.17595 25.2574 8.17897 25.2911 8.17897C25.3798 8.17897 25.4257 8.14277 25.4257 8.07339C25.4257 8.00401 25.3767 7.96782 25.2788 7.96782C25.2574 7.96782 25.2238 7.96782 25.1779 7.97385C25.132 7.97988 25.0984 7.9829 25.0769 7.9829C24.9852 7.9829 24.9393 7.91352 24.9362 7.77476C24.9362 7.73555 24.9362 7.65109 24.9301 7.5244C24.9301 7.41882 24.9301 7.33737 24.9301 7.27403V6.93317C24.9301 6.75821 24.9362 6.56214 24.9454 6.34797C24.9454 6.30574 24.9454 6.28161 24.9454 6.27557C24.9454 6.23033 24.9424 6.20016 24.9332 6.18206C24.924 6.15492 24.8965 6.14285 24.8506 6.14285C24.8353 6.14285 24.7986 6.14285 24.7344 6.1519C24.6915 6.15491 24.6365 6.15793 24.5722 6.15793C24.5447 6.15793 24.5049 6.15793 24.4499 6.14888C24.3979 6.14285 24.3612 6.14285 24.3336 6.14285C24.2572 6.14285 24.2205 6.17905 24.2205 6.24843C24.2205 6.3178 24.2602 6.354 24.3398 6.354C24.3612 6.354 24.3887 6.354 24.4285 6.34797C24.4682 6.34194 24.4958 6.33892 24.5172 6.33892C24.5753 6.33892 24.612 6.35702 24.6334 6.3902C24.6518 6.42338 24.664 6.49276 24.664 6.59532L24.6732 7.4701C24.6732 7.70237 24.664 7.84414 24.6487 7.90145L24.6518 7.89844Z" fill="#06102D"/>
<path d="M27.0958 7.93162C27.2487 7.73253 27.3252 7.46407 27.3252 7.12019C27.3252 6.80346 27.2518 6.55007 27.105 6.36305C26.9581 6.17603 26.7563 6.08252 26.4993 6.08252C26.2424 6.08252 26.0221 6.17905 25.8661 6.37512C25.7132 6.56817 25.6367 6.83362 25.6367 7.16845C25.6367 7.50328 25.7101 7.75666 25.857 7.94369C26.0038 8.13071 26.2087 8.22422 26.4687 8.22422C26.7287 8.22422 26.9429 8.12467 27.0958 7.9286V7.93162ZM26.9123 6.51991C27.0101 6.66168 27.0591 6.86379 27.0591 7.12622C27.0591 7.38865 27.0071 7.61791 26.9031 7.77476C26.7991 7.93162 26.6553 8.01005 26.4718 8.01005C26.2883 8.01005 26.1537 7.93765 26.0558 7.79588C25.9579 7.65109 25.909 7.44898 25.909 7.18353V7.13829C25.9243 6.58627 26.117 6.30876 26.4932 6.30876C26.6737 6.30876 26.8144 6.37813 26.9123 6.51991ZM29.0443 7.93162C29.1972 7.73253 29.2737 7.46407 29.2737 7.12019C29.2737 6.80346 29.2003 6.55007 29.0535 6.36305C28.9066 6.17603 28.7048 6.08252 28.4478 6.08252C28.1909 6.08252 27.9706 6.17905 27.8146 6.37512C27.6617 6.56817 27.5852 6.83362 27.5852 7.16845C27.5852 7.50328 27.6586 7.75666 27.8055 7.94369C27.9523 8.13071 28.1572 8.22422 28.4172 8.22422C28.6772 8.22422 28.8913 8.12467 29.0443 7.9286V7.93162ZM28.8608 6.51991C28.9586 6.66168 29.0076 6.86379 29.0076 7.12622C29.0076 7.38865 28.9556 7.61791 28.8516 7.77476C28.7476 7.93162 28.6038 8.01005 28.4203 8.01005C28.2368 8.01005 28.1022 7.93765 28.0043 7.79588C27.9064 7.65109 27.8575 7.44898 27.8575 7.18353V7.13829C27.8727 6.58627 28.0655 6.30876 28.4417 6.30876C28.6222 6.30876 28.7629 6.37813 28.8608 6.51991Z" fill="#06102D"/>
<path d="M2.004 11.5512C2.15694 11.3522 2.23341 11.0837 2.23341 10.7398C2.23341 10.4231 2.16 10.1697 2.01318 9.98268C1.86635 9.79566 1.66447 9.70215 1.40752 9.70215C1.15058 9.70215 0.930339 9.79868 0.774337 9.99475C0.621393 10.1878 0.544922 10.4533 0.544922 10.7881C0.544922 11.1229 0.618335 11.3763 0.76516 11.5633C0.911985 11.7503 1.11693 11.8438 1.37693 11.8438C1.63694 11.8438 1.85106 11.7443 2.004 11.5482V11.5512ZM1.82047 10.1395C1.91835 10.2813 1.96729 10.4834 1.96729 10.7458C1.96729 11.0083 1.91529 11.2375 1.81129 11.3944C1.70729 11.5512 1.56352 11.6297 1.37999 11.6297C1.19646 11.6297 1.06187 11.5573 0.963986 11.4155C0.866102 11.2707 0.817161 11.0686 0.817161 10.8032V10.7579C0.832455 10.2059 1.02516 9.92838 1.4014 9.92838C1.58188 9.92838 1.72258 9.99776 1.82047 10.1395ZM2.92472 11.5181C2.90942 11.5724 2.86354 11.6025 2.79319 11.6025C2.78095 11.6025 2.75036 11.6025 2.70142 11.5965C2.66777 11.5905 2.63718 11.5874 2.6066 11.5874C2.50565 11.5874 2.45671 11.6206 2.45671 11.693C2.45671 11.7654 2.49954 11.7986 2.58824 11.7986C2.61883 11.7986 2.67083 11.7926 2.74424 11.7835C2.87578 11.7654 2.98589 11.7594 3.0746 11.7594C3.16331 11.7594 3.29484 11.7715 3.46614 11.7926C3.49672 11.7956 3.53037 11.7986 3.56402 11.7986C3.65273 11.7986 3.69861 11.7624 3.69861 11.693C3.69861 11.6236 3.64967 11.5874 3.55178 11.5874C3.53037 11.5874 3.49672 11.5874 3.45084 11.5935C3.40496 11.5995 3.37131 11.6025 3.3499 11.6025C3.25813 11.6025 3.21225 11.5331 3.20919 11.3944C3.20919 11.3552 3.20919 11.2707 3.20307 11.144C3.20307 11.0384 3.20307 10.957 3.20307 10.8937V10.5528C3.20307 10.3778 3.20919 10.1818 3.21837 9.9676C3.21837 9.92537 3.21837 9.90124 3.21837 9.8952C3.21837 9.84996 3.21531 9.81979 3.20613 9.80169C3.19696 9.77454 3.16943 9.76248 3.12354 9.76248C3.10825 9.76248 3.07154 9.76248 3.00731 9.77153C2.96448 9.77454 2.90942 9.77756 2.84519 9.77756C2.81766 9.77756 2.77789 9.77756 2.72283 9.76851C2.67083 9.76248 2.63412 9.76248 2.6066 9.76248C2.53012 9.76248 2.49342 9.79868 2.49342 9.86805C2.49342 9.93743 2.53318 9.97363 2.61271 9.97363C2.63412 9.97363 2.66165 9.97363 2.70142 9.9676C2.74119 9.96157 2.76871 9.95855 2.79013 9.95855C2.84825 9.95855 2.88495 9.97665 2.90636 10.0098C2.92472 10.043 2.93695 10.1124 2.93695 10.2149L2.94613 11.0897C2.94613 11.322 2.93695 11.4638 2.92166 11.5211L2.92472 11.5181Z" fill="#06102D"/>
<path d="M4.63451 11.515C4.61922 11.5693 4.57333 11.5995 4.50298 11.5995C4.49074 11.5995 4.46015 11.5995 4.41121 11.5935C4.37757 11.5874 4.34698 11.5844 4.31639 11.5844C4.21545 11.5844 4.1665 11.6176 4.1665 11.69C4.1665 11.7624 4.20933 11.7956 4.29804 11.7956C4.32862 11.7956 4.38062 11.7895 4.45404 11.7805C4.58557 11.7624 4.69569 11.7564 4.78439 11.7564C4.8731 11.7564 5.00463 11.7684 5.17593 11.7895C5.20652 11.7926 5.24016 11.7956 5.27381 11.7956C5.36252 11.7956 5.4084 11.7594 5.4084 11.69C5.4084 11.6206 5.35946 11.5844 5.26158 11.5844C5.24016 11.5844 5.20652 11.5844 5.16063 11.5905C5.11475 11.5965 5.0811 11.5995 5.05969 11.5995C4.96793 11.5995 4.92204 11.5301 4.91898 11.3914C4.91898 11.3522 4.91898 11.2677 4.91287 11.141C4.91287 11.0354 4.91287 10.954 4.91287 10.8906V10.5498C4.91287 10.3748 4.91898 10.1788 4.92816 9.96458C4.92816 9.92235 4.92816 9.89822 4.92816 9.89219C4.92816 9.84694 4.9251 9.81677 4.91593 9.79868C4.90675 9.77153 4.87922 9.75946 4.83334 9.75946C4.81804 9.75946 4.78133 9.75946 4.7171 9.76851C4.67427 9.77153 4.61922 9.77454 4.55498 9.77454C4.52745 9.77454 4.48768 9.77454 4.43263 9.7655C4.38062 9.75946 4.34392 9.75946 4.31639 9.75946C4.23992 9.75946 4.20321 9.79566 4.20321 9.86504C4.20321 9.93442 4.24298 9.97061 4.32251 9.97061C4.34392 9.97061 4.37145 9.97062 4.41121 9.96458C4.45098 9.95855 4.47851 9.95553 4.49992 9.95553C4.55804 9.95553 4.59474 9.97363 4.61616 10.0068C4.63451 10.04 4.64675 10.1094 4.64675 10.2119L4.65592 11.0867C4.65592 11.319 4.64675 11.4608 4.63145 11.5181L4.63451 11.515ZM7.07854 11.5512C7.23148 11.3522 7.30796 11.0837 7.30796 10.7398C7.30796 10.4231 7.23454 10.1697 7.08772 9.98268C6.94089 9.79566 6.73901 9.70215 6.48206 9.70215C6.22512 9.70215 6.00488 9.79868 5.84888 9.99475C5.69594 10.1878 5.61946 10.4533 5.61946 10.7881C5.61946 11.1229 5.69288 11.3763 5.8397 11.5633C5.98653 11.7503 6.19147 11.8438 6.45147 11.8438C6.71148 11.8438 6.9256 11.7443 7.07854 11.5482V11.5512ZM6.89501 10.1395C6.99289 10.2813 7.04184 10.4834 7.04184 10.7458C7.04184 11.0083 6.98983 11.2375 6.88583 11.3944C6.78183 11.5512 6.63806 11.6297 6.45453 11.6297C6.271 11.6297 6.13641 11.5573 6.03853 11.4155C5.94064 11.2707 5.8917 11.0686 5.8917 10.8032V10.7579C5.907 10.2059 6.0997 9.92838 6.47594 9.92838C6.65642 9.92838 6.79713 9.99776 6.89501 10.1395ZM8.02985 11.5181C8.01455 11.5724 7.96867 11.6025 7.89832 11.6025C7.88608 11.6025 7.85549 11.6025 7.80655 11.5965C7.7729 11.5905 7.74231 11.5874 7.71173 11.5874C7.61078 11.5874 7.56184 11.6206 7.56184 11.693C7.56184 11.7654 7.60466 11.7986 7.69337 11.7986C7.72396 11.7986 7.77596 11.7926 7.84937 11.7835C7.98091 11.7654 8.09102 11.7594 8.17973 11.7594C8.26844 11.7594 8.39997 11.7715 8.57127 11.7926C8.60185 11.7956 8.6355 11.7986 8.66915 11.7986C8.75786 11.7986 8.80374 11.7624 8.80374 11.693C8.80374 11.6236 8.7548 11.5874 8.65691 11.5874C8.6355 11.5874 8.60185 11.5874 8.55597 11.5935C8.51009 11.5995 8.47644 11.6025 8.45503 11.6025C8.36326 11.6025 8.31738 11.5331 8.31432 11.3944C8.31432 11.3552 8.31432 11.2707 8.3082 11.144C8.3082 11.0384 8.3082 10.957 8.3082 10.8937V10.5528C8.3082 10.3778 8.31432 10.1818 8.3235 9.9676C8.3235 9.92537 8.3235 9.90124 8.3235 9.8952C8.3235 9.84996 8.32044 9.81979 8.31126 9.80169C8.30209 9.77454 8.27456 9.76248 8.22867 9.76248C8.21338 9.76248 8.17667 9.76248 8.11244 9.77153C8.06961 9.77454 8.01455 9.77756 7.95032 9.77756C7.92279 9.77756 7.88302 9.77756 7.82796 9.76851C7.77596 9.76248 7.73926 9.76248 7.71173 9.76248C7.63525 9.76248 7.59855 9.79868 7.59855 9.86805C7.59855 9.93743 7.63831 9.97363 7.71784 9.97363C7.73926 9.97363 7.76679 9.97363 7.80655 9.9676C7.84632 9.96157 7.87384 9.95855 7.89526 9.95855C7.95338 9.95855 7.99008 9.97665 8.01149 10.0098C8.02985 10.043 8.04208 10.1124 8.04208 10.2149L8.05126 11.0897C8.05126 11.322 8.04208 11.4638 8.02679 11.5211L8.02985 11.5181ZM10.4739 11.5543C10.6268 11.3552 10.7033 11.0867 10.7033 10.7428C10.7033 10.4261 10.6299 10.1727 10.4831 9.9857C10.3362 9.79868 10.1343 9.70517 9.8774 9.70517C9.62046 9.70517 9.40022 9.80169 9.24422 9.99776C9.09127 10.1908 9.0148 10.4563 9.0148 10.7911C9.0148 11.1259 9.08821 11.3793 9.23504 11.5663C9.38186 11.7534 9.58681 11.8469 9.84681 11.8469C10.1068 11.8469 10.3209 11.7473 10.4739 11.5512V11.5543ZM10.2903 10.1426C10.3882 10.2843 10.4372 10.4864 10.4372 10.7489C10.4372 11.0113 10.3852 11.2406 10.2812 11.3974C10.1772 11.5543 10.0334 11.6327 9.84987 11.6327C9.66634 11.6327 9.53175 11.5603 9.43387 11.4185C9.33598 11.2737 9.28704 11.0716 9.28704 10.8062V10.7609C9.30233 10.2089 9.49504 9.9314 9.87128 9.9314C10.0518 9.9314 10.1925 10.0008 10.2903 10.1426Z" fill="#06102D"/>
<path d="M13.3125 11.515C13.2972 11.5693 13.2513 11.5995 13.181 11.5995C13.1687 11.5995 13.1381 11.5995 13.0892 11.5935C13.0555 11.5874 13.025 11.5844 12.9944 11.5844C12.8934 11.5844 12.8445 11.6176 12.8445 11.69C12.8445 11.7624 12.8873 11.7956 12.976 11.7956C13.0066 11.7956 13.0586 11.7896 13.132 11.7805C13.2635 11.7624 13.3737 11.7564 13.4624 11.7564C13.5511 11.7564 13.6826 11.7684 13.8539 11.7895C13.8845 11.7926 13.9181 11.7956 13.9518 11.7956C14.0405 11.7956 14.0864 11.7594 14.0864 11.69C14.0864 11.6206 14.0374 11.5844 13.9396 11.5844C13.9181 11.5844 13.8845 11.5844 13.8386 11.5905C13.7927 11.5965 13.7591 11.5995 13.7377 11.5995C13.6459 11.5995 13.6 11.5301 13.597 11.3914C13.597 11.3522 13.597 11.2677 13.5908 11.141C13.5908 11.0354 13.5908 10.954 13.5908 10.8906V10.5498C13.5908 10.3748 13.597 10.1788 13.6061 9.96458C13.6061 9.92235 13.6061 9.89822 13.6061 9.89219C13.6061 9.84694 13.6031 9.81677 13.5939 9.79868C13.5847 9.77153 13.5572 9.75946 13.5113 9.75946C13.496 9.75946 13.4593 9.75946 13.3951 9.76851C13.3523 9.77153 13.2972 9.77454 13.233 9.77454C13.2054 9.77454 13.1657 9.77454 13.1106 9.7655C13.0586 9.75946 13.0219 9.75946 12.9944 9.75946C12.9179 9.75946 12.8812 9.79566 12.8812 9.86504C12.8812 9.93442 12.921 9.97061 13.0005 9.97061C13.0219 9.97061 13.0494 9.97062 13.0892 9.96458C13.129 9.95855 13.1565 9.95553 13.1779 9.95553C13.236 9.95553 13.2727 9.97363 13.2941 10.0068C13.3125 10.04 13.3247 10.1094 13.3247 10.2119L13.3339 11.0867C13.3339 11.319 13.3247 11.4608 13.3094 11.5181L13.3125 11.515ZM16.7721 11.5512C16.925 11.3522 17.0015 11.0837 17.0015 10.7398C17.0015 10.4231 16.9281 10.1697 16.7812 9.98268C16.6344 9.79566 16.4325 9.70215 16.1756 9.70215C15.9186 9.70215 15.6984 9.79868 15.5424 9.99475C15.3895 10.1878 15.313 10.4533 15.313 10.7881C15.313 11.1229 15.3864 11.3763 15.5332 11.5633C15.68 11.7503 15.885 11.8438 16.145 11.8438C16.405 11.8438 16.6191 11.7443 16.7721 11.5482V11.5512ZM16.5885 10.1395C16.6864 10.2813 16.7354 10.4834 16.7354 10.7458C16.7354 11.0083 16.6834 11.2375 16.5794 11.3944C16.4754 11.5512 16.3316 11.6297 16.1481 11.6297C15.9645 11.6297 15.8299 11.5573 15.732 11.4155C15.6342 11.2707 15.5852 11.0686 15.5852 10.8032V10.7579C15.6005 10.2059 15.7932 9.92838 16.1695 9.92838C16.3499 9.92838 16.4906 9.99776 16.5885 10.1395Z" fill="#06102D"/>
<path d="M17.6929 11.5149C17.6776 11.5692 17.6317 11.5993 17.5613 11.5993C17.5491 11.5993 17.5185 11.5993 17.4696 11.5933C17.4359 11.5873 17.4053 11.5842 17.3747 11.5842C17.2738 11.5842 17.2249 11.6174 17.2249 11.6898C17.2249 11.7622 17.2677 11.7954 17.3564 11.7954C17.387 11.7954 17.439 11.7894 17.5124 11.7803C17.6439 11.7622 17.754 11.7562 17.8427 11.7562C17.9315 11.7562 18.063 11.7682 18.2343 11.7894C18.2649 11.7924 18.2985 11.7954 18.3322 11.7954C18.4209 11.7954 18.4668 11.7592 18.4668 11.6898C18.4668 11.6204 18.4178 11.5842 18.3199 11.5842C18.2985 11.5842 18.2649 11.5842 18.219 11.5903C18.1731 11.5963 18.1395 11.5993 18.118 11.5993C18.0263 11.5993 17.9804 11.5299 17.9773 11.3912C17.9773 11.352 17.9773 11.2675 17.9712 11.1408C17.9712 11.0352 17.9712 10.9538 17.9712 10.8905V10.5496C17.9712 10.3746 17.9773 10.1786 17.9865 9.9644C17.9865 9.92217 17.9865 9.89803 17.9865 9.892C17.9865 9.84675 17.9835 9.81659 17.9743 9.79849C17.9651 9.77134 17.9376 9.75928 17.8917 9.75928C17.8764 9.75928 17.8397 9.75928 17.7754 9.76833C17.7326 9.77134 17.6776 9.77436 17.6133 9.77436C17.5858 9.77436 17.546 9.77436 17.491 9.76531C17.439 9.75928 17.4023 9.75928 17.3747 9.75928C17.2983 9.75928 17.2616 9.79547 17.2616 9.86485C17.2616 9.93423 17.3013 9.97043 17.3809 9.97043C17.4023 9.97043 17.4298 9.97043 17.4696 9.9644C17.5093 9.95836 17.5369 9.95535 17.5583 9.95535C17.6164 9.95535 17.6531 9.97345 17.6745 10.0066C17.6929 10.0398 17.7051 10.1092 17.7051 10.2117L17.7143 11.0865C17.7143 11.3188 17.7051 11.4606 17.6898 11.5179L17.6929 11.5149ZM19.4028 11.5149C19.3875 11.5692 19.3416 11.5993 19.2712 11.5993C19.259 11.5993 19.2284 11.5993 19.1795 11.5933C19.1458 11.5873 19.1152 11.5842 19.0846 11.5842C18.9837 11.5842 18.9348 11.6174 18.9348 11.6898C18.9348 11.7622 18.9776 11.7954 19.0663 11.7954C19.0969 11.7954 19.1489 11.7894 19.2223 11.7803C19.3538 11.7622 19.4639 11.7562 19.5526 11.7562C19.6414 11.7562 19.7729 11.7682 19.9442 11.7894C19.9748 11.7924 20.0084 11.7954 20.0421 11.7954C20.1308 11.7954 20.1767 11.7592 20.1767 11.6898C20.1767 11.6204 20.1277 11.5842 20.0298 11.5842C20.0084 11.5842 19.9748 11.5842 19.9289 11.5903C19.883 11.5963 19.8494 11.5993 19.8279 11.5993C19.7362 11.5993 19.6903 11.5299 19.6872 11.3912C19.6872 11.352 19.6872 11.2675 19.6811 11.1408C19.6811 11.0352 19.6811 10.9538 19.6811 10.8905V10.5496C19.6811 10.3746 19.6872 10.1786 19.6964 9.9644C19.6964 9.92217 19.6964 9.89803 19.6964 9.892C19.6964 9.84675 19.6934 9.81659 19.6842 9.79849C19.675 9.77134 19.6475 9.75928 19.6016 9.75928C19.5863 9.75928 19.5496 9.75928 19.4854 9.76833C19.4425 9.77134 19.3875 9.77436 19.3232 9.77436C19.2957 9.77436 19.2559 9.77436 19.2009 9.76531C19.1489 9.75928 19.1122 9.75928 19.0846 9.75928C19.0082 9.75928 18.9715 9.79547 18.9715 9.86485C18.9715 9.93423 19.0112 9.97043 19.0908 9.97043C19.1122 9.97043 19.1397 9.97043 19.1795 9.9644C19.2192 9.95836 19.2468 9.95535 19.2682 9.95535C19.3263 9.95535 19.363 9.97345 19.3844 10.0066C19.4028 10.0398 19.415 10.1092 19.415 10.2117L19.4242 11.0865C19.4242 11.3188 19.415 11.4606 19.3997 11.5179L19.4028 11.5149ZM21.1127 11.5149C21.0974 11.5692 21.0515 11.5993 20.9811 11.5993C20.9689 11.5993 20.9383 11.5993 20.8894 11.5933C20.8557 11.5873 20.8251 11.5842 20.7945 11.5842C20.6936 11.5842 20.6447 11.6174 20.6447 11.6898C20.6447 11.7622 20.6875 11.7954 20.7762 11.7954C20.8068 11.7954 20.8588 11.7894 20.9322 11.7803C21.0637 11.7622 21.1738 11.7562 21.2626 11.7562C21.3513 11.7562 21.4828 11.7682 21.6541 11.7894C21.6847 11.7924 21.7183 11.7954 21.752 11.7954C21.8407 11.7954 21.8866 11.7592 21.8866 11.6898C21.8866 11.6204 21.8376 11.5842 21.7397 11.5842C21.7183 11.5842 21.6847 11.5842 21.6388 11.5903C21.5929 11.5963 21.5593 11.5993 21.5378 11.5993C21.4461 11.5993 21.4002 11.5299 21.3971 11.3912C21.3971 11.352 21.3971 11.2675 21.391 11.1408C21.391 11.0352 21.391 10.9538 21.391 10.8905V10.5496C21.391 10.3746 21.3971 10.1786 21.4063 9.9644C21.4063 9.92217 21.4063 9.89803 21.4063 9.892C21.4063 9.84675 21.4033 9.81659 21.3941 9.79849C21.3849 9.77134 21.3574 9.75928 21.3115 9.75928C21.2962 9.75928 21.2595 9.75928 21.1953 9.76833C21.1524 9.77134 21.0974 9.77436 21.0331 9.77436C21.0056 9.77436 20.9658 9.77436 20.9108 9.76531C20.8588 9.75928 20.8221 9.75928 20.7945 9.75928C20.7181 9.75928 20.6814 9.79547 20.6814 9.86485C20.6814 9.93423 20.7211 9.97043 20.8007 9.97043C20.8221 9.97043 20.8496 9.97043 20.8894 9.9644C20.9291 9.95836 20.9567 9.95535 20.9781 9.95535C21.0362 9.95535 21.0729 9.97345 21.0943 10.0066C21.1127 10.0398 21.1249 10.1092 21.1249 10.2117L21.1341 11.0865C21.1341 11.3188 21.1249 11.4606 21.1096 11.5179L21.1127 11.5149ZM22.8226 11.5149C22.8073 11.5692 22.7614 11.5993 22.691 11.5993C22.6788 11.5993 22.6482 11.5993 22.5993 11.5933C22.5656 11.5873 22.535 11.5842 22.5045 11.5842C22.4035 11.5842 22.3546 11.6174 22.3546 11.6898C22.3546 11.7622 22.3974 11.7954 22.4861 11.7954C22.5167 11.7954 22.5687 11.7894 22.6421 11.7803C22.7736 11.7622 22.8837 11.7562 22.9725 11.7562C23.0612 11.7562 23.1927 11.7682 23.364 11.7894C23.3946 11.7924 23.4282 11.7954 23.4619 11.7954C23.5506 11.7954 23.5965 11.7592 23.5965 11.6898C23.5965 11.6204 23.5475 11.5842 23.4496 11.5842C23.4282 11.5842 23.3946 11.5842 23.3487 11.5903C23.3028 11.5963 23.2692 11.5993 23.2478 11.5993C23.156 11.5993 23.1101 11.5299 23.107 11.3912C23.107 11.352 23.107 11.2675 23.1009 11.1408C23.1009 11.0352 23.1009 10.9538 23.1009 10.8905V10.5496C23.1009 10.3746 23.107 10.1786 23.1162 9.9644C23.1162 9.92217 23.1162 9.89803 23.1162 9.892C23.1162 9.84675 23.1132 9.81659 23.104 9.79849C23.0948 9.77134 23.0673 9.75928 23.0214 9.75928C23.0061 9.75928 22.9694 9.75928 22.9052 9.76833C22.8623 9.77134 22.8073 9.77436 22.743 9.77436C22.7155 9.77436 22.6757 9.77436 22.6207 9.76531C22.5687 9.75928 22.532 9.75928 22.5045 9.75928C22.428 9.75928 22.3913 9.79547 22.3913 9.86485C22.3913 9.93423 22.431 9.97043 22.5106 9.97043C22.532 9.97043 22.5595 9.97043 22.5993 9.9644C22.639 9.95836 22.6666 9.95535 22.688 9.95535C22.7461 9.95535 22.7828 9.97345 22.8042 10.0066C22.8226 10.0398 22.8348 10.1092 22.8348 10.2117L22.844 11.0865C22.844 11.3188 22.8348 11.4606 22.8195 11.5179L22.8226 11.5149Z" fill="#06102D"/>
<path d="M25.2667 11.5512C25.4196 11.3522 25.4961 11.0837 25.4961 10.7398C25.4961 10.4231 25.4227 10.1697 25.2759 9.98268C25.129 9.79566 24.9272 9.70215 24.6702 9.70215C24.4133 9.70215 24.193 9.79868 24.037 9.99475C23.8841 10.1878 23.8076 10.4533 23.8076 10.7881C23.8076 11.1229 23.881 11.3763 24.0279 11.5633C24.1747 11.7503 24.3796 11.8438 24.6396 11.8438C24.8996 11.8438 25.1138 11.7443 25.2667 11.5482V11.5512ZM25.0832 10.1395C25.181 10.2813 25.23 10.4834 25.23 10.7458C25.23 11.0083 25.178 11.2375 25.074 11.3944C24.97 11.5512 24.8262 11.6297 24.6427 11.6297C24.4592 11.6297 24.3246 11.5573 24.2267 11.4155C24.1288 11.2707 24.0799 11.0686 24.0799 10.8032V10.7579C24.0952 10.2059 24.2879 9.92838 24.6641 9.92838C24.8446 9.92838 24.9853 9.99776 25.0832 10.1395ZM27.2152 11.5512C27.3681 11.3522 27.4446 11.0837 27.4446 10.7398C27.4446 10.4231 27.3712 10.1697 27.2244 9.98268C27.0775 9.79566 26.8757 9.70215 26.6187 9.70215C26.3618 9.70215 26.1415 9.79868 25.9855 9.99475C25.8326 10.1878 25.7561 10.4533 25.7561 10.7881C25.7561 11.1229 25.8295 11.3763 25.9763 11.5633C26.1232 11.7503 26.3281 11.8438 26.5881 11.8438C26.8481 11.8438 27.0622 11.7443 27.2152 11.5482V11.5512ZM27.0317 10.1395C27.1295 10.2813 27.1785 10.4834 27.1785 10.7458C27.1785 11.0083 27.1265 11.2375 27.0225 11.3944C26.9185 11.5512 26.7747 11.6297 26.5912 11.6297C26.4076 11.6297 26.2731 11.5573 26.1752 11.4155C26.0773 11.2707 26.0283 11.0686 26.0283 10.8032V10.7579C26.0436 10.2059 26.2364 9.92838 26.6126 9.92838C26.7931 9.92838 26.9338 9.99776 27.0317 10.1395ZM29.1637 11.5512C29.3166 11.3522 29.3931 11.0837 29.3931 10.7398C29.3931 10.4231 29.3197 10.1697 29.1729 9.98268C29.026 9.79566 28.8242 9.70215 28.5672 9.70215C28.3103 9.70215 28.09 9.79868 27.934 9.99475C27.7811 10.1878 27.7046 10.4533 27.7046 10.7881C27.7046 11.1229 27.778 11.3763 27.9248 11.5633C28.0717 11.7503 28.2766 11.8438 28.5366 11.8438C28.7966 11.8438 29.0107 11.7443 29.1637 11.5482V11.5512ZM28.9802 10.1395C29.078 10.2813 29.127 10.4834 29.127 10.7458C29.127 11.0083 29.075 11.2375 28.971 11.3944C28.867 11.5512 28.7232 11.6297 28.5397 11.6297C28.3561 11.6297 28.2216 11.5573 28.1237 11.4155C28.0258 11.2707 27.9768 11.0686 27.9768 10.8032V10.7579C27.9921 10.2059 28.1848 9.92838 28.5611 9.92838C28.7416 9.92838 28.8823 9.99776 28.9802 10.1395Z" fill="#06102D"/>
<path d="M10.3303 14.0395L12.5847 11.8164" stroke="#06102D" stroke-width="2" stroke-linecap="round" stroke-linejoin="round"/>
<path d="M6.62598 17.6927L9.23825 15.2765L10.0978 14.269" fill="#06102D"/>
<path d="M6.62598 17.6927L9.23825 15.2765L10.0978 14.269" stroke="#06102D" stroke-width="2" stroke-linecap="round" stroke-linejoin="round"/>
<path d="M21.4277 2.86656C23.7157 5.12288 23.7157 8.78488 21.4277 11.0412C19.1396 13.2975 15.4262 13.2975 13.1381 11.0412C10.8501 8.78488 10.8501 5.12288 13.1381 2.86656C15.4262 0.610236 19.1396 0.610236 21.4277 2.86656Z" stroke="#06102D" stroke-width="2" stroke-linecap="round" stroke-linejoin="round"/>
<path d="M13.5144 6.72495C13.5144 6.72495 13.7866 5.42183 14.741 4.48371C15.6954 3.54257 16.8822 3.40381 16.8822 3.40381" fill="#06102D"/>
<path d="M13.5144 6.72495C13.5144 6.72495 13.7866 5.42183 14.741 4.48371C15.6954 3.54257 16.8822 3.40381 16.8822 3.40381" stroke="#06102D" stroke-width="2" stroke-linecap="round" stroke-linejoin="round"/>
</svg>
