<svg width="18" height="6" viewBox="0 0 18 6" fill="none" xmlns="http://www.w3.org/2000/svg">
<path d="M1.25661 5.22831H0V3.7504H1.25661V5.22831ZM4.65079 1.60189C4.63492 1.48092 4.60582 1.3731 4.56614 1.2758C4.52381 1.1785 4.46561 1.09961 4.38889 1.03913C4.31217 0.978641 4.21164 0.949714 4.08466 0.949714C3.92593 0.949714 3.7963 0.98653 3.69312 1.05753C3.59259 1.13117 3.51587 1.23636 3.46561 1.37836C3.41534 1.52037 3.38095 1.69919 3.35979 1.91746C3.34127 2.13573 3.33069 2.39345 3.33069 2.68798C3.33069 3.00355 3.34127 3.27441 3.35979 3.49794C3.37831 3.72147 3.4127 3.90555 3.46561 4.05282C3.51587 4.19745 3.5873 4.30264 3.67989 4.37102C3.77249 4.43676 3.89153 4.47095 4.03704 4.47095C4.25926 4.47095 4.42063 4.37627 4.52381 4.18693C4.62434 3.99759 4.67725 3.69517 4.67725 3.27704H5.93386C5.93386 3.945 5.78307 4.45517 5.48148 4.80492C5.17989 5.15468 4.67989 5.33087 3.98148 5.33087C3.65079 5.33087 3.36508 5.29143 3.11905 5.21253C2.87566 5.13364 2.67196 4.99164 2.51058 4.78652C2.34921 4.5814 2.22751 4.3079 2.14286 3.9634C2.06085 3.61891 2.01852 3.19289 2.01852 2.68009C2.01852 2.16729 2.06878 1.72286 2.17196 1.37836C2.27249 1.03387 2.41534 0.760372 2.60053 0.555252C2.78571 0.350132 3.00265 0.205496 3.25661 0.123974C3.51058 0.0424514 3.79101 0.000375112 4.09524 0.000375112C4.7037 0.000375112 5.16402 0.176568 5.4709 0.531584C5.77778 0.88397 5.93386 1.36521 5.93386 1.97006H4.67725C4.67725 1.84383 4.66931 1.72023 4.65344 1.60189H4.65079ZM7.78042 3.40064C7.79365 3.62154 7.82275 3.81088 7.87037 3.96866C7.91799 4.12645 7.98942 4.25005 8.08465 4.33683C8.17989 4.42624 8.30688 4.46832 8.46561 4.46832C8.7328 4.46832 8.91534 4.32894 9.01852 4.05282C9.11905 3.77406 9.17196 3.31649 9.17196 2.68009C9.17196 2.04369 9.12169 1.58611 9.01852 1.30736C8.91799 1.02861 8.7328 0.89186 8.46561 0.89186C8.30688 0.89186 8.17989 0.936566 8.08465 1.02335C7.98942 1.11276 7.91799 1.23373 7.87037 1.39151C7.82275 1.5493 7.79365 1.73864 7.78042 1.95954C7.7672 2.18044 7.7619 2.41974 7.7619 2.68009C7.7619 2.94043 7.7672 3.17974 7.78042 3.40064ZM6.55291 1.52563C6.62169 1.19165 6.73809 0.912898 6.89683 0.686739C7.05556 0.463211 7.26455 0.292278 7.52116 0.176569C7.77778 0.0608598 8.09524 0.000375112 8.46825 0.000375112C8.86243 -0.00488438 9.18783 0.0450809 9.44973 0.15553C9.70899 0.26598 9.91534 0.434284 10.0688 0.663072C10.2222 0.88923 10.328 1.17061 10.3915 1.50459C10.455 1.83857 10.4868 2.2304 10.4868 2.67746C10.4868 3.12451 10.4524 3.49794 10.381 3.83192C10.3122 4.16589 10.1958 4.44465 10.037 4.67081C9.87831 4.89434 9.66931 5.06001 9.4127 5.16783C9.15608 5.27565 8.83862 5.32824 8.46561 5.32824C8.07143 5.3335 7.74603 5.28617 7.48413 5.18098C7.22487 5.07579 7.01852 4.91274 6.86508 4.68921C6.71164 4.46569 6.60582 4.1843 6.54233 3.8477C6.47884 3.51109 6.44709 3.11926 6.44709 2.67746C6.44709 2.23566 6.48148 1.85698 6.55291 1.523V1.52563ZM12.4471 0.134493V0.655183H12.4656C12.6296 0.421135 12.8175 0.255461 13.0238 0.152901C13.2302 0.0529705 13.4762 0.000375112 13.7619 0.000375112C14.0661 0.000375112 14.3228 0.0687488 14.5291 0.208125C14.7354 0.347502 14.873 0.549992 14.9444 0.812967H14.963C15.0635 0.542103 15.2275 0.336983 15.4524 0.202866C15.6772 0.0661189 15.9471 0.000375112 16.2566 0.000375112C16.6958 0.000375112 17.0159 0.131863 17.2222 0.392208C17.4286 0.655183 17.5317 1.03124 17.5317 1.523V5.22568H16.2169V1.66501C16.2169 1.44937 16.1772 1.28632 16.0979 1.17324C16.0185 1.06016 15.8862 1.00231 15.7037 1.00231C15.4947 1.00231 15.328 1.07068 15.2037 1.21006C15.0794 1.34944 15.0185 1.57033 15.0185 1.87276V5.22305H13.7037V1.66238C13.7037 1.44674 13.664 1.28369 13.5847 1.17061C13.5053 1.05753 13.373 0.99968 13.1905 0.99968C12.9815 0.99968 12.8148 1.06805 12.6905 1.20743C12.5661 1.34681 12.5053 1.5677 12.5053 1.87013V5.22042H11.1905V0.126604H12.4471V0.134493Z" fill="#06102D"/>
</svg>
