<svg width="15" height="12" viewBox="0 0 15 12" fill="none" xmlns="http://www.w3.org/2000/svg">
<path d="M1.08036 11.888C0.792264 11.888 0.54018 11.7766 0.324108 11.5536C0.108036 11.3307 0 11.0707 0 10.7735V1.1145C0 0.8173 0.108036 0.55725 0.324108 0.33435C0.54018 0.11145 0.792264 0 1.08036 0H13.3244C13.6125 0 13.8646 0.11145 14.0807 0.33435C14.2968 0.55725 14.4048 0.8173 14.4048 1.1145V10.7735C14.4048 11.0707 14.2968 11.3307 14.0807 11.5536C13.8646 11.7766 13.6125 11.888 13.3244 11.888H1.08036ZM1.08036 10.7735H13.3244V2.6748H1.08036V10.7735Z" fill="#06102D"/>
</svg>
