<svg width="28" height="20" viewBox="0 0 28 20" fill="none" xmlns="http://www.w3.org/2000/svg">
<path d="M7.75091 18.5559L11.2564 17.4036L11.0942 15.8742L11.1554 14.2453L11.7672 12.4355L12.5625 11.7718L13.4802 11.1685L14.7649 10.6859L15.8661 10.3239L17.5179 9.78096L18.9861 9.23799L19.2308 9.17766L19.5979 9.47931L18.8485 10.7885L18.8699 11.1535L19.0748 11.5396L23.9782 13.443L24.8591 13.8381L25.1864 14.2363L25.6667 14.3479L25.9787 14.3208L26.6333 13.9648L26.9544 13.271L26.829 12.713L26.4467 12.2484L25.8563 12.0041L25.2354 12.0614L21.8339 10.4959L22.7699 9.80509L23.2593 9.25006L23.4459 8.66185L23.2318 7.79008L24.5471 7.56385L25.4495 7.17171L25.89 6.48998L26.0154 5.89574L25.8961 5.27736L25.5963 4.64088L25.2017 4.29701L24.5594 3.98631L23.9568 3.86263L23.2135 3.90788L22.4579 4.07077L21.8125 4.36639L21.5433 4.58056L21.4087 4.68915L21.1885 5.03001L20.4666 4.28796L20.176 4.13713L19.8732 4.10697L19.3134 4.17032L13.5842 1.93812L12.8103 1.12971L12.1465 1L11.5133 1.17797L10.9566 1.7873L10.8373 2.32122L10.975 2.76162L11.3634 3.16583L12.1618 3.18694L13.2385 3.47954L17.4873 5.73888L15.2971 6.66494L14.5293 6.94849L13.7004 7.226L12.694 7.42509L11.599 7.31046L9.72999 7.54273L8.15774 7.8655L7.20031 8.19127L3.50215 9.99211L2.16237 8.70106L1.61483 8.64375L1.21718 8.90618L1.052 9.3134L1 9.79302L1.40377 10.6226L1.89319 11.2198L2.5692 12.3812L4.06804 12.173L6.52125 11.0931L8.2648 10.3028L8.96528 10.0736L9.65352 9.96194L10.458 9.92273L10.926 10.152L10.9413 10.5773L10.5926 10.9664L9.87988 11.3163L9.27422 11.799L9.0754 12.5078L9.11822 13.8472L9.05704 16.1457L7.12384 16.9752L6.86996 17.6178L7.10243 18.3085L7.75397 18.5589L7.75091 18.5559Z" stroke="#343A40" stroke-linecap="round" stroke-linejoin="round"/>
<path d="M7.75091 18.5559L11.2564 17.4036L11.0942 15.8742L11.1554 14.2453L11.7672 12.4355L12.5625 11.7718L13.4802 11.1685L14.7649 10.6859L15.8661 10.3239L17.5179 9.78096L18.9861 9.23799L19.2308 9.17766L19.5979 9.47931L18.8485 10.7885L18.8699 11.1535L19.0748 11.5396L23.9782 13.443L24.8591 13.8381L25.1864 14.2363L25.6667 14.3479L25.9787 14.3208L26.6333 13.9648L26.9544 13.271L26.829 12.713L26.4467 12.2484L25.8563 12.0041L25.2354 12.0614L21.8339 10.4959L22.7699 9.80509L23.2593 9.25006L23.4459 8.66185L23.2318 7.79008L24.5471 7.56385L25.4495 7.17171L25.89 6.48998L26.0154 5.89574L25.8961 5.27736L25.5963 4.64088L25.2017 4.29701L24.5594 3.98631L23.9568 3.86263L23.2135 3.90788L22.4579 4.07077L21.8125 4.36639L21.5433 4.58056L21.4087 4.68915L21.1885 5.03001L20.4666 4.28796L20.176 4.13713L19.8732 4.10697L19.3134 4.17032L13.5842 1.93812L12.8103 1.12971L12.1465 1L11.5133 1.17797L10.9566 1.7873L10.8373 2.32122L10.975 2.76162L11.3634 3.16583L12.1618 3.18694L13.2385 3.47954L17.4873 5.73888L15.2971 6.66494L14.5293 6.94849L13.7004 7.226L12.694 7.42509L11.599 7.31046L9.72999 7.54273L8.15774 7.8655L7.20031 8.19127L3.50215 9.99211L2.16237 8.70106L1.61483 8.64375L1.21718 8.90618L1.052 9.3134L1 9.79302L1.40377 10.6226L1.89319 11.2198L2.5692 12.3812L4.06804 12.173L6.52125 11.0931L8.2648 10.3028L8.96528 10.0736L9.65352 9.96194L10.458 9.92273L10.926 10.152L10.9413 10.5773L10.5926 10.9664L9.87988 11.3163L9.27422 11.799L9.0754 12.5078L9.11822 13.8472L9.05704 16.1457L7.12384 16.9752L6.86996 17.6178L7.10243 18.3085L7.75397 18.5589L7.75091 18.5559Z" stroke="black" stroke-opacity="0.5" stroke-linecap="round" stroke-linejoin="round"/>
</svg>
