<svg width="24" height="18" viewBox="0 0 24 18" fill="none" xmlns="http://www.w3.org/2000/svg">
<path fill-rule="evenodd" clip-rule="evenodd" d="M5.3599 12.6918C4.55025 14.8312 2.70513 16.5356 0.252976 17.1028C0.182097 17.1203 0.109064 17.1357 0.0375409 17.1507C0.024974 17.1534 0.0124538 17.156 0 17.1586C2.34226 17.6906 4.82738 17.72 7.30059 17.1469C9.28274 16.6884 11.0774 15.8831 12.6399 14.8132C15.3512 14.8279 18.0714 14.1049 20.1399 12.6441C24.2411 9.75203 24.2411 5.06118 20.1399 2.16908C16.0387 -0.723026 9.38988 -0.723026 5.29167 2.16908C1.19048 5.06118 1.19048 9.75203 5.29167 12.6441C5.30357 12.653 5.31547 12.661 5.32737 12.6691C5.33821 12.6765 5.34905 12.6838 5.3599 12.6918ZM6.17554 4.49365C5.89939 4.49365 5.67554 4.71751 5.67554 4.99365C5.67554 5.26979 5.89939 5.49365 6.17554 5.49365H18.8243C19.1005 5.49365 19.3243 5.26979 19.3243 4.99365C19.3243 4.71751 19.1005 4.49365 18.8243 4.49365H6.17554ZM6.17554 7.09478C5.89939 7.09478 5.67554 7.31864 5.67554 7.59478C5.67554 7.87092 5.89939 8.09478 6.17554 8.09478H18.8243C19.1005 8.09478 19.3243 7.87092 19.3243 7.59478C19.3243 7.31864 19.1005 7.09478 18.8243 7.09478H6.17554ZM6.17554 9.54602C5.89939 9.54602 5.67554 9.76987 5.67554 10.046C5.67554 10.3222 5.89939 10.546 6.17554 10.546H18.8243C19.1005 10.546 19.3243 10.3222 19.3243 10.046C19.3243 9.76987 19.1005 9.54602 18.8243 9.54602H6.17554Z" fill="#06102D"/>
</svg>
