<svg width="20" height="24" viewBox="0 0 20 24" fill="none" xmlns="http://www.w3.org/2000/svg">
<path d="M10.3518 14.4322C10.3518 14.4322 9.8571 15.7214 8.11437 17.1275C6.37165 18.5336 4.19886 19.3968 4.19886 19.3968M12.9603 14.6688C12.9603 14.6688 12.533 16.4787 10.5739 18.322C8.6147 20.1653 6.03997 21.1733 6.03997 21.1733M3.22069 3.73992C3.22069 3.73992 5.26136 1.01117 8.46573 1.00003C11.6701 0.988896 14.5315 3.70372 14.5315 3.70372M4.10048 6.26541C4.10048 6.26541 5.82916 3.41414 8.21837 3.17747C10.6048 2.94079 12.5274 5.43008 12.5274 5.43008M8.6906 7.74394C8.6906 7.74394 9.61818 11.1103 7.95415 13.8279C6.29294 16.5456 2.82436 17.3363 2.82436 17.3363M14.9447 22.0977C14.9447 22.0977 13.93 21.6355 12.786 21.9696C11.642 22.3038 10.9084 23.2755 10.9084 23.2755M16.7521 20.2377C16.7521 20.2377 14.9672 19.4776 12.5639 20.1403C10.1607 20.803 8.26897 22.5739 8.26897 22.5739M13.3088 7.10631C13.3088 7.10631 14.0762 9.85733 15.5603 11.4834C17.0444 13.1096 18.5454 12.845 18.5454 12.845M17.7781 18.0909C17.7781 18.0909 16.9882 17.5312 15.8189 17.3948C14.6468 17.2584 13.6461 17.6092 13.6461 17.6092M18.3206 15.3705C18.3206 15.3705 16.4823 15.2007 15.0094 14.2011C13.5365 13.2014 13.1205 11.8454 13.1205 11.8454M2.473 5.32705C2.473 5.32705 1.68597 6.46867 1.27839 7.98897C0.870822 9.50928 1.03104 10.6954 1.03104 10.6954M4.16513 7.91101C4.16513 7.91101 4.66546 9.42018 3.90654 10.7818C3.15042 12.1434 1.49202 12.717 1.49202 12.717M15.3242 5.70295C15.3242 5.70295 15.4141 7.11466 16.2237 8.42892C17.0332 9.74317 18.1856 10.339 18.1856 10.339M2.02608 15.042C2.02608 15.042 4.9859 14.1454 6.37446 11.5976C7.76302 9.04985 5.66894 7.30679 6.9282 6.04544C8.18746 4.78409 9.70812 5.24909 10.8184 7.1425C11.9287 9.03592 10.8465 12.7281 10.8465 12.7281" stroke="#06102D" stroke-linecap="round" stroke-linejoin="round"/>
</svg>
