<svg width="16" height="16" viewBox="0 0 16 16" fill="none" xmlns="http://www.w3.org/2000/svg">
<path d="M1.14744 15.1836C0.841457 15.1836 0.573721 15.0647 0.344232 14.8269C0.114744 14.5892 0 14.3118 0 13.9948V2.10677C0 1.78976 0.114744 1.51237 0.344232 1.27461C0.573721 1.03685 0.841457 0.917969 1.14744 0.917969H14.4578C14.7637 0.917969 15.0315 1.03685 15.261 1.27461C15.4905 1.51237 15.6052 1.78976 15.6052 2.10677V13.9948C15.6052 14.3118 15.4905 14.5892 15.261 14.8269C15.0315 15.0647 14.7637 15.1836 14.4578 15.1836H1.14744ZM1.14744 13.9948H14.4578V2.10677H1.14744V13.9948ZM2.44787 12.0134H6.27268V10.4284H2.44787V12.0134ZM9.75325 10.4284L13.5398 6.50533L12.4497 5.37597L9.75325 8.18946L8.66318 7.0601L7.59224 8.18946L9.75325 10.4284ZM2.44787 8.8433H6.27268V7.25824H2.44787V8.8433ZM2.44787 5.67317H6.27268V4.0881H2.44787V5.67317ZM1.14744 13.9948V2.10677V13.9948Z" fill="#06102D"/>
</svg>
