<svg width="22" height="14" viewBox="0 0 22 14" fill="none" xmlns="http://www.w3.org/2000/svg">
<path d="M2.72272 0.00541431V0.804007H0.982143V1.94098H2.61905V2.73958H0.982143V4.83757H0V0.00541431H2.71999H2.72272ZM5.87922 0.00541431V0.804007H4.13864V1.94098H5.77555V2.73958H4.13864V4.83757H3.1565V0.00541431H5.87649H5.87922ZM7.2433 1.31023V2.366H6.34301V1.31023H7.2433ZM7.2433 3.7791V4.83487H6.34301V3.7791H7.2433ZM10.6726 0.00270664V0.801299H8.93204V1.93828H10.5689V2.73687H8.93204V4.83487H7.9499V0.00270664H10.6699H10.6726ZM13.8291 0.00270664V0.801299H12.0885V1.93828H13.7254V2.73687H12.0885V4.83487H11.1064V0.00270664H13.8264H13.8291ZM15.1932 1.30753V2.36329H14.2929V1.30753H15.1932ZM15.1932 3.77639V4.83216H14.2929V3.77639H15.1932ZM18.6225 0V0.798593H16.8819V1.93557H18.5188V2.73416H16.8819V4.83216H15.8998V0H18.6198H18.6225ZM21.779 0V0.798593H20.0384V1.93557H21.6753V2.73416H20.0384V4.83216H19.0563V0H21.7763H21.779Z" fill="#06102D"/>
<path d="M2.72272 8.31596V9.11455H0.982143V10.2515H2.61905V11.0501H0.982143V13.1481H0V8.31596H2.71999H2.72272ZM5.87922 8.31596V9.11455H4.13864V10.2515H5.77555V11.0501H4.13864V13.1481H3.1565V8.31596H5.87649H5.87922ZM7.2433 9.62078V10.6765H6.34301V9.62078H7.2433ZM7.2433 12.0896V13.1454H6.34301V12.0896H7.2433ZM10.6726 8.31325V9.11185H8.93204V10.2488H10.5689V11.0474H8.93204V13.1454H7.9499V8.31325H10.6699H10.6726ZM13.8291 8.31325V9.11185H12.0885V10.2488H13.7254V11.0474H12.0885V13.1454H11.1064V8.31325H13.8264H13.8291ZM15.1932 9.61807V10.6738H14.2929V9.61807H15.1932ZM15.1932 12.0869V13.1427H14.2929V12.0869H15.1932ZM18.6225 8.31055V9.10914H16.8819V10.2461H18.5188V11.0447H16.8819V13.1427H15.8998V8.31055H18.6198H18.6225ZM21.779 8.31055V9.10914H20.0384V10.2461H21.6753V11.0447H20.0384V13.1427H19.0563V8.31055H21.7763H21.779Z" fill="#06102D"/>
</svg>
