<svg width="17" height="16" viewBox="0 0 17 16" fill="none" xmlns="http://www.w3.org/2000/svg">
<path d="M5.10016 4.20996H3.40015V10.1025C3.40015 11.0285 4.16515 11.7861 5.10016 11.7861H12.7502V10.1025H5.10016V4.20996Z" fill="#B2B5BD"/>
<path d="M15.3001 0H8.50006C7.56506 0 6.80005 0.757614 6.80005 1.68359V6.73435C6.80005 7.66032 7.56506 8.41793 8.50006 8.41793H15.3001C16.2351 8.41793 17.0001 7.66032 17.0001 6.73435V1.68359C17.0001 0.757614 16.2351 0 15.3001 0ZM15.3001 6.73435H8.50006V3.36717H15.3001V6.73435Z" fill="#B2B5BD"/>
<path d="M1.70001 7.57617H0V13.4687C0 14.3947 0.765006 15.1523 1.70001 15.1523H9.35008V13.4687H1.70001V7.57617Z" fill="#B2B5BD"/>
</svg>
