<svg width="18" height="18" viewBox="0 0 18 18" fill="none" xmlns="http://www.w3.org/2000/svg">
<path d="M14 8C14.34 8 14.5 8 15 8V3.27L7.5 0L0 3.27V8.18C0 12.72 3.2 16.97 7.5 18C8.05 17.87 7.98 17.73 8.5 17.5C8.5 16.05 8.5 11.78 8.5 10.5C8.5 7.19 8 8 14 8Z" fill="#B2B5BD"/>
<path d="M17.1111 9H10.8889C10.3956 9 10 9.4 10 9.88889V16.1111C10 16.6 10.3956 17 10.8889 17H17.1111C17.6044 17 18 16.6 18 16.1111V9.88889C18 9.4 17.6044 9 17.1111 9ZM13.1111 15.2222L10.8889 13L11.5156 12.3733L13.1111 13.9644L16.4844 10.5911L17.1111 11.2222L13.1111 15.2222Z" fill="#B2B5BD"/>
</svg>
