<svg width="13" height="13" viewBox="0 0 13 13" fill="none" xmlns="http://www.w3.org/2000/svg">
<path d="M6.5 0C2.912 0 0 2.912 0 6.5C0 10.088 2.912 13 6.5 13C10.088 13 13 10.088 13 6.5C13 2.912 10.088 0 6.5 0ZM6.5 1.95C7.579 1.95 8.45 2.821 8.45 3.9C8.45 4.979 7.579 5.85 6.5 5.85C5.421 5.85 4.55 4.979 4.55 3.9C4.55 2.821 5.421 1.95 6.5 1.95ZM6.5 11.18C4.875 11.18 3.4385 10.348 2.6 9.087C2.6195 7.7935 5.2 7.085 6.5 7.085C7.7935 7.085 10.3805 7.7935 10.4 9.087C9.5615 10.348 8.125 11.18 6.5 11.18Z" fill="#F1F1F2" fill-opacity="0.7"/>
</svg>
